<?xml version="1.0" encoding="UTF-8"?>
<svg width="40px" height="40px" viewBox="0 0 40 40" version="1.1" xmlns="http://www.w3.org/2000/svg" xmlns:xlink="http://www.w3.org/1999/xlink">
    <!-- Generator: Sketch 49.3 (51167) - http://www.bohemiancoding.com/sketch -->
    <title>Group</title>
    <desc>Created with Sketch.</desc>
    <defs></defs>
    <g id="Screens" stroke="none" stroke-width="1" fill="none" fill-rule="evenodd">
        <g id="02---Animate-a---mouseover" transform="translate(-216.000000, -944.000000)" fill="#F3F5FA">
            <g id="bottom" transform="translate(0.000000, 904.000000)">
                <g id="Record-Buttons" transform="translate(120.000000, 28.000000)">
                    <g id="GIF" transform="translate(84.000000, 0.000000)">
                        <g id="Group" transform="translate(12.000000, 12.000000)">
                            <path d="M20,40 C8.954305,40 0,31.045695 0,20 C0,8.954305 8.954305,0 20,0 C31.045695,0 40,8.954305 40,20 C40,31.045695 31.045695,40 20,40 Z M10.9454736,14.0267861 C8.74537081,14.0592967 6.93333384,15.749791 6.93333333,17.8026322 L6.93333333,22.2054615 C6.93333333,24.2583026 8.74522808,25.9487969 10.9454736,25.9487969 L13.1158137,25.9487969 C15.1179401,25.9487969 16.7818089,24.5428493 17.0682191,22.7442057 C17.1096332,22.62261 17.1298021,22.495588 17.1279519,22.3680124 L17.1279519,20.022623 C17.128033,19.9916621 17.128033,19.9839209 17.1279519,19.9761802 C17.1273451,19.9482685 17.1256849,19.9203854 17.1229744,19.8925828 C17.1142997,19.8009388 17.0942547,19.7105438 17.0632416,19.6232119 C17.0541747,19.5981389 17.0442132,19.5733553 17.0333739,19.5489025 C17.0286182,19.536441 17.02364,19.5240543 17.0184413,19.5117478 C16.9766599,19.4219111 16.9383348,19.35817 16.8939931,19.2981078 C16.8765548,19.2758483 16.858292,19.2541614 16.8392378,19.2330865 C16.8310934,19.22368 16.8227957,19.2143901 16.8143476,19.2052198 C16.7951881,19.1844589 16.7752653,19.1643219 16.7546148,19.144845 C16.7448246,19.1354028 16.7348673,19.1261126 16.7247471,19.1169784 C16.5896107,18.990859 16.4493514,18.9104503 16.2966521,18.8568955 C16.2688038,18.8466827 16.2405787,18.8373881 16.2120291,18.8290289 C16.1987557,18.8288354 16.1854798,18.8288354 16.1722064,18.8290289 C16.1442944,18.8203802 16.1160698,18.8126355 16.0875834,18.8058087 C16.0334269,18.7947426 15.9785542,18.7869852 15.923315,18.7825862 C15.8934574,18.7816063 15.8635721,18.7816063 15.8337145,18.7825862 L13.3199049,18.7825862 C12.8603367,18.7765222 12.4328693,19.0017992 12.2011885,19.3721542 C11.9695077,19.7425092 11.9695077,20.2005631 12.2011885,20.5709182 C12.4328693,20.9412732 12.8603367,21.1665502 13.3199049,21.1604862 L14.5792972,21.1604862 L14.5792972,22.1729509 C14.5792972,22.949573 13.9479954,23.5383862 13.1158137,23.5383862 L10.9454736,23.5383862 C10.1132889,23.5383862 9.48198888,22.949573 9.48198811,22.1729509 L9.48198811,17.7701215 C9.48198811,16.9934993 10.1131462,16.4046861 10.9454736,16.4046861 L15.8536245,16.4046861 C16.3131928,16.4107501 16.7406601,16.1854731 16.9723409,15.8151181 C17.2040217,15.4447631 17.2040217,14.9867091 16.9723409,14.6163541 C16.7406601,14.2459991 16.3131928,14.0207221 15.8536245,14.0267861 L10.9454736,14.0267861 Z M20.931024,14.0592967 C20.2291955,14.069548 19.6683667,14.6073364 19.6766067,15.2621789 L19.6766067,24.7459124 C19.6701073,25.1746905 19.9115612,25.5735184 20.3085111,25.789677 C20.7054609,26.0058357 21.1964073,26.0058357 21.5933571,25.789677 C21.990307,25.5735184 22.2317609,25.1746905 22.2252615,24.7459124 L22.2252615,15.2621789 C22.2293,14.9412058 22.0940774,14.6323442 21.8503322,14.405804 C21.606587,14.1792639 21.2750277,14.054292 20.931024,14.0592967 Z M28.786057,14.0592967 C26.5859537,14.0592967 24.7739163,15.749791 24.7739163,17.8026322 L24.7739163,19.9018708 C24.7692306,19.9606181 24.7692306,20.019609 24.7739163,20.0783562 L24.7739163,24.7598469 C24.7674168,25.188625 25.0088708,25.5874529 25.4058206,25.8036115 C25.8027705,26.0197702 26.2937168,26.0197702 26.6906667,25.8036115 C27.0876166,25.5874529 27.3290705,25.188625 27.322571,24.7598469 L27.322571,21.1929969 L29.8712258,21.1929969 C30.330794,21.1990608 30.7582614,20.9737838 30.9899422,20.6034288 C31.221623,20.2330738 31.221623,19.7750199 30.9899422,19.4046648 C30.7582614,19.0343098 30.330794,18.8090328 29.8712258,18.8150968 L27.322571,18.8150968 L27.322571,17.8026322 C27.322571,17.02601 27.9537301,16.4371968 28.786057,16.4371968 L31.1455532,16.4371968 C31.6051214,16.4432608 32.0325888,16.2179838 32.2642696,15.8476287 C32.4959504,15.4772737 32.4959504,15.0192198 32.2642696,14.6488648 C32.0325888,14.2785097 31.6051214,14.0532327 31.1455532,14.0592967 L28.786057,14.0592967 Z" id="Combined-Shape"></path>
                        </g>
                    </g>
                </g>
            </g>
        </g>
    </g>
</svg>