<?xml version="1.0" encoding="UTF-8"?>
<svg width="22px" height="22px" viewBox="0 0 22 22" version="1.1" xmlns="http://www.w3.org/2000/svg" xmlns:xlink="http://www.w3.org/1999/xlink">
    <!-- Generator: Sketch 49.3 (51167) - http://www.bohemiancoding.com/sketch -->
    <title>Edit icn</title>
    <desc>Created with Sketch.</desc>
    <defs></defs>
    <g id="Screens" stroke="none" stroke-width="1" fill="none" fill-rule="evenodd">
        <g id="02---Animate-a---mouseover" transform="translate(-711.000000, -47.000000)" fill="#4A74E2" fill-rule="nonzero">
            <g id="Toolbar-mouse-over" transform="translate(530.000000, 30.000000)">
                <g id="icons" transform="translate(31.000000, 3.000000)">
                    <g id="Edit" transform="translate(129.000000, 0.000000)">
                        <path d="M31.9608541,25.7046263 C29.7295374,25.7046263 27.9288256,27.5053381 27.9288256,29.7366548 L27.9288256,31.6939502 C27.9288256,32.1637011 27.5373665,32.5551601 27.0676157,32.5551601 C26.5978648,32.5551601 26.2064057,32.1637011 26.2064057,31.6939502 L26.2064057,29.7366548 C26.2064057,27.544484 27.4590747,25.6263345 29.2597865,24.6085409 C28.3985765,23.8647687 27.8896797,22.7686833 27.8896797,21.5160142 C27.8896797,19.2455516 29.7295374,17.366548 32.0391459,17.366548 C34.3487544,17.366548 36.1886121,19.2064057 36.1886121,21.5160142 C36.1886121,21.9857651 35.797153,22.3772242 35.3274021,22.3772242 C34.8576512,22.3772242 34.4661922,21.9857651 34.4661922,21.5160142 C34.4661922,20.1850534 33.4092527,19.1281139 32.0782918,19.1281139 C30.747331,19.1281139 29.6903915,20.1850534 29.6903915,21.5160142 C29.6903915,22.8469751 30.747331,23.9039146 32.0782918,23.9039146 C35.2882562,23.9039146 37.8718861,26.5266904 37.8718861,29.6975089 L37.8718861,31.6548043 C37.8718861,32.1245552 37.480427,32.5160142 37.0106762,32.5160142 C36.5409253,32.5160142 36.1494662,32.1245552 36.1494662,31.6548043 L36.1494662,29.6975089 C35.9928826,27.5053381 34.1921708,25.7046263 31.9608541,25.7046263 Z M21.86121,14 C21.3914591,14 21,14.3914591 21,14.86121 L21,21.7117438 C21,22.1814947 21.3914591,22.5729537 21.86121,22.5729537 C22.3309609,22.5729537 22.7224199,22.1814947 22.7224199,21.7117438 L22.7224199,15.7615658 L28.7117438,15.7615658 C29.1814947,15.7615658 29.5729537,15.3701068 29.5729537,14.9003559 C29.5729537,14.430605 29.1814947,14.0391459 28.7117438,14.0391459 L21.86121,14.0391459 L21.86121,14 Z M42.9608541,14.9003559 C42.9608541,14.430605 42.569395,14.0391459 42.0996441,14.0391459 L35.2099644,14.0391459 C34.7402135,14.0391459 34.3487544,14.430605 34.3487544,14.9003559 C34.3487544,15.3701068 34.7402135,15.7615658 35.2099644,15.7615658 L41.1992883,15.7615658 L41.1992883,21.7508897 C41.1992883,22.2206406 41.5907473,22.6120996 42.0604982,22.6120996 C42.5302491,22.6120996 42.9217082,22.2206406 42.9217082,21.7508897 L42.9217082,14.9003559 L42.9608541,14.9003559 Z M35.2099644,36 L42.0604982,36 C42.5302491,36 42.9217082,35.6085409 42.9217082,35.13879 L42.9217082,28.2491103 C42.9217082,27.7793594 42.5302491,27.3879004 42.0604982,27.3879004 C41.5907473,27.3879004 41.1992883,27.7793594 41.1992883,28.2491103 L41.1992883,34.2384342 L35.2099644,34.2384342 C34.7402135,34.2384342 34.3487544,34.6298932 34.3487544,35.0996441 C34.3487544,35.6085409 34.7402135,36 35.2099644,36 Z M29.5729537,35.0996441 C29.5729537,34.6298932 29.1814947,34.2384342 28.7117438,34.2384342 L22.7224199,34.2384342 L22.7224199,28.2491103 C22.7224199,27.7793594 22.3309609,27.3879004 21.86121,27.3879004 C21.3914591,27.3879004 21,27.7793594 21,28.2491103 L21,35.0996441 C21,35.569395 21.3914591,35.9608541 21.86121,35.9608541 L28.7117438,35.9608541 C29.1814947,36 29.5729537,35.6085409 29.5729537,35.0996441 Z" id="Edit-icn"></path>
                    </g>
                </g>
            </g>
        </g>
    </g>
</svg>