<?xml version="1.0" encoding="UTF-8"?>
<svg width="20px" height="25px" viewBox="0 0 20 25" version="1.1" xmlns="http://www.w3.org/2000/svg" xmlns:xlink="http://www.w3.org/1999/xlink">
    <!-- Generator: Sketch 49.3 (51167) - http://www.bohemiancoding.com/sketch -->
    <title>Group 2</title>
    <desc>Created with Sketch.</desc>
    <defs></defs>
    <g id="Screens" stroke="none" stroke-width="1" fill="none" fill-rule="evenodd">
        <g id="01---Input---1a" transform="translate(-402.000000, -232.000000)" fill="#434343" fill-rule="nonzero">
            <g id="Panel" transform="translate(360.000000, 212.000000)">
                <g id="Title-bar">
                    <g id="Trash-icn" transform="translate(20.000000, 0.000000)">
                        <g id="Group-2">
                            <path d="M38.1315681,42.6452 C38.1187582,42.952638 37.8452577,43.2142857 37.5357052,43.2142857 L26.107152,43.2142857 C25.7977239,43.2142857 25.5240682,42.9519022 25.511289,42.6452 L24.8563688,26.9271156 C24.8358403,26.4344317 24.4197995,26.0516741 23.9271156,26.0722026 C23.4344317,26.0927311 23.0516741,26.508772 23.0722026,27.0014559 L23.7271228,42.7195403 C23.7797619,43.9828795 24.8405782,45 26.107152,45 L37.5357052,45 C38.8015229,45 39.8630278,43.984498 39.9157344,42.7195403 L40.5706545,27.0014559 C40.591183,26.508772 40.2084255,26.0927311 39.7157416,26.0722026 C39.2230577,26.0516741 38.8070168,26.4344317 38.7864883,26.9271156 L38.1315681,42.6452 Z M31.1071429,40.5357143 C31.1071429,40.9302034 31.4269395,41.25 31.8214286,41.25 C32.2159177,41.25 32.5357143,40.9302034 32.5357143,40.5357143 L32.5357143,28.3928571 C32.5357143,27.998368 32.2159177,27.6785714 31.8214286,27.6785714 C31.4269395,27.6785714 31.1071429,27.998368 31.1071429,28.3928571 L31.1071429,40.5357143 Z M27.536023,40.5567136 C27.5476206,40.9510322 27.8766807,41.2612889 28.2709993,41.2496912 C28.6653179,41.2380936 28.9755746,40.9090336 28.963977,40.514715 L28.6068341,28.3718578 C28.5952365,27.9775392 28.2661764,27.6672826 27.8718578,27.6788802 C27.4775392,27.6904778 27.1672826,28.0195379 27.1788802,28.4138565 L27.536023,40.5567136 Z M34.6788802,40.514715 C34.6672826,40.9090336 34.9775392,41.2380936 35.3718578,41.2496912 C35.7661764,41.2612889 36.0952365,40.9510322 36.1068341,40.5567136 L36.463977,28.4138565 C36.4755746,28.0195379 36.1653179,27.6904778 35.7709993,27.6788802 C35.3766807,27.6672826 35.0476206,27.9775392 35.036023,28.3718578 L34.6788802,40.514715 Z M36.2194018,23.0357143 L35.879573,21.8463137 C35.5808133,20.8006546 34.5190098,20 33.4316083,20 L30.2112488,20 C29.1239763,20 28.0619617,20.8009421 27.7632841,21.8463137 L27.4234554,23.0357143 L22.8928571,23.0357143 C22.3997458,23.0357143 22,23.43546 22,23.9285714 C22,24.4216828 22.3997458,24.8214286 22.8928571,24.8214286 L40.75,24.8214286 C41.2431114,24.8214286 41.6428571,24.4216828 41.6428571,23.9285714 C41.6428571,23.43546 41.2431114,23.0357143 40.75,23.0357143 L36.2194018,23.0357143 Z M33.4316083,21.7857143 L30.2112488,21.7857143 C29.9212027,21.7857143 29.5599209,22.0581831 29.4802912,22.3368871 L29.2806262,23.0357143 L34.3622309,23.0357143 L34.162566,22.3368871 C34.0828695,22.0579496 33.7218395,21.7857143 33.4316083,21.7857143 Z" id="Delete"></path>
                        </g>
                    </g>
                </g>
            </g>
        </g>
    </g>
</svg>