<?xml version="1.0" encoding="UTF-8"?>
<svg class="icon-top-right" width="24px" height="32px" viewBox="0 0 24 32" version="1.1" xmlns="http://www.w3.org/2000/svg" xmlns:xlink="http://www.w3.org/1999/xlink">

    <g id="Screens" stroke="none" stroke-width="1" fill="none" fill-rule="evenodd">
        <g id="02---Animate-a---mouseover" transform="translate(-1273.000000, -93.000000)" fill="#4A74E2">
            <g id="icns---mouseover---54" transform="translate(1253.000000, 86.000000)">
                <g id="pan">
                    <g id="icon" transform="translate(17.000000, 7.000000)">
                        <path d="M11.9756344,27.2086875 C12.0719765,27.2573878 12.1863165,27.3187927 12.2995978,27.432074 L12.3948811,27.5262986 C13.5912164,28.3605572 15.0734017,28.8210933 16.7673278,28.8666176 C20.6559468,28.8666176 23.8500562,25.845077 24.0342706,21.9861017 L24.0342706,8.05673586 C24.0342706,7.58667138 23.6340806,7.18859875 23.16084,7.18859875 L23.0623805,7.18859875 C22.5362048,7.16848338 22.3329336,7.18224653 22.2937616,7.92016307 C22.2895268,8.0683816 22.2884681,13.9293658 22.2884681,14.4407197 C22.2884681,15.0124198 21.838519,15.4613102 21.2647015,15.4613102 C20.6908841,15.4613102 20.2409349,15.0124198 20.2409349,14.4407197 L20.2409349,4.80651522 C20.2409349,4.33539203 19.8407449,3.9373194 19.3675043,3.9373194 C18.7989804,3.9373194 18.5279522,4.01354608 18.4972498,4.7165254 C18.4961911,4.82239577 18.4951324,13.2824978 18.4951324,13.3079067 C18.4951324,13.8796067 18.0451833,14.3284971 17.4713658,14.3284971 C16.8975484,14.3284971 16.4475993,13.8796067 16.4475993,13.3079067 L16.4475993,2.72722097 C16.4475993,2.25715649 16.0474092,1.85908386 15.5741686,1.85908386 C15.1305717,1.85908386 14.73991,2.21904315 14.7039141,2.66052263 C14.7028554,2.7928606 14.7017967,10.9057078 14.7017967,12.0099358 L14.7017967,12.1750936 C14.7017967,12.7467937 14.2518476,13.1956841 13.6780301,13.1956841 C13.1042127,13.1956841 12.6542636,12.7467937 12.6542636,12.1750936 L12.6542636,5.67571103 C12.6542636,5.20458784 12.2551322,4.80651522 11.7808329,4.80651522 C11.3075923,4.80651522 10.908461,5.20458784 10.908461,5.67571103 L10.908461,17.9365597 C10.908461,18.3822739 10.6024956,18.7697595 10.147253,18.8999801 C9.6210772,18.9751481 9.15418883,18.735881 8.9773853,18.3240452 L6.70540696,13.5630543 C6.55718843,13.1236922 6.04901061,12.8918361 5.60541372,13.0389959 C5.18404961,13.2147407 4.96278051,13.6837465 5.10994034,14.1220499 L10.5029775,25.5708727 C10.8766999,26.1446902 11.3637036,26.6899226 11.9756344,27.2086875 M16.8552002,31.2000008 C14.8553088,31.2000008 12.931644,30.5827765 11.2885357,29.4129088 C11.222896,29.3874999 11.165726,29.3377408 11.1202018,29.2636315 C11.0831471,29.2456336 11.0291532,29.2181073 10.9751594,29.1662308 C10.1811315,28.5193628 9.48450441,27.7507438 8.86516269,26.8328476 L8.82069713,26.7576796 C8.80587528,26.7343882 8.79211213,26.7036858 8.7825838,26.6698072 L3.2000387,15.000774 C2.90995386,14.2469769 2.93748016,13.4518904 3.26885445,12.7436175 C3.60234614,12.0332273 4.19733767,11.5006993 4.94584125,11.2455517 C5.24968924,11.1449748 5.61494205,11.0878048 5.94843375,11.0878048 C7.14371033,11.0878048 8.27652338,11.8648934 8.70529842,12.9775911 L9.01338122,13.5874045 L9.01338122,5.73711585 C9.01338122,4.16917553 10.3505241,2.84473709 11.9322276,2.84473709 C12.4139378,2.84473709 12.7569578,2.91990506 12.9919901,3.00566007 C13.1105649,1.77650496 13.7426111,0 15.5741686,0 C17.8821429,0 18.1362318,1.22492029 18.3405616,2.20951481 C18.3416203,2.21269093 18.3416203,2.21480833 18.342679,2.21692574 C18.7142841,2.05070925 19.1271786,1.96495424 19.558071,1.96495424 C21.916863,1.96495424 22.0809621,4.10777071 22.1688345,5.25858174 C22.1751868,5.33904323 22.181539,5.4163286 22.1878912,5.48832046 C22.5499679,5.33374971 22.9522754,5.25328822 23.3704634,5.25328822 C24.9807518,5.25328822 26.2893097,6.54914166 26.2893097,8.14354957 L26.2893097,22.2899496 C26.0892147,27.2902077 21.945448,31.2000008 16.8552002,31.2000008" id="pan"></path>
                    </g>
                </g>
            </g>
        </g>
    </g>
</svg>
