<?xml version="1.0" encoding="UTF-8"?>
<svg width="19px" height="24px" viewBox="0 0 19 24" version="1.1" xmlns="http://www.w3.org/2000/svg" xmlns:xlink="http://www.w3.org/1999/xlink">
    <!-- Generator: Sketch 49.3 (51167) - http://www.bohemiancoding.com/sketch -->
    <title>icon_delete</title>
    <desc>Created with Sketch.</desc>
    <defs></defs>
    <g id="Page-1" stroke="none" stroke-width="1" fill="none" fill-rule="evenodd">
        <g id="icon_delete" fill="#4A74E2" fill-rule="nonzero">
            <path d="M15.4863054,21.739392 C15.4740079,22.0345324 15.2114474,22.2857143 14.914277,22.2857143 L3.9428659,22.2857143 C3.6458149,22.2857143 3.3831055,22.0338261 3.3708374,21.739392 L2.7421141,6.6500309 C2.7224067,6.1770544 2.3230075,5.8096071 1.8500309,5.8293145 C1.3770544,5.8490219 1.0096071,6.2484211 1.0293145,6.7213976 L1.6580379,21.8107586 C1.7085715,23.0235644 2.7269551,24 3.9428659,24 L14.914277,24 C16.129462,24 17.1485067,23.0251181 17.199105,21.8107586 L17.8278284,6.7213976 C17.8475357,6.2484211 17.4800884,5.8490219 17.0071119,5.8293145 C16.5341354,5.8096071 16.1347361,6.1770544 16.1150288,6.6500309 L15.4863054,21.739392 Z M8.7428571,19.7142857 C8.7428571,20.0929953 9.0498619,20.4 9.4285714,20.4 C9.807281,20.4 10.1142857,20.0929953 10.1142857,19.7142857 L10.1142857,8.0571429 C10.1142857,7.6784333 9.807281,7.3714286 9.4285714,7.3714286 C9.0498619,7.3714286 8.7428571,7.6784333 8.7428571,8.0571429 L8.7428571,19.7142857 Z M5.3145821,19.7344451 C5.3257158,20.1129909 5.6416135,20.4108373 6.0201593,20.3997036 C6.3987052,20.3885699 6.6965516,20.0726722 6.6854179,19.6941264 L6.3425607,8.0369835 C6.331427,7.6584376 6.0155294,7.3605913 5.6369835,7.371725 C5.2584376,7.3828587 4.9605913,7.6987563 4.971725,8.0773022 L5.3145821,19.7344451 Z M12.171725,19.6941264 C12.1605913,20.0726722 12.4584376,20.3885699 12.8369835,20.3997036 C13.2155294,20.4108373 13.531427,20.1129909 13.5425607,19.7344451 L13.8854179,8.0773022 C13.8965516,7.6987563 13.5987052,7.3828587 13.2201593,7.371725 C12.8416135,7.3605913 12.5257158,7.6584376 12.5145821,8.0369835 L12.171725,19.6941264 Z M13.6506257,2.9142857 L13.3243901,1.7724611 C13.0375808,0.7686285 12.0182494,0 10.974344,0 L7.8827989,0 C6.8390173,0 5.8194832,0.7689045 5.5327527,1.7724611 L5.2065171,2.9142857 L0.8571429,2.9142857 C0.3837559,2.9142857 0,3.2980416 0,3.7714286 C0,4.2448155 0.3837559,4.6285714 0.8571429,4.6285714 L18,4.6285714 C18.4733869,4.6285714 18.8571429,4.2448155 18.8571429,3.7714286 C18.8571429,3.2980416 18.4733869,2.9142857 18,2.9142857 L13.6506257,2.9142857 Z" id="Shape"></path>
        </g>
    </g>
</svg>