<?xml version="1.0" encoding="UTF-8"?>
<svg width="24px" height="24px" viewBox="0 0 24 24" version="1.1" xmlns="http://www.w3.org/2000/svg" xmlns:xlink="http://www.w3.org/1999/xlink">
    <!-- Generator: Sketch 49.3 (51167) - http://www.bohemiancoding.com/sketch -->
    <title>Move to back</title>
    <desc>Created with Sketch.</desc>
    <defs></defs>
    <g id="Screens" stroke="none" stroke-width="1" fill="none" fill-rule="evenodd">
        <g id="02---Animate-a---mouseover" transform="translate(-646.000000, -46.000000)" fill="#4A74E2" fill-rule="nonzero">
            <g id="Toolbar-mouse-over" transform="translate(530.000000, 30.000000)">
                <g id="icons" transform="translate(31.000000, 3.000000)">
                    <g id="Send-to-Back" transform="translate(65.000000, 0.000000)">
                        <path d="M39.0588235,17.9411765 L39.0588235,20.0588235 L36.9411765,20.0588235 L35.5294118,20.0588235 L35.5294118,17.9411765 L36.9411765,17.9411765 L39.0588235,17.9411765 Z M39.0588235,15.6823529 L36.9411765,15.6823529 L36.9411765,15.1176471 L22.1176471,15.1176471 L22.1176471,29.9411765 L22.6823529,29.9411765 L22.6823529,32.0588235 L22.1176471,32.0588235 C20.96,32.0588235 20,31.0988235 20,29.9411765 L20,15.1176471 C20,13.96 20.96,13 22.1176471,13 L36.9411765,13 C38.0988235,13 39.0588235,13.96 39.0588235,15.1176471 L39.0588235,15.6823529 Z M27.0588235,32.0588235 L24.9411765,32.0588235 L24.9411765,29.9411765 L24.9411765,28.5294118 L27.0588235,28.5294118 L27.0588235,29.9411765 L27.0588235,32.0588235 Z M41.8823529,23.5882353 L44,23.5882353 L44,26.4117647 L41.8823529,26.4117647 L41.8823529,23.5882353 Z M41.8823529,34.8823529 L41.8823529,33.4705882 L44,33.4705882 L44,34.8823529 C44,36.04 43.04,37 41.8823529,37 L40.4705882,37 L40.4705882,34.8823529 L41.8823529,34.8823529 Z M30.5882353,34.8823529 L33.4117647,34.8823529 L33.4117647,37 L30.5882353,37 L30.5882353,34.8823529 Z M35.5294118,34.8823529 L38.3529412,34.8823529 L38.3529412,37 L35.5294118,37 L35.5294118,34.8823529 Z M41.8823529,28.5294118 L44,28.5294118 L44,31.3529412 L41.8823529,31.3529412 L41.8823529,28.5294118 Z M41.8823529,17.9411765 C43.04,17.9411765 44,18.9011765 44,20.0588235 L44,21.4705882 L41.8823529,21.4705882 L41.8823529,20.0588235 L40.4705882,20.0588235 L40.4705882,17.9411765 L41.8823529,17.9411765 Z M27.0588235,33.4705882 L27.0588235,34.8823529 L28.4705882,34.8823529 L28.4705882,37 L27.0588235,37 C25.9011765,37 24.9411765,36.04 24.9411765,34.8823529 L24.9411765,33.4705882 L27.0588235,33.4705882 Z M30.5882353,17.9411765 L33.4117647,17.9411765 L33.4117647,20.0588235 L30.5882353,20.0588235 L30.5882353,17.9411765 Z M24.9411765,23.5882353 L27.0588235,23.5882353 L27.0588235,26.4117647 L24.9411765,26.4117647 L24.9411765,23.5882353 Z M27.0588235,20.0588235 L27.0588235,21.4705882 L24.9411765,21.4705882 L24.9411765,20.0588235 C24.9411765,18.9011765 25.9011765,17.9411765 27.0588235,17.9411765 L28.4705882,17.9411765 L28.4705882,20.0588235 L27.0588235,20.0588235 Z" id="Move-to-back" transform="translate(32.000000, 25.000000) rotate(180.000000) translate(-32.000000, -25.000000) "></path>
                    </g>
                </g>
            </g>
        </g>
    </g>
</svg>