<?xml version="1.0" encoding="UTF-8"?>
<svg width="25px" height="23px" viewBox="0 0 25 23" version="1.1" xmlns="http://www.w3.org/2000/svg" xmlns:xlink="http://www.w3.org/1999/xlink">
    <!-- Generator: Sketch 49.3 (51167) - http://www.bohemiancoding.com/sketch -->
    <title>Undo</title>
    <desc>Created with Sketch.</desc>
    <defs></defs>
    <g id="Screens" stroke="none" stroke-width="1" fill="none" fill-rule="evenodd">
        <g id="01---Input---1b" transform="translate(-566.000000, -771.000000)" fill="#F3F5FA" fill-rule="nonzero">
            <g id="Panel" transform="translate(360.000000, 212.000000)">
                <g id="Actions" transform="translate(60.000000, 516.000000)">
                    <g id="icns" transform="translate(134.000000, 29.000000)">
                        <path d="M34.8215289,24.1566338 C34.824763,24.1609055 34.824763,24.1684114 34.824763,24.1759172 C34.8283865,24.2030933 34.83201,24.2302695 34.835306,24.2578095 C34.8401086,24.2926884 34.8437131,24.3277099 34.8461894,24.3614778 C34.8417424,24.2967944 34.8340613,24.2361537 34.8255716,24.1755129 L34.9589812,24.0501888 C35.4481496,23.593362 36.2162654,23.6176183 36.6730922,24.1067868 C37.129919,24.5959553 37.1052584,25.3644753 36.6160899,25.8213021 L34.4572803,27.8426595 L34.3841071,27.9113856 C34.3562124,27.9360462 34.3275091,27.9639409 34.2992101,27.9845588 C34.287082,27.9962826 34.2749538,28.0047723 34.2628257,28.0124535 C34.1779287,28.0730942 34.088989,28.1220111 33.9960065,28.1579912 C33.8585542,28.2105465 33.7130165,28.2388455 33.563436,28.2388455 C33.5355413,28.2388455 33.5031996,28.2388455 33.4708579,28.2343985 C33.4385162,28.2303558 33.4061744,28.2303558 33.3738327,28.2226747 C33.3010639,28.2105465 33.2286993,28.1943756 33.1595688,28.1701194 C33.1231844,28.1579912 33.0908427,28.1418204 33.058501,28.1292879 C32.917006,28.0690515 32.7835964,27.9756648 32.6704004,27.8543833 L30.5803168,25.6187621 C30.1234901,25.1336363 30.1481506,24.3655205 30.6373191,23.9046511 C31.1264876,23.4478243 31.8905607,23.4761233 32.3469832,23.9572064 C32.3388977,23.9006083 32.3308123,23.8440103 32.3190884,23.7874123 C32.2984706,23.6701736 32.2746186,23.5569776 32.2459153,23.4397389 C32.2180206,23.310372 32.1856789,23.1810051 32.1488902,23.055681 C32.1169527,22.9263141 32.0761213,22.8009899 32.0360984,22.6756658 C31.9916286,22.5341708 31.943116,22.3926758 31.886518,22.2552235 C31.7571511,21.8994646 31.5994852,21.5598765 31.4216058,21.2283739 C31.2396836,20.8807005 31.0335052,20.5451551 30.8034747,20.2257807 C30.742834,20.1368409 30.6777463,20.0479012 30.6053817,19.9589615 C30.4311407,19.7285268 30.2415374,19.5061774 30.0430401,19.2919136 C29.9581431,19.2029738 29.873246,19.1180768 29.788349,19.0331798 C29.594703,18.8431722 29.3962057,18.6612501 29.1863888,18.4874133 C29.0768312,18.3944309 28.9636352,18.3054912 28.8463965,18.2205942 C28.5961525,18.0346293 28.3370144,17.8607926 28.0701953,17.699084 C27.9650847,17.6384432 27.8563357,17.5737598 27.7467781,17.5171618 C27.6457102,17.4605638 27.5486851,17.4080085 27.4435745,17.3594959 C27.3869765,17.3311969 27.3303785,17.3028979 27.2737805,17.2786416 C27.1969689,17.2422572 27.1201573,17.2058728 27.039303,17.1735311 C26.8779987,17.1007622 26.7158858,17.0360788 26.5460918,16.975438 C26.4652375,16.947139 26.3843832,16.91884 26.3031247,16.890541 C26.2226747,16.862242 26.1377776,16.833943 26.0528806,16.8096867 C25.9311949,16.7733023 25.806275,16.7369179 25.6805466,16.7045761 C25.5067099,16.6601063 25.3247877,16.6196791 25.1473125,16.5873374 C25.042202,16.5671238 24.9411341,16.550953 24.8356192,16.5347821 C24.7871067,16.522654 24.7389984,16.5186113 24.6860388,16.5145686 C24.5934606,16.4983977 24.5000739,16.4903123 24.4111342,16.4781841 C24.2979382,16.466056 24.1806994,16.4539278 24.0675034,16.4498851 C23.9781594,16.4417997 23.8932624,16.437757 23.804727,16.4337143 C23.6874883,16.4296715 23.5662068,16.4256288 23.4489681,16.4256288 L23.4368399,16.4256288 C23.2832168,16.4256288 23.1336363,16.4296715 22.9840559,16.437757 C22.8304327,16.4458424 22.6768096,16.4579705 22.5272291,16.4741414 C22.3897768,16.4862696 22.2523245,16.5024404 22.1148722,16.5266967 C21.9935908,16.5428676 21.8763521,16.5630811 21.7591133,16.5873374 C21.6661309,16.6035083 21.5771912,16.6196791 21.4882514,16.6398927 C21.4312492,16.6520209 21.3786939,16.664149 21.3301813,16.6762771 C21.2452843,16.6964907 21.16443,16.7167043 21.08398,16.7409606 C21.0269777,16.7530887 20.9744224,16.7692596 20.9222714,16.7854304 C20.8495025,16.805644 20.7807764,16.8299003 20.7080075,16.8501139 C20.5867261,16.8864983 20.4694873,16.9269255 20.3522486,16.975438 C20.218839,17.0199079 20.0854294,17.0724632 19.9520199,17.1331039 C19.7983967,17.1937446 19.6488162,17.2624708 19.4996401,17.3352396 C19.131753,17.5131191 18.7759941,17.7152548 18.4360018,17.9456896 C18.4279164,17.953775 18.4157883,17.9618604 18.4081071,17.9659031 C18.2868257,18.0467574 18.1695869,18.1276117 18.0523482,18.2205942 C18.0115168,18.2488932 17.9714939,18.2771922 17.9351095,18.3095339 C17.9349553,18.3096407 17.9348012,18.3097476 17.9346471,18.3098545 C17.8940113,18.3381419 17.8577345,18.3663455 17.8178708,18.3985512 L17.8178708,18.3984736 C17.8581452,18.366254 17.8940063,18.3380467 17.9346471,18.3098545 L17.8134238,18.4025163 C17.8093811,18.406559 17.8093811,18.406559 17.8053383,18.406559 C17.7083132,18.4833706 17.611288,18.5642249 17.5183056,18.6491219 C17.5425619,18.6329511 17.5668182,18.6127375 17.5910745,18.5925239 C15.6546141,20.2459942 14.4256288,22.7039648 14.4256288,25.4489681 C14.4256288,30.4215072 18.4727905,34.4686689 23.4489681,34.4686689 C24.1200587,34.4686689 24.6617825,35.0144354 24.6617825,35.6814833 C24.6617825,36.3521697 24.1200587,36.8942977 23.4489681,36.8942977 C17.1342477,36.8942977 12,31.76005 12,25.4489681 C12,22.0733013 13.4675054,19.0331798 15.7965134,16.9350109 C15.9056667,16.8420284 16.01482,16.7450033 16.1239733,16.6520209 C16.1441869,16.6398927 16.1603577,16.6237219 16.1765286,16.607551 C16.2775964,16.5266967 16.382707,16.4458424 16.4882219,16.3649881 C16.9612195,16.0011438 17.4665588,15.6696412 17.9957502,15.3826084 C18.1574588,15.2977114 18.3236144,15.2128144 18.4893657,15.1319601 C18.796612,14.9823797 19.1074967,14.8489701 19.4268712,14.7317314 C19.5036828,14.6993896 19.5849414,14.6710906 19.6613487,14.6468344 C19.7870771,14.5983218 19.9160397,14.5578946 20.0494493,14.5174675 C20.194987,14.4689549 20.3445675,14.4285278 20.4945522,14.3881006 C20.5588313,14.367887 20.6275575,14.3517162 20.6922409,14.3355453 C20.8418214,14.2991609 20.9914018,14.2627765 21.145025,14.2344775 C21.3309898,14.1940503 21.5169547,14.1617086 21.7073666,14.1334096 C21.8812033,14.1051106 22.0546358,14.084897 22.2329195,14.0687262 C22.2571758,14.0606407 22.2814321,14.0606407 22.3056884,14.0606407 C22.4876105,14.0404271 22.6735754,14.0242563 22.8595403,14.0161709 C23.0531863,14.0040427 23.2435982,14 23.4376485,14 L23.4740329,14 C23.6559551,14 23.8378772,14.0040427 24.0202037,14.0161709 C24.0363745,14.0161709 24.0525454,14.0161709 24.0687162,14.0202136 C24.2344676,14.0242563 24.3998146,14.0363844 24.5655659,14.056598 C24.5979076,14.056598 24.6302493,14.0606407 24.662591,14.0646834 C24.7960006,14.0768116 24.9294102,14.0929824 25.0587771,14.1172387 C25.4630486,14.169794 25.8588303,14.2466056 26.2509737,14.3476735 C26.3843832,14.3800152 26.5137501,14.4163996 26.6435213,14.4568268 C26.7486318,14.4851258 26.8496997,14.5174675 26.9548103,14.5538519 C27.0841772,14.5902363 27.213544,14.6347062 27.3388682,14.6791761 C27.383338,14.6953469 27.4314464,14.7155605 27.4803632,14.7317314 C27.6222625,14.7883294 27.7633532,14.8408847 27.9008055,14.9015254 C28.0750465,14.9742942 28.2448406,15.0511058 28.4101876,15.1319601 C28.5480442,15.1966436 28.6854965,15.2694124 28.8229488,15.3421813 C28.8755041,15.3704803 28.9280593,15.3987793 28.9806146,15.4270783 C29.1180669,15.5038899 29.2514765,15.5807015 29.3808434,15.6615557 C29.5182957,15.74241 29.655748,15.8273071 29.7851149,15.9202895 C29.8174566,15.9405031 29.8497983,15.9607166 29.88214,15.9809302 C30.023635,16.0779554 30.1606831,16.1749805 30.2944969,16.2760484 C30.4400346,16.3852017 30.5859766,16.4983977 30.7270674,16.6156364 C31.1272961,16.947139 31.5032686,17.3028979 31.8509421,17.6788704 C31.9600954,17.7961091 32.0692487,17.9173906 32.1703165,18.0427147 C32.2552136,18.1397399 32.3360678,18.2408077 32.4165179,18.3418756 C32.4609877,18.3903882 32.4973722,18.4429435 32.5337566,18.4914561 C32.6146109,18.5925239 32.6918267,18.6976345 32.7641913,18.8027451 C32.7763195,18.8148732 32.7844049,18.8310441 32.7924903,18.8431722 C32.8850685,18.9725391 32.9740082,19.1059487 33.0589052,19.2393583 C33.1518877,19.3768106 33.2367847,19.5183056 33.3216817,19.6638433 C33.402536,19.8012956 33.4833903,19.9468334 33.5602019,20.0883284 C33.5686916,20.0964138 33.5763727,20.1085419 33.5763727,20.1206701 C33.633375,20.2257807 33.6859303,20.3308912 33.7380813,20.4360018 C33.8957472,20.7513336 34.0327952,21.0747508 34.1585236,21.4102961 C34.2151217,21.5598765 34.2676769,21.709457 34.3161895,21.8590374 C34.3889584,22.0571304 34.4495991,22.2592662 34.5021544,22.4654446 C34.5344961,22.5907688 34.5668378,22.7160929 34.5951368,22.8414171 C34.6068607,22.8818442 34.6193931,22.9222714 34.6230316,22.9667412 C34.6513306,23.08398 34.6755869,23.2012187 34.6962047,23.3184574 C34.7123756,23.3790981 34.7240994,23.4437816 34.7285464,23.508465 C34.74876,23.6095329 34.7649309,23.7106008 34.7766547,23.8116686 C34.7972726,23.9086938 34.8089964,24.0057189 34.8174861,24.1067868 C34.8215289,24.1229577 34.8215289,24.1391285 34.8215289,24.1552994 L34.8215289,24.1566338 Z M31.4207972,21.2287782 C31.2348324,20.8811047 31.0286539,20.5455594 30.8026662,20.2261849 C31.0326966,20.5455594 31.2388751,20.8811047 31.4207972,21.2287782 Z M31.8857094,22.2556277 C31.7522998,21.9039115 31.594634,21.5602808 31.4207972,21.2287782 C31.5986767,21.5602808 31.7563426,21.8998688 31.8857094,22.2556277 Z M19.4992358,17.3356439 C19.1313488,17.5175661 18.7755899,17.7237445 18.4355976,17.9460938 C18.7755899,17.7156591 19.1313488,17.5135234 19.4992358,17.3356439 Z" id="Undo" transform="translate(24.500000, 25.447149) scale(-1, 1) translate(-24.500000, -25.447149) "></path>
                    </g>
                </g>
            </g>
        </g>
    </g>
</svg>