<?xml version="1.0" encoding="UTF-8"?>
<svg width="27px" height="27px" viewBox="0 0 29 29" version="1.1" xmlns="http://www.w3.org/2000/svg" xmlns:xlink="http://www.w3.org/1999/xlink">
    <!-- Generator: Sketch 49.3 (51167) - http://www.bohemiancoding.com/sketch -->
    <title>icon_zoomin</title>
    <desc>Created with Sketch.</desc>
    <defs></defs>
    <g id="Page-1" stroke="none" stroke-width="1" fill="none" fill-rule="evenodd">
        <g id="icon_zoomin" transform="translate(1.000000, 1.000000)" fill="#4A74E2" fill-rule="nonzero">
            <path d="M11.7502904,23.6005809 C5.22467815,23.6005809 -0.1,18.2839665 -0.1,11.7502904 C-0.1,5.23355519 5.23355519,-0.1 11.7502904,-0.1 C18.29283,-0.1 23.6005809,5.20775088 23.6005809,11.7502904 C23.6005809,14.5013452 22.627321,17.1427801 20.8998233,19.2474777 L26.7581767,25.1058311 C27.2139411,25.5615956 27.2139411,26.3024122 26.7581767,26.7581767 C26.5395948,26.9767586 26.2317533,27.0998627 25.9320039,27.0998627 C25.6155345,27.0998627 25.3308898,26.9832353 25.1058311,26.7581767 L19.2479464,20.9002919 C17.1571666,22.6415091 14.5421424,23.6005809 11.7502904,23.6005809 Z M11.7502904,2.23626671 C6.51673527,2.23626671 2.23626671,6.51673527 2.23626671,11.7502904 C2.23626671,16.9933516 6.49932255,21.2643142 11.7502904,21.2643142 C17.0101989,21.2643142 21.2643142,17.0101989 21.2643142,11.7502904 C21.2643142,6.50722922 17.0012583,2.23626671 11.7502904,2.23626671 Z M12.9186983,17.1433894 C12.9186983,17.7981561 12.4050572,18.3117972 11.7502904,18.3117972 C11.0957064,18.3117972 10.5818826,17.7977899 10.5818826,17.1433894 L10.5813462,12.9181493 L6.3560935,12.9181493 C5.70132678,12.9181493 5.1876856,12.4045081 5.1876856,11.7497414 C5.1876856,11.0951574 5.70169302,10.5813335 6.3560935,10.5813335 L10.5813335,10.5813335 L10.5813335,6.35609347 C10.5813335,5.70132678 11.0949747,5.1876856 11.7497414,5.1876856 C12.4043254,5.1876856 12.9181493,5.70169301 12.9181493,6.35609347 L12.9181493,10.5813335 L17.1433894,10.5813335 C17.7981561,10.5813335 18.3117972,11.0949747 18.3117972,11.7497414 C18.3117972,12.4043254 17.7977898,12.9181493 17.1433894,12.9181493 L12.9186983,12.9181493 L12.9186983,17.1433894 Z" id="Zoom-In"></path>
        </g>
    </g>
</svg>
