<?xml version="1.0" encoding="UTF-8"?>
<svg width="20px" height="24px" viewBox="0 0 20 24" version="1.1" xmlns="http://www.w3.org/2000/svg" xmlns:xlink="http://www.w3.org/1999/xlink">
    <!-- Generator: Sketch 49.3 (51167) - http://www.bohemiancoding.com/sketch -->
    <title>icon_eraser</title>
    <desc>Created with Sketch.</desc>
    <defs></defs>
    <g id="Page-1" stroke="none" stroke-width="1" fill="none" fill-rule="evenodd">
        <g id="icon_eraser" transform="translate(1.000000, 1.000000)" fill="#F3F5FA" fill-rule="nonzero">
            <path d="M16.5,3.1 C16.5,2.21634452 15.7836554,1.5 14.9,1.5 L3.1,1.5 C2.21634458,1.5 1.5,2.21634452 1.5,3.1 L1.5,12 L16.5,12 L16.5,3.1 Z M18.9,3.1 L18.9,14.4 L-0.9,14.4 L-0.9,3.1 C-0.9,0.890861084 0.890861216,-0.9 3.1,-0.9 L14.9,-0.9 C17.1091388,-0.9 18.9,0.890861084 18.9,3.1 Z M1.5,14.4000001 L1.5,18.9 C1.5,19.7836555 2.21634458,20.5 3.1,20.5 L14.9,20.5 C15.7836554,20.5 16.5,19.7836555 16.5,18.9 L16.5,14.4000001 L1.5,14.4000001 Z M18.9,12.0000001 L18.9,18.9 C18.9,21.1091389 17.1091388,22.9 14.9,22.9 L3.1,22.9 C0.890861216,22.9 -0.9,21.1091389 -0.9,18.9 L-0.9,12.0000001 L18.9,12.0000001 Z M3,-1 L15,-1 C17.2091388,-1 19,0.790861084 19,3 L19,19 C19,21.2091389 17.2091388,23 15,23 L3,23 C0.790861216,23 -1,21.2091389 -1,19 L-1,3 C-1,0.790861084 0.790861216,-1 3,-1 Z M3,1.4 C2.11634458,1.4 1.4,2.11634452 1.4,3 L1.4,19 C1.4,19.8836555 2.11634458,20.6 3,20.6 L15,20.6 C15.8836554,20.6 16.6,19.8836555 16.6,19 L16.6,3 C16.6,2.11634452 15.8836554,1.4 15,1.4 L3,1.4 Z" id="eraser"></path>
        </g>
    </g>
</svg>