<?xml version="1.0" encoding="UTF-8"?>
<svg width="24px" height="24px" viewBox="0 0 24 24" version="1.1" xmlns="http://www.w3.org/2000/svg" xmlns:xlink="http://www.w3.org/1999/xlink">
    <!-- Generator: Sketch 49.3 (51167) - http://www.bohemiancoding.com/sketch -->
    <title>Move to front</title>
    <desc>Created with Sketch.</desc>
    <defs></defs>
    <g id="Screens" stroke="none" stroke-width="1" fill="none" fill-rule="evenodd">
        <g id="02---Animate-a---mouseover" transform="translate(-582.000000, -46.000000)" fill="#4A74E2" fill-rule="nonzero">
            <g id="Toolbar-mouse-over" transform="translate(530.000000, 30.000000)">
                <g id="icons" transform="translate(31.000000, 3.000000)">
                    <g id="Bring-to-Front" transform="translate(0.000000, 1.000000)">
                        <path d="M21,17.6470588 L23.1176471,17.6470588 L23.1176471,20.4705882 L21,20.4705882 L21,17.6470588 Z M21,22.5882353 L23.1176471,22.5882353 L23.1176471,25.4117647 L21,25.4117647 L21,22.5882353 Z M26.6470588,12 L29.4705882,12 L29.4705882,14.1176471 L26.6470588,14.1176471 L26.6470588,12 Z M21,14.1176471 C21,12.96 21.96,12 23.1176471,12 L24.5294118,12 L24.5294118,14.1176471 L23.1176471,14.1176471 L23.1176471,15.5294118 L21,15.5294118 L21,14.1176471 Z M23.1176471,27.5294118 L23.1176471,28.9411765 L24.5294118,28.9411765 L24.5294118,31.0588235 L23.1176471,31.0588235 C21.96,31.0588235 21,30.0988235 21,28.9411765 L21,27.5294118 L23.1176471,27.5294118 Z M31.5882353,12 L34.4117647,12 L34.4117647,14.1176471 L31.5882353,14.1176471 L31.5882353,12 Z M40.0588235,15.5294118 L37.9411765,15.5294118 L37.9411765,14.1176471 L36.5294118,14.1176471 L36.5294118,12 L37.9411765,12 C39.0988235,12 40.0588235,12.96 40.0588235,14.1176471 L40.0588235,15.5294118 Z M42.8823529,16.9411765 C44.04,16.9411765 45,17.9011765 45,19.0588235 L45,33.8823529 C45,35.04 44.04,36 42.8823529,36 L28.0588235,36 C26.9011765,36 25.9411765,35.04 25.9411765,33.8823529 L25.9411765,19.0588235 C25.9411765,17.9011765 26.9011765,16.9411765 28.0588235,16.9411765 L42.8823529,16.9411765 Z M42.8823529,33.8823529 L42.8823529,19.0588235 L28.0588235,19.0588235 L28.0588235,33.8823529 L42.8823529,33.8823529 Z" id="Move-to-front" transform="translate(33.000000, 24.000000) rotate(180.000000) translate(-33.000000, -24.000000) "></path>
                    </g>
                </g>
            </g>
        </g>
    </g>
</svg>