<?xml version="1.0" encoding="UTF-8"?>
<svg width="21px" height="21px" viewBox="0 0 21 21" version="1.1" xmlns="http://www.w3.org/2000/svg" xmlns:xlink="http://www.w3.org/1999/xlink">
    <!-- Generator: Sketch 49.3 (51167) - http://www.bohemiancoding.com/sketch -->
    <title>Combined Shape</title>
    <desc>Created with Sketch.</desc>
    <defs></defs>
    <g id="Screens" stroke="none" stroke-width="1" fill="none" fill-rule="evenodd">
        <g id="00---Profile" transform="translate(-1066.000000, -206.000000)" fill="#1E1E32">
            <g id="close-button" transform="translate(1052.000000, 192.000000)">
                <path d="M22.3786797,24.5 L14.9540585,17.0753788 C14.368272,16.4895924 14.368272,15.5398449 14.9540585,14.9540585 C15.5398449,14.368272 16.4895924,14.368272 17.0753788,14.9540585 L24.5,22.3786797 L31.9246212,14.9540585 C32.5104076,14.368272 33.4601551,14.368272 34.0459415,14.9540585 C34.631728,15.5398449 34.631728,16.4895924 34.0459415,17.0753788 L26.6213203,24.5 L34.0459415,31.9246212 C34.631728,32.5104076 34.631728,33.4601551 34.0459415,34.0459415 C33.4601551,34.631728 32.5104076,34.631728 31.9246212,34.0459415 L24.5,26.6213203 L17.0753788,34.0459415 C16.4895924,34.631728 15.5398449,34.631728 14.9540585,34.0459415 C14.368272,33.4601551 14.368272,32.5104076 14.9540585,31.9246212 L22.3786797,24.5 Z" id="Combined-Shape"></path>
            </g>
        </g>
    </g>
</svg>