<?xml version="1.0" encoding="UTF-8"?>
<svg width="25px" height="24px" viewBox="0 0 25 24" version="1.1" xmlns="http://www.w3.org/2000/svg" xmlns:xlink="http://www.w3.org/1999/xlink">
    <!-- Generator: Sketch 49.3 (51167) - http://www.bohemiancoding.com/sketch -->
    <title>Rotate</title>
    <desc>Created with Sketch.</desc>
    <defs>
        <filter x="-2.2%" y="-1.4%" width="105.7%" height="104.3%" filterUnits="objectBoundingBox" id="filter-1">
            <feOffset dx="0" dy="2" in="SourceAlpha" result="shadowOffsetOuter1"></feOffset>
            <feGaussianBlur stdDeviation="2" in="shadowOffsetOuter1" result="shadowBlurOuter1"></feGaussianBlur>
            <feColorMatrix values="0 0 0 0 0   0 0 0 0 0   0 0 0 0 0  0 0 0 0.5 0" type="matrix" in="shadowBlurOuter1" result="shadowMatrixOuter1"></feColorMatrix>
            <feMerge>
                <feMergeNode in="shadowMatrixOuter1"></feMergeNode>
                <feMergeNode in="SourceGraphic"></feMergeNode>
            </feMerge>
        </filter>
    </defs>
    <g id="Screens" stroke="none" stroke-width="1" fill="none" fill-rule="evenodd">
        <g id="02---Animate-a---mouseover" transform="translate(-617.000000, -257.000000)" fill="#4A74E2" fill-rule="nonzero">
            <g id="Puppet" filter="url(#filter-1)" transform="translate(509.000000, 252.000000)">
                <g id="frame" transform="translate(106.000000, 0.000000)">
                    <g id="LT">
                        <path d="M22.9969019,14.1472618 L22.9970912,14.1476364 C23.0338234,14.5684052 22.7183812,14.9389665 22.2933106,14.9754981 C21.8678613,15.0118423 21.4935341,14.7001062 21.4568019,14.2793374 C21.4140108,13.7916878 21.3132814,13.301228 21.1483653,12.8156391 C20.2590305,10.1883634 17.7818817,8.53001738 15.1297818,8.52926801 C14.4602719,8.52926801 13.7801588,8.63455388 13.1100809,8.85749014 C11.1930029,9.49313949 9.7954767,10.9500935 9.16156291,12.6978014 L9.78638833,12.3442882 C10.1571181,12.1346532 10.628956,12.261858 10.8408286,12.6284851 C11.0527012,12.9951122 10.9237599,13.4619669 10.5535982,13.671602 L8.53579078,14.8128857 C8.42502627,14.9082425 8.28415654,14.9591994 8.13325173,14.9801816 C8.10617596,14.9848651 8.08042558,14.9878626 8.05334981,14.9895487 C8.02381261,14.9904854 7.9965475,15.0021005 7.96587426,14.9996651 C7.93766244,14.9972297 7.91494152,14.9824297 7.88786575,14.9773715 C7.8244365,14.9678171 7.76611946,14.9503943 7.7072344,14.9256653 C7.68659622,14.9162982 7.6670941,14.9074931 7.64740263,14.89644 C7.5222482,14.8310579 7.40807556,14.7433821 7.33252848,14.6128051 L6.10200108,12.4832955 C5.89012846,12.1166684 6.0190697,11.6498136 6.38923143,11.4401786 C6.75996118,11.2305436 7.23179905,11.3577484 7.44367167,11.7243755 L7.70837044,12.1826126 C8.49659718,10.0102017 10.2356946,8.19935981 12.6181729,7.40784242 C13.448812,7.13113918 14.2968705,6.99981286 15.1299711,7.0000002 C18.4305641,6.99925084 21.5052732,9.06337833 22.6140543,12.3287388 C22.8183533,12.9306667 22.9440757,13.5408377 22.9969019,14.1472618 Z M13.4159364,21.5275893 C13.7966477,21.5948035 14.0539406,21.976834 13.9903459,22.3808454 C13.9269226,22.7844935 13.5662668,23.0571649 13.1855555,22.9897691 C12.5703494,22.8807732 11.9741703,22.6871239 11.4112456,22.4169957 L11.4112456,22.4168141 C11.0591605,22.2478705 10.9028306,21.8084354 11.0627602,21.4356695 C11.2220041,21.0625403 11.636484,20.8972298 11.9885691,21.0663551 C12.4417887,21.2839836 12.9217488,21.439666 13.4159364,21.5275893 Z M22.3884349,16.0232439 C22.831826,16.1169365 23.0925481,16.4679713 22.9695428,16.8071385 C22.8702396,17.08197 22.74703,17.3507115 22.6015487,17.6118015 L22.6021617,17.6119576 C22.421536,17.9358216 21.9317625,18.0868228 21.5077826,17.9489386 C21.0838027,17.8108982 20.8862178,17.4364402 21.0670478,17.1125762 C21.1837189,16.9030172 21.2826135,16.6875243 21.3629143,16.4673467 C21.4857152,16.1281796 21.9448395,15.9293952 22.3884349,16.0232439 Z M18.8358947,20.1225157 C19.1617194,19.9154967 19.6200615,19.9770891 19.8589159,20.2600099 C20.0975909,20.5429306 20.0260422,20.9403261 19.7002176,21.1473451 C19.1852103,21.473505 18.615331,21.746938 17.9988285,21.9559789 L17.9993665,21.9561344 C17.6224357,22.0839854 17.197985,21.9228497 17.0507632,21.5963787 C16.9030034,21.2699078 17.088779,20.9015976 17.4657099,20.7737466 C17.9640404,20.6048341 18.4227412,20.3847501 18.8358947,20.1225157 Z M9.24920898,17.4780054 C9.41106309,17.9781707 9.62550005,18.438394 9.88351919,18.8552876 C10.0875343,19.1844516 10.0166343,19.6378992 9.72498111,19.8684566 C9.43348581,20.0988358 9.0319297,20.0187737 8.82807248,19.6896096 C8.50625913,19.1705433 8.23892351,18.5969134 8.03885604,17.9769225 L8.03932976,17.9771008 C7.91726807,17.5997925 8.08875447,17.1820074 8.42320034,17.0443505 C8.75701457,16.9065153 9.12714729,17.1006971 9.24920898,17.4780054 Z" id="Rotate"></path>
                    </g>
                </g>
            </g>
        </g>
    </g>
</svg>