<?xml version="1.0" encoding="UTF-8"?>
<svg width="22px" height="22px" viewBox="0 0 22 22" version="1.1" xmlns="http://www.w3.org/2000/svg" xmlns:xlink="http://www.w3.org/1999/xlink">
    <!-- Generator: Sketch 49.3 (51167) - http://www.bohemiancoding.com/sketch -->
    <title>Save</title>
    <desc>Created with Sketch.</desc>
    <defs></defs>
    <g id="Screens" stroke="none" stroke-width="1" fill="none" fill-rule="evenodd">
        <g id="02---Animate-a---mouseover" transform="translate(-775.000000, -47.000000)" fill="#4A74E2" fill-rule="nonzero">
            <g id="Toolbar-mouse-over" transform="translate(530.000000, 30.000000)">
                <g id="icons" transform="translate(31.000000, 3.000000)">
                    <g id="Save" transform="translate(193.000000, 0.000000)">
                        <path d="M42.3484848,17.9393939 L39.7424242,14.6666667 L39.6666667,14.5757576 C39.3030303,14.2121212 38.7575758,14 38.1818182,14 L24.2878788,14 C22.469697,14 21,15.469697 21,17.2878788 L21,32.7121212 C21,34.530303 22.469697,36 24.2878788,36 L39.7121212,36 C40.6060606,36 41.4393939,35.6515152 42.0454545,35.0151515 C42.6666667,34.3787879 42.9848485,33.530303 42.9545455,32.6666667 L42.9545455,19.4545455 C42.9545455,18.8484848 42.7272727,18.3030303 42.3484848,17.9393939 Z M26.3030303,15.969697 L32.4393939,15.969697 L32.4393939,18.3333333 C32.4393939,18.4242424 32.3939394,18.4848485 32.2878788,18.4848485 L26.4545455,18.4848485 C26.3636364,18.4848485 26.3030303,18.4393939 26.3030303,18.3333333 L26.3030303,15.969697 Z M37.6969697,34.030303 L26.3030303,34.030303 L26.3030303,28.1363636 C26.3030303,28.0454545 26.3484848,27.9848485 26.4545455,27.9848485 L37.5606061,27.9848485 C37.6515152,27.9848485 37.7121212,28.030303 37.7121212,28.1363636 L37.7121212,34.030303 L37.6969697,34.030303 Z M40.6363636,33.6515152 C40.3939394,33.8939394 40.0606061,34.0454545 39.7121212,34.0454545 L39.6666667,34.0454545 L39.6666667,28.1515152 C39.6666667,26.969697 38.7424242,26.0454545 37.5606061,26.0454545 L26.4545455,26.0454545 C25.2727273,26.0454545 24.3484848,26.969697 24.3484848,28.1515152 L24.3484848,34.0454545 L24.3030303,34.0454545 C23.5757576,34.0454545 22.969697,33.4545455 22.969697,32.7272727 L22.969697,17.2878788 C22.969697,16.5606061 23.5606061,15.9545455 24.3030303,15.9545455 L24.3484848,15.9545455 L24.3484848,18.3181818 C24.3484848,19.5 25.2727273,20.4242424 26.4545455,20.4242424 L32.3030303,20.4242424 C33.4848485,20.4242424 34.4090909,19.5 34.4090909,18.3181818 L34.4090909,15.969697 L38.1969697,15.969697 C38.2424242,15.969697 38.2727273,15.969697 38.2878788,15.9848485 L40.9393939,19.3333333 L40.9848485,19.3787879 C40.9848485,19.3939394 41,19.4393939 41,19.4848485 L41,32.7272727 C41,33.0606061 40.8787879,33.3939394 40.6363636,33.6515152 Z"></path>
                    </g>
                </g>
            </g>
        </g>
    </g>
</svg>