<?xml version="1.0" encoding="UTF-8"?>
<svg width="14px" height="14px" viewBox="0 0 14 14" version="1.1" xmlns="http://www.w3.org/2000/svg" xmlns:xlink="http://www.w3.org/1999/xlink">
    <!-- Generator: Sketch 49.3 (51167) - http://www.bohemiancoding.com/sketch -->
    <title>close</title>
    <desc>Created with Sketch.</desc>
    <defs></defs>
    <g id="Screens" stroke="none" stroke-width="1" fill="none" fill-rule="evenodd">
        <g id="01---Input---2a" transform="translate(-810.000000, -740.000000)" fill="#FFFFFF">
            <g id="Panel" transform="translate(360.000000, 212.000000)">
                <g id="tutorial" transform="translate(240.000000, 510.000000)">
                    <path d="M216,24 L216,17 C216,16.4477153 216.447715,16 217,16 C217.552285,16 218,16.4477153 218,17 L218,24 L225,24 C225.552285,24 226,24.4477153 226,25 C226,25.5522847 225.552285,26 225,26 L218,26 L218,33 C218,33.5522847 217.552285,34 217,34 C216.447715,34 216,33.5522847 216,33 L216,26 L209,26 C208.447715,26 208,25.5522847 208,25 C208,24.4477153 208.447715,24 209,24 L216,24 Z" id="close" transform="translate(217.000000, 25.000000) rotate(45.000000) translate(-217.000000, -25.000000) "></path>
                </g>
            </g>
        </g>
    </g>
</svg>