<?xml version="1.0" encoding="UTF-8"?>
<svg width="26px" height="26px" viewBox="0 0 26 26" version="1.1" xmlns="http://www.w3.org/2000/svg" xmlns:xlink="http://www.w3.org/1999/xlink">
    <!-- Generator: Sketch 49.3 (51167) - http://www.bohemiancoding.com/sketch -->
    <title>Combined Shape</title>
    <desc>Created with Sketch.</desc>
    <defs></defs>
    <g id="Screens" stroke="none" stroke-width="1" fill="none" fill-rule="evenodd">
        <g id="00---Default-1440-+" transform="translate(-1273.000000, -952.000000)" fill="#FFFFFF">
            <g id="bottom" transform="translate(0.000000, 904.000000)">
                <g id="+-button" transform="translate(1251.000000, 26.000000)">
                    <path d="M36.5,33.5 L46.5,33.5 C47.3284271,33.5 48,34.1715729 48,35 C48,35.8284271 47.3284271,36.5 46.5,36.5 L36.5,36.5 L36.5,46.5 C36.5,47.3284271 35.8284271,48 35,48 C34.1715729,48 33.5,47.3284271 33.5,46.5 L33.5,36.5 L23.5,36.5 C22.6715729,36.5 22,35.8284271 22,35 C22,34.1715729 22.6715729,33.5 23.5,33.5 L33.5,33.5 L33.5,23.5 C33.5,22.6715729 34.1715729,22 35,22 C35.8284271,22 36.5,22.6715729 36.5,23.5 L36.5,33.5 Z" id="Combined-Shape"></path>
                </g>
            </g>
        </g>
    </g>
</svg>