<?xml version="1.0" encoding="UTF-8"?>
<svg width="25px" height="23px" viewBox="0 0 25 23" version="1.1" xmlns="http://www.w3.org/2000/svg" xmlns:xlink="http://www.w3.org/1999/xlink">
    <!-- Generator: Sketch 49.3 (51167) - http://www.bohemiancoding.com/sketch -->
    <title>Redo</title>
    <desc>Created with Sketch.</desc>
    <defs></defs>
    <g id="Screens" stroke="none" stroke-width="1" fill="none" fill-rule="evenodd" fill-opacity="0.5">
        <g id="01---Input---1b" transform="translate(-614.000000, -771.000000)" fill="#F3F5FA" fill-rule="nonzero">
            <g id="Panel" transform="translate(360.000000, 212.000000)">
                <g id="Actions" transform="translate(60.000000, 516.000000)">
                    <g id="icns" transform="translate(134.000000, 29.000000)">
                        <path d="M82.8215289,24.1566338 C82.824763,24.1609055 82.824763,24.1684114 82.824763,24.1759172 C82.8283865,24.2030933 82.83201,24.2302695 82.835306,24.2578095 C82.8401086,24.2926884 82.8437131,24.3277099 82.8461894,24.3614778 C82.8417424,24.2967944 82.8340613,24.2361537 82.8255716,24.1755129 L82.9589812,24.0501888 C83.4481496,23.593362 84.2162654,23.6176183 84.6730922,24.1067868 C85.129919,24.5959553 85.1052584,25.3644753 84.6160899,25.8213021 L82.4572803,27.8426595 L82.3841071,27.9113856 C82.3562124,27.9360462 82.3275091,27.9639409 82.2992101,27.9845588 C82.287082,27.9962826 82.2749538,28.0047723 82.2628257,28.0124535 C82.1779287,28.0730942 82.088989,28.1220111 81.9960065,28.1579912 C81.8585542,28.2105465 81.7130165,28.2388455 81.563436,28.2388455 C81.5355413,28.2388455 81.5031996,28.2388455 81.4708579,28.2343985 C81.4385162,28.2303558 81.4061744,28.2303558 81.3738327,28.2226747 C81.3010639,28.2105465 81.2286993,28.1943756 81.1595688,28.1701194 C81.1231844,28.1579912 81.0908427,28.1418204 81.058501,28.1292879 C80.917006,28.0690515 80.7835964,27.9756648 80.6704004,27.8543833 L78.5803168,25.6187621 C78.1234901,25.1336363 78.1481506,24.3655205 78.6373191,23.9046511 C79.1264876,23.4478243 79.8905607,23.4761233 80.3469832,23.9572064 C80.3388977,23.9006083 80.3308123,23.8440103 80.3190884,23.7874123 C80.2984706,23.6701736 80.2746186,23.5569776 80.2459153,23.4397389 C80.2180206,23.310372 80.1856789,23.1810051 80.1488902,23.055681 C80.1169527,22.9263141 80.0761213,22.8009899 80.0360984,22.6756658 C79.9916286,22.5341708 79.943116,22.3926758 79.886518,22.2552235 C79.7571511,21.8994646 79.5994852,21.5598765 79.4216058,21.2283739 C79.2396836,20.8807005 79.0335052,20.5451551 78.8034747,20.2257807 C78.742834,20.1368409 78.6777463,20.0479012 78.6053817,19.9589615 C78.4311407,19.7285268 78.2415374,19.5061774 78.0430401,19.2919136 C77.9581431,19.2029738 77.873246,19.1180768 77.788349,19.0331798 C77.594703,18.8431722 77.3962057,18.6612501 77.1863888,18.4874133 C77.0768312,18.3944309 76.9636352,18.3054912 76.8463965,18.2205942 C76.5961525,18.0346293 76.3370144,17.8607926 76.0701953,17.699084 C75.9650847,17.6384432 75.8563357,17.5737598 75.7467781,17.5171618 C75.6457102,17.4605638 75.5486851,17.4080085 75.4435745,17.3594959 C75.3869765,17.3311969 75.3303785,17.3028979 75.2737805,17.2786416 C75.1969689,17.2422572 75.1201573,17.2058728 75.039303,17.1735311 C74.8779987,17.1007622 74.7158858,17.0360788 74.5460918,16.975438 C74.4652375,16.947139 74.3843832,16.91884 74.3031247,16.890541 C74.2226747,16.862242 74.1377776,16.833943 74.0528806,16.8096867 C73.9311949,16.7733023 73.806275,16.7369179 73.6805466,16.7045761 C73.5067099,16.6601063 73.3247877,16.6196791 73.1473125,16.5873374 C73.042202,16.5671238 72.9411341,16.550953 72.8356192,16.5347821 C72.7871067,16.522654 72.7389984,16.5186113 72.6860388,16.5145686 C72.5934606,16.4983977 72.5000739,16.4903123 72.4111342,16.4781841 C72.2979382,16.466056 72.1806994,16.4539278 72.0675034,16.4498851 C71.9781594,16.4417997 71.8932624,16.437757 71.804727,16.4337143 C71.6874883,16.4296715 71.5662068,16.4256288 71.4489681,16.4256288 L71.4368399,16.4256288 C71.2832168,16.4256288 71.1336363,16.4296715 70.9840559,16.437757 C70.8304327,16.4458424 70.6768096,16.4579705 70.5272291,16.4741414 C70.3897768,16.4862696 70.2523245,16.5024404 70.1148722,16.5266967 C69.9935908,16.5428676 69.8763521,16.5630811 69.7591133,16.5873374 C69.6661309,16.6035083 69.5771912,16.6196791 69.4882514,16.6398927 C69.4312492,16.6520209 69.3786939,16.664149 69.3301813,16.6762771 C69.2452843,16.6964907 69.16443,16.7167043 69.08398,16.7409606 C69.0269777,16.7530887 68.9744224,16.7692596 68.9222714,16.7854304 C68.8495025,16.805644 68.7807764,16.8299003 68.7080075,16.8501139 C68.5867261,16.8864983 68.4694873,16.9269255 68.3522486,16.975438 C68.218839,17.0199079 68.0854294,17.0724632 67.9520199,17.1331039 C67.7983967,17.1937446 67.6488162,17.2624708 67.4996401,17.3352396 C67.131753,17.5131191 66.7759941,17.7152548 66.4360018,17.9456896 C66.4279164,17.953775 66.4157883,17.9618604 66.4081071,17.9659031 C66.2868257,18.0467574 66.1695869,18.1276117 66.0523482,18.2205942 C66.0115168,18.2488932 65.9714939,18.2771922 65.9351095,18.3095339 C65.9349553,18.3096407 65.9348012,18.3097476 65.9346471,18.3098545 C65.8940113,18.3381419 65.8577345,18.3663455 65.8178708,18.3985512 L65.8178708,18.3984736 C65.8581452,18.366254 65.8940063,18.3380467 65.9346471,18.3098545 L65.8134238,18.4025163 C65.8093811,18.406559 65.8093811,18.406559 65.8053383,18.406559 C65.7083132,18.4833706 65.611288,18.5642249 65.5183056,18.6491219 C65.5425619,18.6329511 65.5668182,18.6127375 65.5910745,18.5925239 C63.6546141,20.2459942 62.4256288,22.7039648 62.4256288,25.4489681 C62.4256288,30.4215072 66.4727905,34.4686689 71.4489681,34.4686689 C72.1200587,34.4686689 72.6617825,35.0144354 72.6617825,35.6814833 C72.6617825,36.3521697 72.1200587,36.8942977 71.4489681,36.8942977 C65.1342477,36.8942977 60,31.76005 60,25.4489681 C60,22.0733013 61.4675054,19.0331798 63.7965134,16.9350109 C63.9056667,16.8420284 64.01482,16.7450033 64.1239733,16.6520209 C64.1441869,16.6398927 64.1603577,16.6237219 64.1765286,16.607551 C64.2775964,16.5266967 64.382707,16.4458424 64.4882219,16.3649881 C64.9612195,16.0011438 65.4665588,15.6696412 65.9957502,15.3826084 C66.1574588,15.2977114 66.3236144,15.2128144 66.4893657,15.1319601 C66.796612,14.9823797 67.1074967,14.8489701 67.4268712,14.7317314 C67.5036828,14.6993896 67.5849414,14.6710906 67.6613487,14.6468344 C67.7870771,14.5983218 67.9160397,14.5578946 68.0494493,14.5174675 C68.194987,14.4689549 68.3445675,14.4285278 68.4945522,14.3881006 C68.5588313,14.367887 68.6275575,14.3517162 68.6922409,14.3355453 C68.8418214,14.2991609 68.9914018,14.2627765 69.145025,14.2344775 C69.3309898,14.1940503 69.5169547,14.1617086 69.7073666,14.1334096 C69.8812033,14.1051106 70.0546358,14.084897 70.2329195,14.0687262 C70.2571758,14.0606407 70.2814321,14.0606407 70.3056884,14.0606407 C70.4876105,14.0404271 70.6735754,14.0242563 70.8595403,14.0161709 C71.0531863,14.0040427 71.2435982,14 71.4376485,14 L71.4740329,14 C71.6559551,14 71.8378772,14.0040427 72.0202037,14.0161709 C72.0363745,14.0161709 72.0525454,14.0161709 72.0687162,14.0202136 C72.2344676,14.0242563 72.3998146,14.0363844 72.5655659,14.056598 C72.5979076,14.056598 72.6302493,14.0606407 72.662591,14.0646834 C72.7960006,14.0768116 72.9294102,14.0929824 73.0587771,14.1172387 C73.4630486,14.169794 73.8588303,14.2466056 74.2509737,14.3476735 C74.3843832,14.3800152 74.5137501,14.4163996 74.6435213,14.4568268 C74.7486318,14.4851258 74.8496997,14.5174675 74.9548103,14.5538519 C75.0841772,14.5902363 75.213544,14.6347062 75.3388682,14.6791761 C75.383338,14.6953469 75.4314464,14.7155605 75.4803632,14.7317314 C75.6222625,14.7883294 75.7633532,14.8408847 75.9008055,14.9015254 C76.0750465,14.9742942 76.2448406,15.0511058 76.4101876,15.1319601 C76.5480442,15.1966436 76.6854965,15.2694124 76.8229488,15.3421813 C76.8755041,15.3704803 76.9280593,15.3987793 76.9806146,15.4270783 C77.1180669,15.5038899 77.2514765,15.5807015 77.3808434,15.6615557 C77.5182957,15.74241 77.655748,15.8273071 77.7851149,15.9202895 C77.8174566,15.9405031 77.8497983,15.9607166 77.88214,15.9809302 C78.023635,16.0779554 78.1606831,16.1749805 78.2944969,16.2760484 C78.4400346,16.3852017 78.5859766,16.4983977 78.7270674,16.6156364 C79.1272961,16.947139 79.5032686,17.3028979 79.8509421,17.6788704 C79.9600954,17.7961091 80.0692487,17.9173906 80.1703165,18.0427147 C80.2552136,18.1397399 80.3360678,18.2408077 80.4165179,18.3418756 C80.4609877,18.3903882 80.4973722,18.4429435 80.5337566,18.4914561 C80.6146109,18.5925239 80.6918267,18.6976345 80.7641913,18.8027451 C80.7763195,18.8148732 80.7844049,18.8310441 80.7924903,18.8431722 C80.8850685,18.9725391 80.9740082,19.1059487 81.0589052,19.2393583 C81.1518877,19.3768106 81.2367847,19.5183056 81.3216817,19.6638433 C81.402536,19.8012956 81.4833903,19.9468334 81.5602019,20.0883284 C81.5686916,20.0964138 81.5763727,20.1085419 81.5763727,20.1206701 C81.633375,20.2257807 81.6859303,20.3308912 81.7380813,20.4360018 C81.8957472,20.7513336 82.0327952,21.0747508 82.1585236,21.4102961 C82.2151217,21.5598765 82.2676769,21.709457 82.3161895,21.8590374 C82.3889584,22.0571304 82.4495991,22.2592662 82.5021544,22.4654446 C82.5344961,22.5907688 82.5668378,22.7160929 82.5951368,22.8414171 C82.6068607,22.8818442 82.6193931,22.9222714 82.6230316,22.9667412 C82.6513306,23.08398 82.6755869,23.2012187 82.6962047,23.3184574 C82.7123756,23.3790981 82.7240994,23.4437816 82.7285464,23.508465 C82.74876,23.6095329 82.7649309,23.7106008 82.7766547,23.8116686 C82.7972726,23.9086938 82.8089964,24.0057189 82.8174861,24.1067868 C82.8215289,24.1229577 82.8215289,24.1391285 82.8215289,24.1552994 L82.8215289,24.1566338 Z M79.4207972,21.2287782 C79.2348324,20.8811047 79.0286539,20.5455594 78.8026662,20.2261849 C79.0326966,20.5455594 79.2388751,20.8811047 79.4207972,21.2287782 Z M79.8857094,22.2556277 C79.7522998,21.9039115 79.594634,21.5602808 79.4207972,21.2287782 C79.5986767,21.5602808 79.7563426,21.8998688 79.8857094,22.2556277 Z M67.4992358,17.3356439 C67.1313488,17.5175661 66.7755899,17.7237445 66.4355976,17.9460938 C66.7755899,17.7156591 67.1313488,17.5135234 67.4992358,17.3356439 Z" id="Redo"></path>
                    </g>
                </g>
            </g>
        </g>
    </g>
</svg>