<svg xmlns="http://www.w3.org/2000/svg" width="160" height="23" viewBox="0 0 160 23">
    <path fill="#FFF" fill-rule="evenodd" d="M131.85 14.142c-.036 3.939 2.692 7.253 6.373 8.115.115.032.234.053.36.054a1.377 1.377 0 0 0 .375-2.706 5.508 5.508 0 0 1-4.354-5.437l.095-10.384a1.322 1.322 0 0 0-1.31-1.334h-.11a1.322 1.322 0 0 0-1.334 1.31l-.095 10.382zm-13.41 5.39a5.508 5.508 0 1 1 0-11.016 5.508 5.508 0 0 1 0 11.016zM93.648 8.516a6.885 6.885 0 0 1 12.394 4.131v8.317c0 .73-.592 1.323-1.322 1.323h-.11c-.73 0-1.322-.592-1.322-1.323v-8.317a4.131 4.131 0 0 0-8.263 0v8.317c0 .73-.593 1.323-1.323 1.323h-.11c-.73 0-1.322-.592-1.322-1.323l.001-8.317a4.131 4.131 0 0 0-8.263 0v8.317c0 .73-.592 1.323-1.322 1.323h-.11c-.73 0-1.323-.592-1.323-1.323v-8.317a6.886 6.886 0 0 1 12.395-4.131zm33.054 5.508v6.885a1.377 1.377 0 0 1-2.754 0v-.739a8.222 8.222 0 0 1-5.508 2.117 8.263 8.263 0 1 1 8.262-8.263zm-106.046 0c0-3.939 2.758-7.228 6.447-8.056a1.377 1.377 0 0 1 .71 2.658 5.508 5.508 0 0 0-4.403 5.398v6.94c0 .73-.592 1.323-1.322 1.323h-.11c-.73 0-1.322-.592-1.322-1.323v-6.94zm55.26-12.05a1.721 1.721 0 1 1-3.442 0 1.721 1.721 0 0 1 3.442 0zm-1.72 20.313c-.761 0-1.378-.617-1.378-1.377V7.139a1.377 1.377 0 1 1 2.754 0v13.77c0 .76-.616 1.378-1.377 1.378zM140.172 7.48a1.722 1.722 0 1 1-3.443 0 1.722 1.722 0 0 1 3.443 0zm19.582 6.525v.016c0 .76-.616 1.378-1.377 1.378l-6.196.022c-.76 0-1.377-.64-1.377-1.4 0-.76.617-1.377 1.377-1.377h4.639a5.512 5.512 0 0 0-6.433-4.023 5.486 5.486 0 0 0-4.296 4.295 5.514 5.514 0 0 0 5.4 6.614H151.904a1.377 1.377 0 1 1 0 2.754c-.031 0-.06.002-.092 0-4.708.176-8.58-3.594-8.58-8.263a8.265 8.265 0 0 1 9.2-8.21c3.981.439 7.085 3.811 7.313 7.81.007.13.011.258.011.384zm-112.243.018v6.885a1.377 1.377 0 1 1-2.754 0v-.739a8.222 8.222 0 0 1-5.508 2.117 8.263 8.263 0 1 1 8.262-8.263zm-8.262 5.508a5.508 5.508 0 1 0 0-11.016 5.508 5.508 0 0 0 0 11.016zm13.082 1.432v-7.628a7.574 7.574 0 1 1 15.148 0v7.628c0 .73-.592 1.323-1.322 1.323h-.11c-.73 0-1.322-.592-1.322-1.323v-7.628a4.82 4.82 0 0 0-9.64 0v7.628c0 .73-.592 1.323-1.322 1.323h-.11c-.73 0-1.322-.592-1.322-1.323zM15.202 5.762c.731 0 1.323.591 1.323 1.322v6.994c0 .019-.005.037-.006.055-.059 4.512-3.73 8.154-8.257 8.154a8.263 8.263 0 1 1 0-16.525 8.22 8.22 0 0 1 5.509 2.116v-.794c0-.73.592-1.322 1.322-1.322h.11zm-6.94 13.77a5.508 5.508 0 1 0 0-11.016 5.508 5.508 0 0 0 0 11.016zm6.886-15.836a1.721 1.721 0 1 1 0-3.443 1.721 1.721 0 0 1 0 3.443z"/>
</svg>
