<svg xmlns="http://www.w3.org/2000/svg" width="24" height="32" viewBox="0 0 24 32">
    <path fill="#4A74E2" fill-rule="evenodd" d="M8.976 27.209c.096.048.21.11.324.223l.095.094c1.196.835 2.678 1.295 4.372 1.34 3.889 0 7.083-3.02 7.267-6.88V8.056c0-.47-.4-.867-.873-.867h-.099c-.526-.02-.73-.007-.768.731-.004.148-.006 6.01-.006 6.52 0 .572-.45 1.021-1.023 1.021a1.012 1.012 0 0 1-1.024-1.02V4.807c0-.472-.4-.87-.873-.87-.569 0-.84.077-.87.78-.002.105-.003 8.565-.003 8.59 0 .573-.45 1.021-1.024 1.021a1.012 1.012 0 0 1-1.023-1.02V2.728c0-.47-.4-.869-.874-.869a.89.89 0 0 0-.87.802l-.002 9.349v.165c0 .572-.45 1.02-1.024 1.02a1.012 1.012 0 0 1-1.024-1.02v-6.5c0-.47-.399-.868-.873-.868a.882.882 0 0 0-.873.869v12.26c0 .446-.306.834-.76.964-.527.075-.994-.164-1.17-.576l-2.273-4.76c-.148-.44-.656-.672-1.1-.525a.872.872 0 0 0-.495 1.083l5.393 11.449c.374.574.86 1.119 1.473 1.638m4.88 3.991c-2 0-3.924-.617-5.567-1.787a.347.347 0 0 1-.169-.15.537.537 0 0 1-.145-.097 10.65 10.65 0 0 1-2.11-2.333l-.044-.075a.338.338 0 0 1-.038-.088L.2 15a2.852 2.852 0 0 1 1.746-3.755c.304-.1.669-.157 1.002-.157 1.196 0 2.329.777 2.757 1.89l.308.61v-7.85c0-1.569 1.338-2.893 2.92-2.893.48 0 .824.075 1.059.16.119-1.228.75-3.005 2.582-3.005 2.308 0 2.562 1.225 2.767 2.21 0 .003 0 .005.002.007a2.97 2.97 0 0 1 1.215-.252c2.359 0 2.523 2.143 2.61 3.294l.02.23a3.011 3.011 0 0 1 1.182-.236c1.61 0 2.92 1.296 2.92 2.89V22.29c-.2 5-4.345 8.91-9.435 8.91"/>
</svg>
