<svg width="48" height="48" viewBox="0 0 48 48" fill="none" xmlns="http://www.w3.org/2000/svg">
<g clip-path="url(#clip0)">
<path d="M22.9644 28.8495C23.1786 29.0321 23.4509 29.1324 23.7324 29.1324C24.0139 29.1324 24.2861 29.0321 24.5004 28.8495L33.1084 20.8495C33.329 20.6458 33.4597 20.3628 33.4718 20.0628C33.4838 19.7627 33.3761 19.4702 33.1724 19.2495C32.9687 19.0289 32.6857 18.8982 32.3856 18.8862C32.0856 18.8742 31.793 18.9818 31.5724 19.1855L23.7324 26.4815L15.8924 19.1855C15.6804 18.9986 15.407 18.8961 15.1244 18.8975C14.8121 18.9037 14.5142 19.0297 14.2924 19.2495C14.0935 19.4725 13.989 19.7639 14.0009 20.0625C14.0129 20.361 14.1403 20.6432 14.3564 20.8495L22.9644 28.8495Z" fill="white" fill-opacity="0.7"/>
</g>
<defs>
<clipPath id="clip0">
<path d="M0 0H48V48H0V0Z" fill="white"/>
</clipPath>
</defs>
</svg>
