<svg width="24" height="24" viewBox="0 0 24 24" fill="none" xmlns="http://www.w3.org/2000/svg">
<path d="M12.5083 7.16802C12.294 6.98543 12.0218 6.88515 11.7403 6.88515C11.4588 6.88515 11.1865 6.98543 10.9723 7.16802L2.36428 15.168C2.14362 15.3717 2.01291 15.6547 2.00091 15.9548C1.9889 16.2548 2.09659 16.5474 2.30028 16.768C2.50396 16.9887 2.78696 17.1194 3.08702 17.1314C3.38708 17.1434 3.67962 17.0357 3.90028 16.832L11.7403 9.53602L19.5803 16.832C19.7923 17.019 20.0656 17.1215 20.3483 17.12C20.6605 17.1139 20.9584 16.9878 21.1803 16.768C21.3792 16.5451 21.4837 16.2536 21.4717 15.9551C21.4598 15.6566 21.3323 15.3744 21.1163 15.168L12.5083 7.16802Z" fill="white" fill-opacity="0.7"/>
</svg>
