<svg width="24" height="24" viewBox="0 0 24 24" fill="none" xmlns="http://www.w3.org/2000/svg">
<path d="M20.8146 0C19.9986 0 19.1802 0.309592 18.561 0.931176L6.61623 12.8757L0.712226 15.1148C0.611426 15.1532 0.522626 15.2108 0.448226 15.2876C0.448226 15.2876 0.234626 15.5156 0.126626 15.8132C0.0162256 16.1108 -0.0437744 16.5308 0.0378256 17.0372C0.201026 18.0475 0.889825 19.3843 2.75703 21.2491C4.62423 23.1138 5.96103 23.7978 6.96903 23.961C7.47303 24.0426 7.88823 23.9826 8.18583 23.8722C8.48343 23.7618 8.71863 23.5506 8.71863 23.5506C8.79303 23.4762 8.85303 23.385 8.88903 23.2866L11.1234 17.3804L23.0682 5.43826C24.3066 4.19989 24.3066 2.16954 23.0682 0.931176C22.449 0.309592 21.6306 0 20.8146 0ZM20.817 1.49036C21.2466 1.49036 21.6762 1.65836 22.0098 1.99195C22.6794 2.66153 22.6794 3.70791 22.0098 4.37749L14.301 12.0885L11.9178 9.70055L19.6242 1.99435C19.9602 1.65836 20.3898 1.49036 20.817 1.49036ZM10.8546 10.7637L13.2402 13.1493L10.485 15.9068L8.09943 13.5213L10.8546 10.7637ZM6.84663 14.3948L9.60903 17.1524L7.59303 22.473C7.52103 22.4922 7.42983 22.521 7.20423 22.485C6.91623 22.437 6.45783 22.2738 5.83383 21.873L6.99783 20.7091C7.29542 20.4211 7.30503 19.9483 7.01943 19.6483C6.87303 19.4947 6.66903 19.4131 6.45543 19.4179C6.26103 19.4251 6.07623 19.5043 5.94183 19.6459L4.63143 20.9563C4.37223 20.7307 4.10343 20.4835 3.80823 20.1883C3.51543 19.8955 3.27063 19.6267 3.04503 19.3699L4.35063 18.0643C4.64822 17.7763 4.65783 17.3036 4.37223 17.0036C4.22583 16.85 4.01943 16.766 3.80823 16.7732C3.61383 16.7804 3.42903 16.8596 3.29463 17.0012L2.12823 18.1675C1.72983 17.5436 1.56663 17.0852 1.51863 16.7972C1.48263 16.5692 1.51383 16.4804 1.53543 16.4084L6.84663 14.3948Z" fill="#4A73E2"/>
</svg>
