<svg width="24" height="25" viewBox="0 0 24 25" fill="none" xmlns="http://www.w3.org/2000/svg">
<path d="M6.89445 13.8056L6.79407 13.8437L0.891802 16.0815C0.891655 16.0816 0.891507 16.0816 0.89136 16.0817C0.861212 16.0933 0.833621 16.1106 0.810094 16.1326C0.807021 16.1362 0.802824 16.1411 0.797692 16.1472C0.782804 16.1652 0.760745 16.1929 0.735782 16.2281C0.683838 16.3013 0.629303 16.3928 0.595122 16.4857L6.89445 13.8056ZM6.89445 13.8056L6.97036 13.7297L18.9166 1.78374C19.4381 1.26233 20.1257 1 20.8161 1C21.5067 1 22.1958 1.26249 22.717 1.78374C23.7608 2.82752 23.7611 4.53994 22.717 5.58402M6.89445 13.8056L23.0706 5.93758M8.71895 24.0521C8.38285 23.6819 8.38292 23.6818 8.38298 23.6818L8.38311 23.6817L8.38335 23.6814L8.38161 23.6829C8.37989 23.6844 8.3775 23.6865 8.37446 23.689M8.71895 24.0521C8.79424 23.9769 8.85266 23.8865 8.89034 23.787L11.1258 17.8806L23.0706 5.93758M8.71895 24.0521L8.36557 23.6984C8.36861 23.6953 8.37158 23.6922 8.37446 23.689M8.71895 24.0521C8.71895 24.0521 8.4845 24.2649 8.18718 24.3744M8.37446 23.689C8.3953 23.6659 8.41167 23.6391 8.42271 23.61L10.6581 17.7036L10.6962 17.6031L10.7723 17.527L22.717 5.58402M8.37446 23.689C8.3711 23.6918 8.36697 23.6953 8.36209 23.6992C8.34336 23.7145 8.31457 23.7369 8.27827 23.7623C8.20291 23.8149 8.10933 23.8701 8.01535 23.9048M22.717 5.58402L23.0706 5.93758M22.717 5.58402L22.7171 5.584L23.0706 5.93758M8.01535 23.9048C8.01558 23.9047 8.01581 23.9046 8.01605 23.9046L8.18718 24.3744M8.01535 23.9048C7.80026 23.983 7.47189 24.0372 7.04994 23.9687L7.04989 23.9687C6.19029 23.8293 4.94422 23.2296 3.11035 21.3958C1.27552 19.561 0.670773 18.3151 0.531489 17.4563L0.037976 17.5364L0.531487 17.4563C0.46275 17.0326 0.516825 16.6988 0.595087 16.4858L6.96985 24.4623C7.47462 24.5442 7.88986 24.4827 8.18718 24.3744M8.01535 23.9048C8.01506 23.9049 8.01478 23.905 8.0145 23.9051L8.18718 24.3744M6.97311 14.3134L7.20151 14.5413L9.96431 17.2982L10.1933 17.5267L10.0787 17.8292L8.063 23.1496L7.97348 23.3859L7.73014 23.454C7.72808 23.4546 7.72587 23.4552 7.72351 23.4559C7.68475 23.4668 7.60634 23.4889 7.50061 23.4977C7.3917 23.5067 7.27091 23.5009 7.12778 23.4778L7.12704 23.4777C6.74801 23.4161 6.22572 23.215 5.56754 22.7927L5.484 22.0183L6.64859 20.8537L6.6556 20.8467L6.65566 20.8468C6.69209 20.8118 6.71705 20.7666 6.72727 20.7171C6.7375 20.6677 6.7325 20.6163 6.71294 20.5697C6.69338 20.5231 6.66017 20.4836 6.61769 20.4562C6.5754 20.429 6.52589 20.4152 6.47563 20.4165C6.41097 20.4187 6.34966 20.4458 6.30458 20.4922L6.29954 20.4974L6.2995 20.4974L4.98988 21.807L4.65945 22.1374L4.30746 21.83C4.04204 21.5983 3.76331 21.3432 3.45951 21.0394C3.15675 20.7366 2.90403 20.4603 2.67313 20.1957L2.36594 19.8437L2.69629 19.5134L4.00299 18.2067L4.01002 18.1997L4.01009 18.1998C4.04655 18.1647 4.07153 18.1195 4.08174 18.07C4.09195 18.0204 4.08692 17.969 4.06729 17.9224C4.04767 17.8758 4.01438 17.8363 3.97182 17.809C3.92926 17.7817 3.87942 17.7679 3.82888 17.7695C3.76411 17.7716 3.70267 17.7987 3.65751 17.8452L3.65246 17.8504L3.65242 17.8504L2.4849 19.0179L1.71016 18.9338C1.28776 18.2735 1.08975 17.7514 1.02841 17.3733L6.97311 14.3134ZM6.97311 14.3134L6.67135 14.4276M6.97311 14.3134L6.67135 14.4276M6.67135 14.4276L1.36109 16.4374L1.12824 16.5255M6.67135 14.4276L1.12824 16.5255M1.12824 16.5255L1.05824 16.7644M1.12824 16.5255L1.05824 16.7644M1.05824 16.7644C1.05753 16.7669 1.05664 16.7698 1.0556 16.7733M1.05824 16.7644L1.0556 16.7733M1.0556 16.7733C1.04552 16.8066 1.02145 16.8862 1.01096 16.9893M1.0556 16.7733L1.01096 16.9893M1.01096 16.9893C0.999503 17.1017 1.0045 17.226 1.0284 17.3732L1.01096 16.9893ZM11.5663 9.84677L11.2131 10.1999L11.5658 10.5535L13.9492 12.9426L14.6568 12.9431L22.3665 5.2335C23.2314 4.36865 23.2319 3.00548 22.3666 2.14012C21.937 1.71062 21.3798 1.49123 20.8191 1.49123C20.258 1.49123 19.7023 1.71095 19.2731 2.14012L11.5663 9.84677ZM11.2099 10.9103L10.8563 10.5567L10.5028 10.9103L7.74581 13.6671L7.74581 14.3743L10.1321 16.7605L10.4857 17.1141L10.8392 16.7605L13.5962 14.0036L13.5962 13.2965L11.2099 10.9103Z" fill="#4A73E2" stroke="#4A73E2" stroke-miterlimit="1.41421" stroke-linecap="round"/>
</svg>
