<svg width="24" height="15" viewBox="0 0 24 15" fill="none" xmlns="http://www.w3.org/2000/svg">
<path d="M22.8587 1.5C22.1413 1.07609 21.2935 1.07609 20.5761 1.5L17.5109 3.26087V2.93478C17.5109 1.30435 16.2065 0 14.5761 0H2.93478C1.30435 0 0 1.30435 0 2.93478V11.7391C0 13.3696 1.30435 14.6739 2.93478 14.6739H14.5761C16.2065 14.6739 17.5109 13.3696 17.5109 11.7391V11.0543L20.413 13.0435C20.8043 13.3043 21.2609 13.4348 21.7174 13.4348C22.0761 13.4348 22.4674 13.337 22.7935 13.1739C23.5435 12.7826 24 12 24 11.1522V3.48913C24 2.67391 23.5761 1.8913 22.8587 1.5ZM15.5543 11.7391C15.587 12.2609 15.163 12.6848 14.6413 12.7174C14.6087 12.7174 14.6087 12.7174 14.5761 12.7174H2.93478C2.41304 12.75 1.98913 12.3261 1.95652 11.8043C1.95652 11.7717 1.95652 11.7717 1.95652 11.7391V2.93478C1.92391 2.41304 2.34783 1.98913 2.86957 1.95652C2.90217 1.95652 2.90217 1.95652 2.93478 1.95652H14.5761C15.0978 1.92391 15.5217 2.34783 15.5543 2.86956C15.5543 2.90217 15.5543 2.90217 15.5543 2.93478V11.7391ZM22.0435 11.1522C22.0435 11.2826 21.9783 11.3804 21.8804 11.4457C21.75 11.5109 21.6196 11.4783 21.5217 11.413L17.5109 8.67391V5.51087L21.5543 3.19565C21.6522 3.13043 21.7826 3.13043 21.8804 3.19565C21.9783 3.26087 22.0435 3.3587 22.0435 3.48913V11.1522Z" fill="#191919" fill-opacity="0.6"/>
</svg>
