<svg width="24" height="25" viewBox="0 0 24 25" fill="none" xmlns="http://www.w3.org/2000/svg">
<g clip-path="url(#clip0)">
<path d="M14.0027 2.50007C13.7875 2.50187 13.5814 2.58721 13.428 2.73814L0.241079 15.9315C-0.0803597 16.2549 -0.0803597 16.7771 0.241079 17.1004L7.34533 24.2047C7.4993 24.3596 7.70817 24.4474 7.92655 24.4492H12.0389C12.2589 24.4487 12.4698 24.3607 12.6249 24.2047L23.7557 13.0739C23.9121 12.9184 24 12.7069 24 12.4862C24 12.2656 23.9121 12.0541 23.7557 11.8985L14.5953 2.73814C14.4375 2.58287 14.2241 2.49717 14.0027 2.50007ZM14.0141 4.49478L22.0007 12.4862L15.1182 19.3671L7.12999 11.3788L14.0141 4.49478ZM5.95783 12.551L13.9493 20.5376L11.6956 22.7913H8.26816L1.99609 16.5127L5.95783 12.551Z" fill="white"/>
</g>
<defs>
<clipPath id="clip0">
<path d="M0 0.5H24V24.5H0V0.5Z" fill="white"/>
</clipPath>
</defs>
</svg>
