<svg width="220" height="171" viewBox="0 0 220 171" fill="none" xmlns="http://www.w3.org/2000/svg">
<path d="M35.9292 145.433L27.1191 94.615C24.6805 77.6053 -1.98137 81.8594 1.04353 99.2865C3.15389 111.442 4.51588 123.94 5.86672 136.336C10.5406 179.224 15.0811 220.889 50.0261 242.933C122.115 288.4 169.892 236.77 195.349 171.793L195.43 171.823L218.141 109.424C224.702 91.399 199.904 82.368 193.342 100.398C188.71 113.124 184.667 124.214 180.547 135.517C178.094 142.244 175.615 149.046 172.967 156.313C169.276 164.706 157.386 159.515 160.315 151.469L166.932 133.288C167.024 133.037 167.109 132.787 167.189 132.54L193.079 61.4066C199.64 43.3819 174.842 34.3509 168.28 52.3805C163.224 66.273 155.988 86.1324 149.262 104.591L148.931 105.499C146.492 112.193 144.127 118.686 141.964 124.623C138.194 132.792 126.473 127.616 129.383 119.621L163.722 25.2738C170.283 7.2491 145.485 -1.78185 138.923 16.2477C134.278 29.0112 129.626 41.7728 124.973 54.5344L124.943 54.6187C120.29 67.3803 115.638 80.1419 110.993 92.9054C107.687 101.083 95.3505 96.2856 98.352 88.0491L122.992 20.3513C130.101 0.820347 104.897 -7.0989 98.4736 10.549L48.9599 146.544C46.5973 153.007 37.1297 152.284 35.9292 145.433Z" fill="white"/>
</svg>
