<svg width="220" height="171" viewBox="0 0 220 171" fill="none" xmlns="http://www.w3.org/2000/svg">
<path d="M184.11 145.433L192.92 94.615C195.359 77.6052 222.02 81.8593 218.996 99.2864C216.885 111.442 215.523 123.94 214.172 136.336C209.498 179.224 204.958 220.889 170.013 242.933C97.9237 288.4 50.1466 236.77 24.6896 171.793L24.609 171.823L1.89761 109.424C-4.66284 91.399 20.1346 82.368 26.6968 100.398C31.3288 113.124 35.3716 124.214 39.4925 135.517C41.9446 142.244 44.4243 149.046 47.0723 156.313C50.763 164.706 62.6527 159.515 59.724 151.469L53.1067 133.288C53.0153 133.037 52.9298 132.787 52.8501 132.54L26.9596 61.4066C20.3992 43.3819 45.1966 34.3509 51.7588 52.3804C56.8153 66.2729 64.0513 86.1323 70.7768 104.591L71.1076 105.499C73.5467 112.193 75.9124 118.685 78.0755 124.623C81.8451 132.792 93.5662 127.616 90.6563 119.621L56.3167 25.2738C49.7562 7.24905 74.5536 -1.78189 81.1158 16.2476C85.7613 29.0112 90.4135 41.7728 95.0657 54.5343L95.0965 54.6187C99.7486 67.3803 104.401 80.1418 109.046 92.9054C112.352 101.083 124.689 96.2856 121.687 88.0491L97.0471 20.3512C89.9384 0.820301 115.142 -7.09894 121.565 10.549L171.079 146.544C173.442 153.007 182.909 152.284 184.11 145.433Z" fill="white"/>
</svg>
