<svg width="18" height="22" viewBox="0 0 18 22" fill="none" xmlns="http://www.w3.org/2000/svg">
<path d="M14.827 12.5146L15.5436 8.4448C15.7424 7.08267 17.8862 7.41905 17.6402 8.81469C17.4685 9.78819 17.357 10.7889 17.2464 11.7815C16.8637 15.2158 16.492 18.552 13.6778 20.3223C7.87242 23.9736 4.03773 19.8478 2.0004 14.6499L1.99388 14.6523L0.176974 9.66036C-0.347863 8.21839 1.64806 7.49149 2.17304 8.93386C2.54357 9.95189 2.86698 10.839 3.19663 11.7432C3.39279 12.2813 3.59116 12.8254 3.80298 13.4068C4.09836 14.0786 5.0558 13.6611 4.82148 13.0173L4.29209 11.5628C4.28478 11.5427 4.27795 11.5228 4.27157 11.503L2.20033 5.8123C1.67549 4.37033 3.67141 3.64344 4.19639 5.0858C4.60032 6.19559 5.17812 7.78136 5.71551 9.25623L6.30174 10.8652C6.60366 11.5186 7.54721 11.1024 7.31442 10.4628L4.56725 2.91501C4.04242 1.47303 6.03833 0.746143 6.56331 2.18851C6.93473 3.20897 7.30668 4.22928 7.67863 5.24958L7.68054 5.25481C8.05313 6.27686 8.42572 7.29891 8.79777 8.32112C9.06234 8.97525 10.0554 8.58927 9.81525 7.93035L7.84405 2.51452C7.27535 0.95205 9.30378 0.314096 9.81765 1.72593L13.7788 12.6055C13.9678 13.1225 14.7294 13.0632 14.827 12.5146Z" fill="white" fill-opacity="0.7"/>
</svg>
