<svg width="116" height="16" viewBox="0 0 116 16" fill="none" xmlns="http://www.w3.org/2000/svg">
<path d="M91.9134 9.99079C91.9134 6.68134 89.2302 3.99631 85.9189 3.99631C82.6076 3.99631 79.9263 6.6795 79.9263 9.99079C79.9263 13.3002 82.6095 15.9853 85.9208 15.9853C87.4579 15.9853 88.8555 15.4012 89.9171 14.4499V14.9862C89.9171 15.5371 90.3652 15.9853 90.9162 15.9853C91.4671 15.9853 91.9152 15.5371 91.9152 14.9862V10.4885C91.9134 10.4316 91.9134 10.1028 91.9134 9.99079ZM85.9208 13.9853C83.7132 13.9853 81.9244 12.1965 81.9244 9.98895C81.9244 7.78143 83.7132 5.99264 85.9208 5.99264C88.1283 5.99264 89.9171 7.78143 89.9171 9.98895C89.9171 12.1965 88.1264 13.9853 85.9208 13.9853Z" fill="white"/>
<path d="M14.9843 9.99079C14.9843 7.13313 16.9862 4.74746 19.662 4.14691C19.7465 4.12487 19.8328 4.11018 19.9228 4.11018C20.4738 4.11018 20.9219 4.5583 20.9219 5.10926C20.9219 5.57207 20.6042 5.96325 20.1781 6.07528C18.3544 6.44626 16.9843 8.05874 16.9843 9.99079V15.0247C16.9843 15.5537 16.5546 15.9834 16.0257 15.9834H15.9449C15.4159 15.9834 14.9862 15.5537 14.9862 15.0247L14.9843 9.99079Z" fill="white"/>
<path d="M53.8235 2.4977C54.5132 2.4977 55.0724 1.93857 55.0724 1.24885C55.0724 0.559128 54.5132 0 53.8235 0C53.1338 0 52.5747 0.559128 52.5747 1.24885C52.5747 1.93857 53.1338 2.4977 53.8235 2.4977Z" fill="white"/>
<path d="M53.8235 15.9834C53.2726 15.9834 52.8244 15.5353 52.8244 14.9843V4.99539C52.8244 4.44443 53.2726 3.99631 53.8235 3.99631C54.3745 3.99631 54.8226 4.44443 54.8226 4.99539V14.9843C54.8226 15.5371 54.3745 15.9834 53.8235 15.9834Z" fill="white"/>
<path d="M58.9438 15.0247C58.9438 15.5537 59.3736 15.9834 59.9025 15.9834H59.9833C60.5122 15.9834 60.942 15.5537 60.942 15.0247V8.99171C60.942 7.33698 62.2845 5.99447 63.9392 5.99447C65.5939 5.99447 66.9364 7.33698 66.9364 8.99171H68.9346C68.9346 6.23322 66.6977 3.99631 63.9392 3.99631C61.1807 3.99631 58.9438 6.23322 58.9438 8.99171V15.0247Z" fill="white"/>
<path d="M66.9364 15.0247C66.9364 15.5537 67.3662 15.9834 67.8951 15.9834H67.9759C68.5048 15.9834 68.9346 15.5537 68.9346 15.0247V8.99171C68.9346 7.33698 70.2771 5.99447 71.9318 5.99447C73.5865 5.99447 74.9291 7.33698 74.9291 8.99171V15.0247C74.9291 15.5537 75.3588 15.9834 75.8877 15.9834H75.9667C76.4956 15.9834 76.9254 15.5537 76.9254 15.0247V8.99171C76.9254 6.23322 74.6885 3.99631 71.93 3.99631C69.1715 3.99631 66.9346 6.23322 66.9346 8.99171L66.9364 15.0247Z" fill="white"/>
<path d="M95.6489 10.0753C95.6232 12.9329 97.6012 15.337 100.271 15.9614C100.354 15.9853 100.442 15.9999 100.532 15.9999C101.083 16.0055 101.535 15.561 101.541 15.0101C101.544 14.5472 101.232 14.1542 100.804 14.0367C98.9841 13.6492 97.6269 12.0238 97.6452 10.0918L97.715 2.56014C97.7205 2.03121 97.2945 1.59779 96.7655 1.59228H96.6847C96.1558 1.58677 95.7224 2.01285 95.7169 2.54177L95.6489 10.0753Z" fill="white"/>
<path d="M99.9299 6.49217C100.62 6.49217 101.179 5.93305 101.179 5.24333C101.179 4.55361 100.62 3.99448 99.9299 3.99448C99.2402 3.99448 98.681 4.55361 98.681 5.24333C98.681 5.93305 99.2402 6.49217 99.9299 6.49217Z" fill="white"/>
<path d="M115.891 9.97609C115.891 9.88427 115.888 9.79244 115.882 9.69694C115.717 6.79704 113.465 4.35077 110.578 4.03121C106.962 3.63268 103.902 6.45177 103.902 9.98711C103.902 13.3737 106.712 16.1083 110.126 15.9816C110.148 15.9834 110.17 15.9816 110.192 15.9816C110.743 15.9816 111.192 15.5335 111.192 14.9825C111.192 14.4315 110.743 13.9834 110.192 13.9834C110.189 13.9834 110.187 13.9834 110.183 13.9834C110.183 13.9834 109.992 13.9834 109.893 13.9834C107.425 13.9834 105.478 11.7447 105.976 9.18638C106.279 7.62899 107.535 6.3728 109.092 6.06977C111.293 5.64186 113.252 7.02293 113.759 8.98803H110.395C109.844 8.98803 109.395 9.43615 109.395 9.98711C109.395 10.5381 109.844 11.0027 110.395 11.0027L114.889 10.9862C115.439 10.9862 115.888 10.5381 115.888 9.98711V9.9816C115.891 9.97977 115.891 9.97609 115.891 9.97609Z" fill="white"/>
<path d="M34.4664 9.99079C34.4664 6.68134 31.7832 3.99631 28.4719 3.99631C25.1606 3.99631 22.4793 6.6795 22.4793 9.99079C22.4793 13.3002 25.1625 15.9853 28.4737 15.9853C30.0109 15.9853 31.4085 15.4012 32.4701 14.4499V14.9862C32.4701 15.5371 32.9182 15.9853 33.4691 15.9853C34.0201 15.9853 34.4682 15.5371 34.4682 14.9862V10.4885C34.4664 10.4316 34.4664 10.1028 34.4664 9.99079ZM28.4737 13.9853C26.2662 13.9853 24.4774 12.1965 24.4774 9.98895C24.4774 7.78143 26.2662 5.99264 28.4737 5.99264C30.6813 5.99264 32.4701 7.78143 32.4701 9.98895C32.4701 12.1965 30.6794 13.9853 28.4737 13.9853Z" fill="white"/>
<path d="M37.9632 15.0247C37.9632 15.5537 38.3929 15.9834 38.9218 15.9834H39.0026C39.5316 15.9834 39.9613 15.5537 39.9613 15.0247V9.49125C39.9613 7.56104 41.526 5.99447 43.4581 5.99447C45.3883 5.99447 46.9549 7.5592 46.9549 9.49125V15.0247C46.9549 15.5537 47.3846 15.9834 47.9135 15.9834H47.9943C48.5233 15.9834 48.953 15.5537 48.953 15.0247V9.49125C48.953 6.45728 46.4939 3.99631 43.4581 3.99631C40.4223 3.99631 37.9632 6.45544 37.9632 9.49125V15.0247Z" fill="white"/>
<path d="M11.0284 3.99631H10.9476C10.4187 3.99631 9.98895 4.42606 9.98895 4.95499V5.53166C8.92743 4.58033 7.52982 3.99631 5.99263 3.99631C2.68319 3.99631 0 6.6795 0 9.99079C0 13.3002 2.68319 15.9853 5.99447 15.9853C9.27821 15.9853 11.9412 13.3443 11.9834 10.0698C11.9834 10.0569 11.9871 10.044 11.9871 10.0294V4.95499C11.9871 4.42606 11.5592 3.99631 11.0284 3.99631ZM5.99447 13.9853C3.78695 13.9853 1.99816 12.1965 1.99816 9.98895C1.99816 7.78143 3.78695 5.99264 5.99447 5.99264C8.20199 5.99264 9.99079 7.78143 9.99079 9.98895C9.99079 12.1965 8.20016 13.9853 5.99447 13.9853Z" fill="white"/>
<path d="M10.988 2.4977C11.6777 2.4977 12.2369 1.93857 12.2369 1.24885C12.2369 0.559128 11.6777 0 10.988 0C10.2983 0 9.73918 0.559128 9.73918 1.24885C9.73918 1.93857 10.2983 2.4977 10.988 2.4977Z" fill="white"/>
</svg>
