<svg width="48" height="48" viewBox="0 0 48 48" fill="none" xmlns="http://www.w3.org/2000/svg">
<g clip-path="url(#clip0)">
<path d="M15.4844 24.9722L30.0444 24.9722L24.0604 30.5082C23.9651 30.5905 23.8876 30.6913 23.8325 30.8044C23.7774 30.9176 23.7459 31.0408 23.7399 31.1665C23.734 31.2922 23.7536 31.4178 23.7977 31.5357C23.8418 31.6536 23.9094 31.7613 23.9964 31.8522C24.1673 32.0369 24.404 32.1471 24.6553 32.1591C24.9067 32.1711 25.1527 32.0838 25.3404 31.9162L33.1484 24.7162C33.2499 24.6291 33.3313 24.5211 33.3871 24.3996C33.4429 24.2781 33.4718 24.1459 33.4718 24.0122C33.4718 23.8785 33.4429 23.7464 33.3871 23.6249C33.3313 23.5034 33.2499 23.3953 33.1484 23.3082L25.3404 16.1082C25.1631 15.9515 24.9369 15.861 24.7004 15.8522C24.5666 15.8496 24.4339 15.877 24.3121 15.9324C24.1903 15.9877 24.0824 16.0697 23.9964 16.1722C23.9094 16.2632 23.8418 16.3708 23.7977 16.4887C23.7536 16.6066 23.734 16.7322 23.7399 16.858C23.7459 16.9837 23.7774 17.1069 23.8325 17.22C23.8876 17.3332 23.9651 17.434 24.0604 17.5162L30.0444 23.0522L15.4844 23.0522C15.2298 23.0522 14.9856 23.1534 14.8056 23.3334C14.6256 23.5134 14.5244 23.7576 14.5244 24.0122C14.5244 24.2668 14.6256 24.511 14.8056 24.691C14.9856 24.8711 15.2298 24.9722 15.4844 24.9722Z" fill="black" fill-opacity="0.6"/>
</g>
<defs>
<clipPath id="clip0">
<path d="M0 0H48V48H0V0Z" fill="white"/>
</clipPath>
</defs>
</svg>
