<svg width="24" height="24" viewBox="0 0 24 24" fill="none" xmlns="http://www.w3.org/2000/svg">
<g clip-path="url(#clip0)">
<path fill-rule="evenodd" clip-rule="evenodd" d="M9.90436 20.9298C9.97847 20.9672 10.0664 21.0145 10.1536 21.1016L10.2269 21.1741C11.1471 21.8158 12.2873 22.1701 13.5903 22.2051C16.5815 22.2051 19.0385 19.8808 19.1802 16.9124V6.19749C19.1802 5.8359 18.8724 5.52969 18.5084 5.52969H18.4326C18.0279 5.51422 17.8715 5.5248 17.8414 6.09243C17.8381 6.20645 17.8373 10.7149 17.8373 11.1082C17.8373 11.548 17.4912 11.8933 17.0498 11.8933C16.6084 11.8933 16.2623 11.548 16.2623 11.1082V3.69732C16.2623 3.33492 15.9544 3.02871 15.5904 3.02871C15.1531 3.02871 14.9446 3.08734 14.921 3.6281C14.9202 3.70953 14.9194 10.2173 14.9194 10.2369C14.9194 10.6766 14.5732 11.0219 14.1319 11.0219C13.6905 11.0219 13.3443 10.6766 13.3443 10.2369V2.09786C13.3443 1.73627 13.0365 1.43006 12.6725 1.43006C12.3312 1.43006 12.0307 1.70695 12.003 2.04655C12.0022 2.14835 12.0014 8.389 12.0014 9.23841V9.36546C12.0014 9.80522 11.6553 10.1505 11.2139 10.1505C10.7725 10.1505 10.4264 9.80522 10.4264 9.36546V4.36593C10.4264 4.00353 10.1194 3.69732 9.75452 3.69732C9.39049 3.69732 9.08346 4.00353 9.08346 4.36593V13.7974C9.08346 14.1402 8.8481 14.4383 8.49792 14.5384C8.09317 14.5963 7.73402 14.4122 7.59802 14.0954L5.85034 10.4331C5.73633 10.0951 5.34542 9.9168 5.00419 10.03C4.68007 10.1652 4.50986 10.526 4.62306 10.8631L8.77155 19.6699C9.05903 20.1113 9.43365 20.5307 9.90436 20.9298ZM13.6578 24C12.1195 24 10.6397 23.5252 9.3758 22.6253C9.3253 22.6058 9.28133 22.5675 9.24631 22.5105C9.21781 22.4966 9.17627 22.4755 9.13474 22.4356C8.52395 21.938 7.98808 21.3467 7.51166 20.6407L7.47746 20.5828C7.46606 20.5649 7.45547 20.5413 7.44814 20.5152L3.15388 11.5391C2.93073 10.9592 2.95191 10.3476 3.20681 9.80278C3.46334 9.25633 3.92103 8.84669 4.4968 8.65042C4.73053 8.57306 5.01149 8.52908 5.26803 8.52908C6.18747 8.52908 7.05886 9.12684 7.38869 9.98276L7.62568 10.4518V4.41317C7.62568 3.20706 8.65425 2.18826 9.87094 2.18826C10.2415 2.18826 10.5054 2.24608 10.6861 2.31205C10.7774 1.36654 11.2635 0 12.6724 0C14.4478 0 14.6433 0.942246 14.8004 1.69963C14.8012 1.70207 14.8012 1.7037 14.8021 1.70533C15.0879 1.57747 15.4055 1.5115 15.737 1.5115C17.5514 1.5115 17.6777 3.15982 17.7453 4.04506C17.7501 4.10696 17.755 4.16641 17.7599 4.22178C18.0384 4.10288 18.3479 4.04099 18.6696 4.04099C19.9083 4.04099 20.9149 5.0378 20.9149 6.26427V17.1461C20.7609 20.9925 17.5734 24 13.6578 24Z" fill="white" fill-opacity="0.7"/>
</g>
<defs>
<clipPath id="clip0">
<path d="M0 0H24V24H0V0Z" fill="white"/>
</clipPath>
</defs>
</svg>
