<svg width="48" height="48" viewBox="0 0 48 48" fill="none" xmlns="http://www.w3.org/2000/svg">
<g clip-path="url(#clip0)">
<path fill-rule="evenodd" clip-rule="evenodd" d="M24 34C29.5228 34 34 29.5228 34 24C34 18.4772 29.5228 14 24 14C18.4772 14 14 18.4772 14 24C14 29.5228 18.4772 34 24 34ZM24 36C30.6274 36 36 30.6274 36 24C36 17.3726 30.6274 12 24 12C17.3726 12 12 17.3726 12 24C12 30.6274 17.3726 36 24 36Z" fill="white" fill-opacity="0.7"/>
<path fill-rule="evenodd" clip-rule="evenodd" d="M25.4076 18.2088C24.9888 18.1143 24.5649 18.0446 24.138 18C23.3823 18.0176 22.6395 18.1994 21.9612 18.5328C21.3014 18.8365 20.7702 19.3635 20.4612 20.0208C20.166 20.6952 20.4756 21.2808 21.1956 21.4008C21.6097 21.475 22.0262 21.2834 22.2396 20.9208C22.7388 20.1696 23.454 19.9488 24.3036 20.004C25.0068 20.0496 25.4436 20.4864 25.3884 21.1656C25.3671 21.4141 25.269 21.6498 25.1076 21.84C24.769 22.186 24.4056 22.5068 24.0204 22.8C23.1298 23.4493 22.6177 24.4968 22.6524 25.5984C22.6555 25.7735 22.7043 25.9448 22.794 26.0952C23.0754 26.4878 23.5864 26.6407 24.0372 26.4672C24.4608 26.344 24.7459 25.948 24.7284 25.5072C24.6946 24.9031 24.9855 24.3268 25.4916 23.9952C25.6461 23.8785 25.8036 23.7657 25.9611 23.6528C26.1534 23.515 26.3458 23.3771 26.5332 23.232C27.2527 22.7068 27.6378 21.8379 27.5436 20.952C27.4476 19.5936 26.6868 18.5712 25.4076 18.2088ZM23.6724 30C24.4284 30 24.8604 29.5416 24.8556 28.7712C24.9372 27.9264 24.2604 27.528 23.61 27.5472C22.8108 27.5712 22.41 28.0176 22.41 28.9128C22.4124 29.5584 22.9164 30 23.6724 30Z" fill="white" fill-opacity="0.7"/>
</g>
<defs>
<clipPath id="clip0">
<path d="M0 0H48V48H0V0Z" fill="white"/>
</clipPath>
</defs>
</svg>
