<svg width="48" height="48" viewBox="0 0 48 48" fill="none" xmlns="http://www.w3.org/2000/svg">
<g clip-path="url(#clip0)">
<path fill-rule="evenodd" clip-rule="evenodd" d="M35.6314 24.3595L33.559 26.3019L33.4887 26.368L33.4673 26.3873C33.4474 26.4054 33.4272 26.4237 33.4072 26.4383C33.3956 26.4496 33.384 26.4577 33.3723 26.4651C33.2908 26.5234 33.2054 26.5704 33.1162 26.605C32.9842 26.6555 32.8445 26.6826 32.7009 26.6826C32.6741 26.6826 32.6431 26.6826 32.612 26.6784C32.6013 26.677 32.5906 26.6762 32.5799 26.6753C32.5596 26.6736 32.5392 26.6719 32.5189 26.6671C32.449 26.6555 32.3796 26.6399 32.3132 26.6166C32.2917 26.6095 32.2718 26.6008 32.2524 26.5925C32.2402 26.5872 32.2281 26.582 32.2162 26.5774C32.0803 26.5195 31.9523 26.4297 31.8436 26.3132L29.8371 24.1649C29.3986 23.6987 29.4222 22.9606 29.8918 22.5178C30.3614 22.0788 31.0949 22.106 31.5331 22.5683C31.5253 22.5139 31.5176 22.4595 31.5063 22.4051C31.4865 22.2924 31.4636 22.1837 31.4361 22.071C31.4093 21.9467 31.3783 21.8224 31.3429 21.7019C31.3145 21.5868 31.2788 21.4749 31.2431 21.3634L31.2347 21.3368C31.192 21.2008 31.1454 21.0648 31.0911 20.9328C30.9669 20.5909 30.8155 20.2646 30.6447 19.946C30.4701 19.6119 30.2722 19.2895 30.0513 18.9826C29.9931 18.8971 29.9306 18.8117 29.8612 18.7262C29.6939 18.5048 29.5119 18.2911 29.3213 18.0852C29.2398 17.9997 29.1583 17.9182 29.0768 17.8366C28.8909 17.654 28.7004 17.4792 28.4989 17.3121C28.3938 17.2228 28.2851 17.1373 28.1725 17.0557C27.9323 16.877 27.6835 16.71 27.4274 16.5546L27.3713 16.5221C27.288 16.4737 27.2027 16.4241 27.1169 16.3798C27.0199 16.3254 26.9267 16.2749 26.8258 16.2283C26.7715 16.2011 26.7172 16.1739 26.6628 16.1506C26.5891 16.1156 26.5154 16.0806 26.4377 16.0496C26.2829 15.9796 26.1273 15.9175 25.9642 15.8592L25.731 15.7776C25.6538 15.7504 25.5723 15.7232 25.4908 15.6999C25.3739 15.665 25.254 15.63 25.1333 15.5989C24.9664 15.5562 24.7918 15.5173 24.6214 15.4863C24.5205 15.4668 24.4235 15.4513 24.3222 15.4358C24.2756 15.4241 24.2294 15.4202 24.1786 15.4163C24.1216 15.4064 24.0642 15.3996 24.0079 15.3929C23.9764 15.3892 23.9453 15.3856 23.9147 15.3814C23.806 15.3697 23.6935 15.3581 23.5848 15.3542C23.499 15.3464 23.4175 15.3425 23.3325 15.3386C23.22 15.3348 23.1036 15.3309 22.991 15.3309H22.9794C22.8319 15.3309 22.6883 15.3348 22.5447 15.3425C22.3972 15.3503 22.2497 15.362 22.1061 15.3775C21.9742 15.3892 21.8422 15.4047 21.7103 15.428C21.5938 15.4435 21.4813 15.463 21.3687 15.4863C21.2795 15.5018 21.1941 15.5173 21.1087 15.5368C21.054 15.5484 21.0035 15.5601 20.957 15.5717C20.8755 15.5912 20.7979 15.6106 20.7206 15.6339C20.6659 15.6455 20.6154 15.6611 20.5654 15.6766C20.5305 15.6863 20.4965 15.697 20.4625 15.7077C20.4286 15.7184 20.3946 15.7291 20.3597 15.7388C20.2433 15.7737 20.1307 15.8126 20.0182 15.8592C19.8901 15.9019 19.762 15.9524 19.6339 16.0107C19.4865 16.069 19.3429 16.135 19.1997 16.205C18.8463 16.3797 18.5051 16.578 18.1786 16.7916C18.1708 16.7993 18.1591 16.8071 18.1518 16.811C18.0354 16.8887 17.9228 16.9664 17.8103 17.0557C17.7711 17.0829 17.7326 17.1101 17.6977 17.1412C17.6843 17.1518 17.6713 17.1628 17.6586 17.1733C17.6342 17.1935 17.6104 17.2131 17.5849 17.231L17.5809 17.2305C17.5787 17.2328 17.5777 17.2337 17.5766 17.2341C17.5757 17.2344 17.5748 17.2344 17.5731 17.2344C17.48 17.3082 17.3868 17.3859 17.2976 17.4675C17.3209 17.452 17.3441 17.4326 17.3674 17.4131C15.5084 19.002 14.3286 21.364 14.3286 24.0017C14.3286 28.7801 18.2139 32.6691 22.991 32.6691C23.6353 32.6691 24.1553 33.1936 24.1553 33.8346C24.1553 34.479 23.6353 35 22.991 35C16.9289 35 12 30.0663 12 24.0017C12 20.7579 13.4088 17.8366 15.6447 15.8204C15.697 15.7757 15.7494 15.73 15.8018 15.6844C15.8542 15.6387 15.9066 15.5931 15.959 15.5484C15.9784 15.5368 15.9939 15.5212 16.0095 15.5057C16.1065 15.428 16.2074 15.3503 16.3087 15.2726C16.7628 14.923 17.2479 14.6044 17.7559 14.3286C17.9112 14.247 18.0707 14.1654 18.2298 14.0877C18.5247 13.944 18.8232 13.8158 19.1298 13.7031C19.2035 13.6721 19.2815 13.6449 19.3549 13.6216C19.4756 13.575 19.5994 13.5361 19.7275 13.4973C19.8672 13.4506 20.0108 13.4118 20.1548 13.3729C20.2064 13.3567 20.2611 13.3431 20.3139 13.33L20.3446 13.3224C20.4881 13.2875 20.6317 13.2525 20.7792 13.2253C20.9578 13.1865 21.1363 13.1554 21.3191 13.1282C21.486 13.101 21.6524 13.0816 21.8236 13.066C21.8469 13.0583 21.8702 13.0583 21.8935 13.0583C22.0681 13.0388 22.2466 13.0233 22.4252 13.0155C22.6111 13.0039 22.7939 13 22.9801 13H23.0151C23.1897 13 23.3644 13.0039 23.5394 13.0155C23.5549 13.0155 23.5704 13.0155 23.586 13.0194C23.7451 13.0233 23.9038 13.035 24.0629 13.0544C24.094 13.0544 24.125 13.0583 24.1561 13.0622C24.2842 13.0738 24.4122 13.0894 24.5364 13.1127C24.9245 13.1632 25.3045 13.237 25.6809 13.3341C25.809 13.3652 25.9332 13.4001 26.0578 13.439C26.1587 13.4662 26.2557 13.4973 26.3566 13.5322C26.4808 13.5672 26.605 13.6099 26.7253 13.6526C26.7414 13.6585 26.758 13.6649 26.775 13.6715C26.803 13.6823 26.8319 13.6935 26.8611 13.7031C26.8995 13.7185 26.9378 13.7335 26.9759 13.7484C27.0733 13.7866 27.17 13.8244 27.2648 13.8663C27.432 13.9362 27.595 14.01 27.7538 14.0877C27.8861 14.1499 28.0181 14.2198 28.15 14.2897L28.3014 14.3713C28.4333 14.4451 28.5614 14.519 28.6856 14.5967C28.8176 14.6743 28.9495 14.7559 29.0737 14.8453L29.1669 14.9036C29.3027 14.9968 29.4343 15.09 29.5627 15.1871C29.7024 15.292 29.8425 15.4008 29.978 15.5135C30.3622 15.832 30.7231 16.1739 31.0569 16.5352C31.1617 16.6478 31.2665 16.7644 31.3635 16.8848C31.445 16.978 31.5226 17.0752 31.5999 17.1723C31.6334 17.2089 31.6621 17.2479 31.6898 17.2855L31.7124 17.316C31.79 17.4131 31.8642 17.5141 31.9336 17.6151C31.9421 17.6236 31.9485 17.6341 31.9543 17.6437C31.9565 17.6473 31.9587 17.6508 31.9608 17.654C32.0497 17.7783 32.135 17.9065 32.2165 18.0347C32.3058 18.1668 32.3873 18.3027 32.4688 18.4426C32.5464 18.5747 32.6241 18.7145 32.6978 18.8505C32.7059 18.8583 32.7133 18.8699 32.7133 18.8816C32.768 18.9826 32.8185 19.0836 32.8686 19.1846C33.0199 19.4876 33.1515 19.7984 33.2722 20.1208C33.3265 20.2646 33.377 20.4083 33.4235 20.552C33.4934 20.7424 33.5516 20.9366 33.6021 21.1348C33.6331 21.2552 33.6642 21.3757 33.6913 21.4961L33.6939 21.5048C33.7043 21.5407 33.7149 21.5769 33.7181 21.6165C33.7453 21.7291 33.7686 21.8418 33.7884 21.9545C33.8039 22.0127 33.8151 22.0749 33.8194 22.137C33.8388 22.2342 33.8543 22.3313 33.8656 22.4284C33.8854 22.5216 33.8966 22.6149 33.9048 22.712C33.9087 22.7275 33.9087 22.7431 33.9087 22.7586V22.7601C33.9117 22.7642 33.9117 22.7713 33.9117 22.7784M33.9117 22.7784C33.915 22.803 33.9182 22.8277 33.9213 22.8525C33.9262 22.8876 33.9299 22.9228 33.9323 22.9567C33.9281 22.8946 33.9198 22.8367 33.9117 22.7784L34.0406 22.6576C34.5102 22.2186 35.2476 22.2419 35.6862 22.712C36.1247 23.1821 36.101 23.9206 35.6314 24.3595" fill="white" fill-opacity="0.2"/>
<path d="M30.6447 19.946C30.466 19.6119 30.2685 19.2895 30.0513 18.9826C30.2722 19.2895 30.4701 19.6119 30.6447 19.946Z" fill="white" fill-opacity="0.2"/>
<path d="M31.0911 20.9328C30.9629 20.5948 30.8118 20.2646 30.6447 19.946C30.8155 20.2646 30.9669 20.5909 31.0911 20.9328Z" fill="white" fill-opacity="0.2"/>
</g>
<defs>
<clipPath id="clip0">
<path d="M0 0H48V48H0V0Z" fill="white"/>
</clipPath>
</defs>
</svg>
