<svg width="18" height="22" viewBox="0 0 18 22" fill="none" xmlns="http://www.w3.org/2000/svg">
<path d="M3.17656 11.8624L2.45996 7.79261C2.26114 6.43048 0.117347 6.76686 0.363385 8.1625C0.535036 9.136 0.646547 10.1367 0.757146 11.1293C1.13982 14.5636 1.51157 17.8998 4.32572 19.6701C10.1311 23.3214 13.9658 19.1956 16.0032 13.9978L16.0096 14.0001L16.1856 13.5166C16.1919 13.4994 16.1981 13.4823 16.2044 13.4651C16.2061 13.4605 16.2077 13.4559 16.2094 13.4512L17.8265 9.00819C18.3513 7.56621 16.3554 6.83932 15.8304 8.28168C15.4599 9.29972 15.1365 10.1868 14.8068 11.0911C14.6106 11.6295 14.4121 12.174 14.2001 12.7558C13.9041 13.4259 12.9479 13.0085 13.1821 12.3651L13.7115 10.9106C13.719 10.8898 13.7261 10.8692 13.7327 10.8487L15.8031 5.16013C16.328 3.71815 14.3321 2.99126 13.8071 4.43362C13.4031 5.54342 12.8254 7.12918 12.288 8.60406L11.7014 10.2139C11.399 10.866 10.4565 10.4499 10.6891 9.81059L13.4363 2.26282C13.9611 0.820842 11.9652 0.0939523 11.4403 1.53632C11.0688 2.55678 10.6969 3.57709 10.3249 4.59739L10.323 4.60262C9.95044 5.62467 9.57785 6.64672 9.20579 7.66893C8.94122 8.32306 7.9482 7.93708 8.18832 7.27816L10.1595 1.86233C10.7282 0.299859 8.69978 -0.338095 8.18591 1.07374L4.22481 11.9533C4.03581 12.4704 3.27419 12.411 3.17656 11.8624Z" fill="white" fill-opacity="0.7"/>
</svg>
