<svg width="24" height="24" viewBox="0 0 24 24" fill="none" xmlns="http://www.w3.org/2000/svg">
<circle cx="12" cy="12" r="11" stroke="white" stroke-width="2"/>
<path d="M11.9745 17.1392C14.2615 17.1392 15.8971 15.8814 15.8921 14.1413C15.8971 12.8736 15.0917 11.9688 13.5953 11.7798V11.7003C14.7338 11.4964 15.5193 10.6911 15.5143 9.54758C15.5193 7.94176 14.1123 6.67898 12.0044 6.67898C9.91628 6.67898 8.34526 7.90199 8.31543 9.66193H10.3786C10.4035 8.88636 11.1144 8.38423 11.9944 8.38423C12.8644 8.38423 13.4461 8.91122 13.4411 9.67685C13.4461 10.4773 12.765 11.0192 11.7856 11.0192H10.836V12.6001H11.7856C12.939 12.6001 13.6599 13.1768 13.6549 13.9972C13.6599 14.8075 12.9639 15.3643 11.9795 15.3643C11.0299 15.3643 10.319 14.8672 10.2792 14.1214H8.11159C8.1464 15.9013 9.7373 17.1392 11.9745 17.1392Z" fill="white"/>
</svg>
