<svg width="48" height="48" viewBox="0 0 48 48" fill="none" xmlns="http://www.w3.org/2000/svg">
<g clip-path="url(#clip0)">
<path fill-rule="evenodd" clip-rule="evenodd" d="M12.3686 24.3595L14.441 26.3019L14.5113 26.368L14.5327 26.3873C14.5526 26.4054 14.5728 26.4237 14.5928 26.4383C14.6044 26.4496 14.616 26.4577 14.6277 26.4651C14.7092 26.5234 14.7946 26.5704 14.8838 26.605C15.0158 26.6555 15.1555 26.6826 15.2991 26.6826C15.3259 26.6826 15.3569 26.6826 15.388 26.6784C15.3987 26.677 15.4094 26.6762 15.4201 26.6753C15.4404 26.6736 15.4608 26.6719 15.4811 26.6671C15.551 26.6555 15.6204 26.6399 15.6868 26.6166C15.7083 26.6095 15.7282 26.6008 15.7476 26.5925C15.7598 26.5872 15.7719 26.582 15.7838 26.5774C15.9197 26.5195 16.0477 26.4297 16.1564 26.3132L18.1629 24.1649C18.6014 23.6987 18.5778 22.9606 18.1082 22.5178C17.6386 22.0788 16.9051 22.106 16.4669 22.5683C16.4747 22.5139 16.4824 22.4595 16.4937 22.4051C16.5135 22.2924 16.5364 22.1837 16.5639 22.071C16.5907 21.9467 16.6217 21.8224 16.6571 21.7019C16.6855 21.5868 16.7212 21.4749 16.7569 21.3634L16.7653 21.3368C16.808 21.2008 16.8546 21.0648 16.9089 20.9328C17.0331 20.5909 17.1845 20.2646 17.3553 19.946C17.5299 19.6119 17.7278 19.2895 17.9487 18.9826C18.0069 18.8971 18.0694 18.8117 18.1388 18.7262C18.3061 18.5048 18.4881 18.2911 18.6787 18.0852C18.7602 17.9997 18.8417 17.9182 18.9232 17.8366C19.1091 17.654 19.2996 17.4792 19.5011 17.3121C19.6062 17.2228 19.7149 17.1373 19.8275 17.0557C20.0677 16.877 20.3165 16.71 20.5726 16.5546L20.6287 16.5221C20.712 16.4737 20.7973 16.4241 20.8831 16.3798C20.9801 16.3254 21.0733 16.2749 21.1742 16.2283C21.2285 16.2011 21.2828 16.1739 21.3372 16.1506C21.4109 16.1156 21.4846 16.0806 21.5623 16.0496C21.7171 15.9796 21.8727 15.9175 22.0358 15.8592L22.269 15.7776C22.3462 15.7504 22.4277 15.7232 22.5092 15.6999C22.6261 15.665 22.746 15.63 22.8667 15.5989C23.0336 15.5562 23.2082 15.5173 23.3786 15.4863C23.4795 15.4668 23.5765 15.4513 23.6778 15.4358C23.7244 15.4241 23.7706 15.4202 23.8214 15.4163C23.8784 15.4064 23.9358 15.3996 23.9921 15.3929C24.0236 15.3892 24.0547 15.3856 24.0853 15.3814C24.194 15.3697 24.3065 15.3581 24.4152 15.3542C24.501 15.3464 24.5825 15.3425 24.6675 15.3386C24.78 15.3348 24.8964 15.3309 25.009 15.3309H25.0206C25.1681 15.3309 25.3117 15.3348 25.4553 15.3425C25.6028 15.3503 25.7503 15.362 25.8939 15.3775C26.0258 15.3892 26.1578 15.4047 26.2897 15.428C26.4062 15.4435 26.5187 15.463 26.6313 15.4863C26.7205 15.5018 26.8059 15.5173 26.8913 15.5368C26.946 15.5484 26.9965 15.5601 27.043 15.5717C27.1245 15.5912 27.2021 15.6106 27.2794 15.6339C27.3341 15.6455 27.3846 15.6611 27.4346 15.6766C27.4695 15.6863 27.5035 15.697 27.5375 15.7077C27.5714 15.7184 27.6054 15.7291 27.6403 15.7388C27.7567 15.7737 27.8693 15.8126 27.9818 15.8592C28.1099 15.9019 28.238 15.9524 28.3661 16.0107C28.5135 16.069 28.6571 16.135 28.8003 16.205C29.1537 16.3797 29.4949 16.578 29.8214 16.7916C29.8292 16.7993 29.8409 16.8071 29.8482 16.811C29.9646 16.8887 30.0772 16.9664 30.1897 17.0557C30.2289 17.0829 30.2674 17.1101 30.3023 17.1412C30.3157 17.1518 30.3287 17.1628 30.3414 17.1733C30.3658 17.1935 30.3896 17.2131 30.4151 17.231L30.4191 17.2305C30.4213 17.2328 30.4223 17.2337 30.4234 17.2341C30.4243 17.2344 30.4252 17.2344 30.4269 17.2344C30.52 17.3082 30.6132 17.3859 30.7024 17.4675C30.6791 17.452 30.6559 17.4326 30.6326 17.4131C32.4916 19.002 33.6714 21.364 33.6714 24.0017C33.6714 28.7801 29.7861 32.6691 25.009 32.6691C24.3647 32.6691 23.8447 33.1936 23.8447 33.8346C23.8447 34.479 24.3647 35 25.009 35C31.0711 35 36 30.0663 36 24.0017C36 20.7579 34.5912 17.8366 32.3553 15.8204C32.303 15.7757 32.2506 15.73 32.1982 15.6844C32.1458 15.6387 32.0934 15.5931 32.041 15.5484C32.0216 15.5368 32.0061 15.5212 31.9905 15.5057C31.8935 15.428 31.7926 15.3503 31.6913 15.2726C31.2372 14.923 30.7521 14.6044 30.2441 14.3286C30.0888 14.247 29.9293 14.1654 29.7702 14.0877C29.4753 13.944 29.1768 13.8158 28.8702 13.7031C28.7965 13.6721 28.7185 13.6449 28.6451 13.6216C28.5244 13.575 28.4006 13.5361 28.2725 13.4973C28.1328 13.4506 27.9892 13.4118 27.8452 13.3729C27.7936 13.3567 27.7389 13.3431 27.6861 13.33L27.6554 13.3224C27.5119 13.2875 27.3683 13.2525 27.2208 13.2253C27.0422 13.1865 26.8637 13.1554 26.6809 13.1282C26.514 13.101 26.3476 13.0816 26.1764 13.066C26.1531 13.0583 26.1298 13.0583 26.1065 13.0583C25.9319 13.0388 25.7534 13.0233 25.5748 13.0155C25.3889 13.0039 25.2061 13 25.0199 13H24.9849C24.8103 13 24.6356 13.0039 24.4606 13.0155C24.4451 13.0155 24.4296 13.0155 24.414 13.0194C24.2549 13.0233 24.0962 13.035 23.9371 13.0544C23.906 13.0544 23.875 13.0583 23.8439 13.0622C23.7158 13.0738 23.5878 13.0894 23.4636 13.1127C23.0755 13.1632 22.6955 13.237 22.3191 13.3341C22.191 13.3652 22.0668 13.4001 21.9422 13.439C21.8413 13.4662 21.7443 13.4973 21.6434 13.5322C21.5192 13.5672 21.395 13.6099 21.2747 13.6526C21.2586 13.6585 21.242 13.6649 21.225 13.6715C21.197 13.6823 21.1681 13.6935 21.1389 13.7031C21.1005 13.7185 21.0622 13.7335 21.0241 13.7484C20.9267 13.7866 20.83 13.8244 20.7352 13.8663C20.568 13.9362 20.405 14.01 20.2462 14.0877C20.1139 14.1499 19.9819 14.2198 19.85 14.2897L19.6986 14.3713C19.5667 14.4451 19.4386 14.519 19.3144 14.5967C19.1824 14.6743 19.0505 14.7559 18.9263 14.8453L18.8331 14.9036C18.6973 14.9968 18.5657 15.09 18.4373 15.1871C18.2976 15.292 18.1575 15.4008 18.022 15.5135C17.6378 15.832 17.2769 16.1739 16.9431 16.5352C16.8383 16.6478 16.7335 16.7644 16.6365 16.8848C16.555 16.978 16.4774 17.0752 16.4001 17.1723C16.3666 17.2089 16.3379 17.2479 16.3102 17.2855L16.2876 17.316C16.21 17.4131 16.1358 17.5141 16.0664 17.6151C16.0579 17.6236 16.0515 17.6341 16.0457 17.6437C16.0435 17.6473 16.0413 17.6508 16.0392 17.654C15.9503 17.7783 15.865 17.9065 15.7835 18.0347C15.6942 18.1668 15.6127 18.3027 15.5312 18.4426C15.4536 18.5747 15.3759 18.7145 15.3022 18.8505C15.2941 18.8583 15.2867 18.8699 15.2867 18.8816C15.232 18.9826 15.1815 19.0836 15.1314 19.1846C14.9801 19.4876 14.8485 19.7984 14.7278 20.1208C14.6735 20.2646 14.623 20.4083 14.5765 20.552C14.5066 20.7424 14.4484 20.9366 14.3979 21.1348C14.3669 21.2552 14.3358 21.3757 14.3087 21.4961L14.3061 21.5048C14.2957 21.5407 14.2851 21.5769 14.2819 21.6165C14.2547 21.7291 14.2314 21.8418 14.2116 21.9545C14.1961 22.0127 14.1849 22.0749 14.1806 22.137C14.1612 22.2342 14.1457 22.3313 14.1344 22.4284C14.1146 22.5216 14.1034 22.6149 14.0952 22.712C14.0913 22.7275 14.0913 22.7431 14.0913 22.7586V22.7601C14.0883 22.7642 14.0883 22.7713 14.0883 22.7784M14.0883 22.7784C14.085 22.803 14.0818 22.8277 14.0787 22.8525C14.0738 22.8876 14.0701 22.9228 14.0677 22.9567C14.0719 22.8946 14.0802 22.8367 14.0883 22.7784L13.9594 22.6576C13.4898 22.2186 12.7524 22.2419 12.3138 22.712C11.8753 23.1821 11.899 23.9206 12.3686 24.3595" fill="white" fill-opacity="0.2"/>
<path d="M17.3553 19.946C17.534 19.6119 17.7315 19.2895 17.9487 18.9826C17.7278 19.2895 17.5299 19.6119 17.3553 19.946Z" fill="white" fill-opacity="0.2"/>
<path d="M16.9089 20.9328C17.0371 20.5948 17.1882 20.2646 17.3553 19.946C17.1845 20.2646 17.0331 20.5909 16.9089 20.9328Z" fill="white" fill-opacity="0.2"/>
</g>
<defs>
<clipPath id="clip0">
<path d="M0 0H48V48H0V0Z" fill="white"/>
</clipPath>
</defs>
</svg>
