<svg width="24" height="24" viewBox="0 0 24 24" fill="none" xmlns="http://www.w3.org/2000/svg">
<path d="M4.28606 5.14147C4.06663 5.14147 3.84721 5.05747 3.67921 4.89119L2.57095 3.78293L1.46269 4.89119C1.2964 5.05747 1.07698 5.14147 0.857555 5.14147C0.63813 5.14147 0.418706 5.05747 0.250709 4.89119C-0.0835698 4.55691 -0.0835698 4.01349 0.250709 3.67921L1.35897 2.57095L0.250709 1.46269C-0.0835698 1.12841 -0.0835698 0.584989 0.250709 0.250709C0.584989 -0.0835698 1.12841 -0.0835698 1.46269 0.250709L2.57095 1.35897L3.67921 0.250709C4.01349 -0.0835698 4.55691 -0.0835698 4.89119 0.250709C5.22547 0.584989 5.22547 1.12841 4.89119 1.46269L3.78293 2.57095L4.89119 3.67921C5.22547 4.01349 5.22547 4.55691 4.89119 4.89119C4.72491 5.05747 4.50548 5.14147 4.28606 5.14147Z" fill="white" fill-opacity="0.9"/>
<path d="M18.0001 5.14147C17.7807 5.14147 17.5612 5.05747 17.3932 4.89119L16.285 3.78293L15.1767 4.89119C15.0104 5.05747 14.791 5.14147 14.5716 5.14147C14.3521 5.14147 14.1327 5.05747 13.9647 4.89119C13.6304 4.55691 13.6304 4.01349 13.9647 3.67921L15.073 2.57095L13.9647 1.46269C13.6304 1.12841 13.6304 0.584989 13.9647 0.250709C14.299 -0.0835698 14.8424 -0.0835698 15.1767 0.250709L16.285 1.35897L17.3932 0.250709C17.7275 -0.0835698 18.2709 -0.0835698 18.6052 0.250709C18.9395 0.584989 18.9395 1.12841 18.6052 1.46269L17.4969 2.57095L18.6052 3.67921C18.9395 4.01349 18.9395 4.55691 18.6052 4.89119C18.4389 5.05747 18.2195 5.14147 18.0001 5.14147Z" fill="white" fill-opacity="0.9"/>
<path fill-rule="evenodd" clip-rule="evenodd" d="M18.1475 22.9903C18.7852 23.6314 19.6698 23.9982 20.5715 23.9982C22.4623 23.9982 24 22.4606 24 20.5697C24 19.6698 23.6348 18.7869 22.9971 18.1441L10.1402 5.28719C9.9791 5.12776 9.76139 5.0369 9.5334 5.0369C9.3054 5.0369 9.08769 5.12605 8.92655 5.28719L5.28891 8.92483C5.12948 9.08597 5.03863 9.30368 5.03863 9.53167C5.03863 9.75967 5.12948 9.97738 5.29062 10.1351L11.7191 16.5635C15.6464 20.4909 17.3812 22.224 18.2538 22.8857L18.1475 22.9903ZM10.5334 12.9559L12.9299 15.3517C16.0664 18.4871 19.2025 21.6223 19.3509 21.7697L19.3629 21.7817C19.6801 22.1023 20.1206 22.284 20.5715 22.284C21.5177 22.284 22.2857 21.516 22.2857 20.5697C22.2857 20.1189 22.1023 19.6766 21.7817 19.3561L12.9472 10.5203L10.5334 12.9559ZM9.32177 11.7447L11.7348 9.30767L9.5334 7.10601L7.10773 9.53167L9.32177 11.7447Z" fill="white" fill-opacity="0.9"/>
<path d="M4.28606 17.1412C4.06663 17.1412 3.84721 17.0572 3.67921 16.891L2.57095 15.7827L1.46269 16.891C1.2964 17.0572 1.07698 17.1412 0.857555 17.1412C0.63813 17.1412 0.418706 17.0572 0.250709 16.891C-0.0835698 16.5567 -0.0835698 16.0133 0.250709 15.679L1.35897 14.5707L0.250709 13.4625C-0.0835698 13.1282 -0.0835698 12.5848 0.250709 12.2505C0.584989 11.9162 1.12841 11.9162 1.46269 12.2505L2.57095 13.3587L3.67921 12.2505C4.01349 11.9162 4.55691 11.9162 4.89119 12.2505C5.22547 12.5848 5.22547 13.1282 4.89119 13.4625L3.78293 14.5707L4.89119 15.679C5.22547 16.0133 5.22547 16.5567 4.89119 16.891C4.72491 17.0572 4.50548 17.1412 4.28606 17.1412Z" fill="white" fill-opacity="0.9"/>
</svg>
