<svg width="792" height="445" viewBox="0 0 792 445" fill="none" xmlns="http://www.w3.org/2000/svg">
<path d="M0 60C0 26.8629 26.8629 0 60 0H732C765.137 0 792 26.8629 792 60V385C792 418.137 765.137 445 732 445H60C26.8629 445 0 418.137 0 385V60Z" fill="#4A73E2"/>
<path d="M264.559 306.909V325.929C264.559 329.04 262.045 330.929 258.608 330.929C255.213 330.929 252.699 329.04 252.699 325.929V306.909H246.548V326.142C246.548 332.733 251.548 336.412 258.608 336.412C265.639 336.412 270.667 332.733 270.667 326.142V306.909H264.559ZM275.214 344.182H281.265V332.506H281.45C282.288 334.324 284.12 336.355 287.643 336.355C292.615 336.355 296.492 332.42 296.492 325.119C296.492 317.619 292.444 313.898 287.657 313.898C284.007 313.898 282.259 316.071 281.45 317.847H281.18V314.182H275.214V344.182ZM281.137 325.091C281.137 321.199 282.785 318.713 285.725 318.713C288.723 318.713 290.313 321.312 290.313 325.091C290.313 328.898 288.694 331.54 285.725 331.54C282.813 331.54 281.137 328.983 281.137 325.091ZM306.178 306.909H300.126V336H306.178V306.909ZM320.483 336.426C327.102 336.426 331.222 331.895 331.222 325.176C331.222 318.415 327.102 313.898 320.483 313.898C313.864 313.898 309.744 318.415 309.744 325.176C309.744 331.895 313.864 336.426 320.483 336.426ZM320.511 331.739C317.457 331.739 315.895 328.94 315.895 325.134C315.895 321.327 317.457 318.514 320.511 318.514C323.508 318.514 325.071 321.327 325.071 325.134C325.071 328.94 323.508 331.739 320.511 331.739ZM340.978 336.412C344.202 336.412 346.29 335.006 347.356 332.974H347.526V336H353.265V321.284C353.265 316.085 348.861 313.898 344.003 313.898C338.776 313.898 335.339 316.398 334.5 320.375L340.097 320.83C340.509 319.381 341.802 318.315 343.975 318.315C346.035 318.315 347.214 319.352 347.214 321.142V321.227C347.214 322.634 345.722 322.818 341.929 323.188C337.611 323.585 333.733 325.034 333.733 329.906C333.733 334.224 336.816 336.412 340.978 336.412ZM342.711 332.236C340.85 332.236 339.515 331.369 339.515 329.707C339.515 328.003 340.921 327.165 343.052 326.866C344.373 326.682 346.532 326.369 347.256 325.886V328.202C347.256 330.489 345.367 332.236 342.711 332.236ZM365.599 336.355C369.122 336.355 370.954 334.324 371.792 332.506H372.048V336H378.014V306.909H371.977V317.847H371.792C370.983 316.071 369.235 313.898 365.585 313.898C360.798 313.898 356.75 317.619 356.75 325.119C356.75 332.42 360.627 336.355 365.599 336.355ZM367.517 331.54C364.548 331.54 362.929 328.898 362.929 325.091C362.929 321.312 364.52 318.713 367.517 318.713C370.457 318.713 372.105 321.199 372.105 325.091C372.105 328.983 370.429 331.54 367.517 331.54ZM397.668 336.412C400.893 336.412 402.981 335.006 404.046 332.974H404.217V336H409.955V321.284C409.955 316.085 405.552 313.898 400.694 313.898C395.467 313.898 392.029 316.398 391.191 320.375L396.788 320.83C397.2 319.381 398.492 318.315 400.666 318.315C402.725 318.315 403.904 319.352 403.904 321.142V321.227C403.904 322.634 402.413 322.818 398.62 323.188C394.302 323.585 390.424 325.034 390.424 329.906C390.424 334.224 393.506 336.412 397.668 336.412ZM399.401 332.236C397.541 332.236 396.205 331.369 396.205 329.707C396.205 328.003 397.612 327.165 399.742 326.866C401.063 326.682 403.222 326.369 403.947 325.886V328.202C403.947 330.489 402.058 332.236 399.401 332.236ZM420.301 323.386C420.315 320.574 421.991 318.926 424.435 318.926C426.864 318.926 428.327 320.517 428.312 323.188V336H434.364V322.108C434.364 317.023 431.381 313.898 426.835 313.898C423.597 313.898 421.253 315.489 420.273 318.031H420.017V314.182H414.25V336H420.301V323.386ZM447.591 336H453.642V314.182H447.591V336ZM450.63 311.369C452.434 311.369 453.912 309.991 453.912 308.301C453.912 306.625 452.434 305.247 450.63 305.247C448.841 305.247 447.363 306.625 447.363 308.301C447.363 309.991 448.841 311.369 450.63 311.369ZM458.089 336H464.14V322.903C464.14 320.489 465.674 318.884 467.691 318.884C469.68 318.884 471.015 320.247 471.015 322.392V336H476.882V322.676C476.882 320.418 478.174 318.884 480.376 318.884C482.308 318.884 483.757 320.091 483.757 322.52V336H489.794V321.327C489.794 316.597 486.981 313.898 482.919 313.898C479.723 313.898 477.237 315.531 476.342 318.031H476.115C475.419 315.503 473.188 313.898 470.191 313.898C467.251 313.898 465.021 315.46 464.112 318.031H463.856V314.182H458.089V336ZM500.395 336.412C503.619 336.412 505.707 335.006 506.773 332.974H506.943V336H512.682V321.284C512.682 316.085 508.278 313.898 503.421 313.898C498.193 313.898 494.756 316.398 493.918 320.375L499.514 320.83C499.926 319.381 501.219 318.315 503.392 318.315C505.452 318.315 506.631 319.352 506.631 321.142V321.227C506.631 322.634 505.139 322.818 501.347 323.188C497.028 323.585 493.151 325.034 493.151 329.906C493.151 334.224 496.233 336.412 500.395 336.412ZM502.128 332.236C500.267 332.236 498.932 331.369 498.932 329.707C498.932 328.003 500.338 327.165 502.469 326.866C503.79 326.682 505.949 326.369 506.673 325.886V328.202C506.673 330.489 504.784 332.236 502.128 332.236ZM526.806 344.494C533.042 344.494 537.474 341.653 537.474 336.213V314.182H531.465V317.847H531.238C530.428 316.071 528.653 313.898 525.002 313.898C520.215 313.898 516.167 317.619 516.167 325.048C516.167 332.307 520.101 335.688 525.016 335.688C528.496 335.688 530.442 333.94 531.238 332.136H531.494V336.128C531.494 338.983 529.576 340.148 526.948 340.148C524.278 340.148 522.928 338.983 522.431 337.804L516.834 338.557C517.559 341.852 520.925 344.494 526.806 344.494ZM526.934 331.142C523.965 331.142 522.346 328.784 522.346 325.02C522.346 321.312 523.937 318.713 526.934 318.713C529.874 318.713 531.522 321.199 531.522 325.02C531.522 328.869 529.846 331.142 526.934 331.142ZM551.832 336.426C557.23 336.426 560.866 333.798 561.719 329.75L556.122 329.381C555.511 331.043 553.949 331.909 551.932 331.909C548.906 331.909 546.988 329.906 546.988 326.653V326.639H561.846V324.977C561.846 317.562 557.358 313.898 551.591 313.898C545.17 313.898 541.008 318.457 541.008 325.19C541.008 332.108 545.113 336.426 551.832 336.426ZM546.988 322.889C547.116 320.403 549.005 318.415 551.69 318.415C554.318 318.415 556.136 320.29 556.15 322.889H546.988Z" fill="white"/>
<path d="M334.46 365.213C337.769 365.213 339.829 362.947 339.829 359.588C339.829 356.207 337.769 353.949 334.46 353.949C331.15 353.949 329.09 356.207 329.09 359.588C329.09 362.947 331.15 365.213 334.46 365.213ZM334.474 362.869C332.947 362.869 332.166 361.47 332.166 359.567C332.166 357.663 332.947 356.257 334.474 356.257C335.973 356.257 336.754 357.663 336.754 359.567C336.754 361.47 335.973 362.869 334.474 362.869ZM341.696 365H344.722V358.828C344.729 357.493 345.695 356.577 346.917 356.577C347.329 356.577 347.662 356.69 347.946 356.832L348.856 354.332C348.458 354.091 347.946 353.935 347.364 353.935C346.135 353.935 345.141 354.645 344.743 355.994H344.63V354.091H341.696V365ZM357.81 365.206C359.423 365.206 360.467 364.503 360.999 363.487H361.085V365H363.954V357.642C363.954 355.043 361.752 353.949 359.323 353.949C356.71 353.949 354.991 355.199 354.572 357.188L357.37 357.415C357.576 356.69 358.222 356.158 359.309 356.158C360.339 356.158 360.928 356.676 360.928 357.571V357.614C360.928 358.317 360.183 358.409 358.286 358.594C356.127 358.793 354.188 359.517 354.188 361.953C354.188 364.112 355.729 365.206 357.81 365.206ZM358.677 363.118C357.746 363.118 357.079 362.685 357.079 361.854C357.079 361.001 357.782 360.582 358.847 360.433C359.508 360.341 360.587 360.185 360.95 359.943V361.101C360.95 362.244 360.005 363.118 358.677 363.118ZM370.73 369.091H373.756V363.253H373.848C374.267 364.162 375.183 365.178 376.945 365.178C379.43 365.178 381.369 363.21 381.369 359.56C381.369 355.81 379.345 353.949 376.952 353.949C375.126 353.949 374.253 355.036 373.848 355.923H373.713V354.091H370.73V369.091ZM373.692 359.545C373.692 357.599 374.516 356.357 375.986 356.357C377.484 356.357 378.28 357.656 378.28 359.545C378.28 361.449 377.47 362.77 375.986 362.77C374.53 362.77 373.692 361.491 373.692 359.545ZM390.282 360.355C390.289 361.818 389.288 362.585 388.201 362.585C387.058 362.585 386.319 361.783 386.312 360.497V354.091H383.286V361.037C383.293 363.587 384.785 365.142 386.979 365.142C388.62 365.142 389.799 364.297 390.289 363.018H390.403V365H393.308V354.091H390.282V360.355ZM395.628 369.091H398.653V363.253H398.746C399.165 364.162 400.081 365.178 401.842 365.178C404.328 365.178 406.267 363.21 406.267 359.56C406.267 355.81 404.243 353.949 401.849 353.949C400.024 353.949 399.15 355.036 398.746 355.923H398.611V354.091H395.628V369.091ZM398.589 359.545C398.589 357.599 399.413 356.357 400.883 356.357C402.382 356.357 403.177 357.656 403.177 359.545C403.177 361.449 402.368 362.77 400.883 362.77C399.427 362.77 398.589 361.491 398.589 359.545ZM408.184 369.091H411.21V363.253H411.302C411.721 364.162 412.637 365.178 414.398 365.178C416.884 365.178 418.823 363.21 418.823 359.56C418.823 355.81 416.799 353.949 414.406 353.949C412.58 353.949 411.707 355.036 411.302 355.923H411.167V354.091H408.184V369.091ZM411.146 359.545C411.146 357.599 411.969 356.357 413.44 356.357C414.938 356.357 415.734 357.656 415.734 359.545C415.734 361.449 414.924 362.77 413.44 362.77C411.984 362.77 411.146 361.491 411.146 359.545ZM425.712 365.213C428.411 365.213 430.229 363.899 430.655 361.875L427.857 361.69C427.551 362.521 426.77 362.955 425.761 362.955C424.249 362.955 423.29 361.953 423.29 360.327V360.32H430.719V359.489C430.719 355.781 428.475 353.949 425.591 353.949C422.381 353.949 420.3 356.229 420.3 359.595C420.3 363.054 422.352 365.213 425.712 365.213ZM423.29 358.445C423.354 357.202 424.298 356.207 425.641 356.207C426.955 356.207 427.864 357.145 427.871 358.445H423.29ZM438.396 354.091H436.343V351.477H433.318V354.091H431.826V356.364H433.318V362.045C433.304 364.183 434.76 365.241 436.954 365.149C437.735 365.121 438.289 364.964 438.595 364.865L438.119 362.614C437.97 362.642 437.65 362.713 437.366 362.713C436.762 362.713 436.343 362.486 436.343 361.648V356.364H438.396V354.091ZM446.564 365.185C447.473 365.185 448.262 364.425 448.269 363.48C448.262 362.55 447.473 361.79 446.564 361.79C445.627 361.79 444.852 362.55 444.86 363.48C444.852 364.425 445.627 365.185 446.564 365.185ZM450.596 365H459.765V362.585H454.566V362.507L459.58 356.058V354.091H450.781V356.506H455.937V356.584L450.596 363.196V365ZM461.978 365H465.004V354.091H461.978V365ZM463.498 352.685C464.4 352.685 465.139 351.996 465.139 351.151C465.139 350.312 464.4 349.624 463.498 349.624C462.603 349.624 461.865 350.312 461.865 351.151C461.865 351.996 462.603 352.685 463.498 352.685ZM467.328 369.091H470.353V363.253H470.446C470.865 364.162 471.781 365.178 473.542 365.178C476.028 365.178 477.967 363.21 477.967 359.56C477.967 355.81 475.943 353.949 473.549 353.949C471.724 353.949 470.85 355.036 470.446 355.923H470.311V354.091H467.328V369.091ZM470.289 359.545C470.289 357.599 471.113 356.357 472.583 356.357C474.082 356.357 474.877 357.656 474.877 359.545C474.877 361.449 474.068 362.77 472.583 362.77C471.127 362.77 470.289 361.491 470.289 359.545Z" fill="#C6CADC"/>
<rect x="196" y="274" width="415" height="120" rx="60" stroke="#F3F5FA" stroke-width="2" stroke-linecap="round" stroke-linejoin="round" stroke-dasharray="8 0"/>
<path d="M292.452 110C303.088 110 309.531 103.42 309.531 92.5114C309.531 81.6364 303.088 75.0909 292.554 75.0909H280.077V110H292.452ZM287.457 103.676V81.4148H292.162C298.707 81.4148 302.168 84.7557 302.168 92.5114C302.168 100.301 298.707 103.676 292.145 103.676H287.457ZM314.262 110H321.524V95.1875C321.541 91.983 323.859 89.7841 326.791 89.7841C327.779 89.7841 328.58 90.0568 329.262 90.3977L331.444 84.3977C330.49 83.8182 329.262 83.4432 327.865 83.4432C324.916 83.4432 322.529 85.1477 321.575 88.3864H321.302V83.8182H314.262V110ZM340.956 110.494C344.826 110.494 347.331 108.807 348.61 106.369H348.814V110H355.701V92.3409C355.701 86.1023 350.417 83.4773 344.587 83.4773C338.314 83.4773 334.189 86.4773 333.184 91.25L339.9 91.7955C340.394 90.0568 341.945 88.7784 344.553 88.7784C347.025 88.7784 348.439 90.0227 348.439 92.1705V92.2727C348.439 93.9602 346.65 94.1818 342.098 94.625C336.917 95.1023 332.263 96.8409 332.263 102.688C332.263 107.869 335.962 110.494 340.956 110.494ZM343.036 105.483C340.803 105.483 339.201 104.443 339.201 102.449C339.201 100.403 340.888 99.3977 343.445 99.0398C345.03 98.8182 347.621 98.4432 348.49 97.8636V100.642C348.49 103.386 346.223 105.483 343.036 105.483ZM367.996 94.8636C368.013 91.4886 370.024 89.5114 372.956 89.5114C375.871 89.5114 377.626 91.4205 377.609 94.625V110H384.871V93.3295C384.871 87.2273 381.291 83.4773 375.836 83.4773C371.95 83.4773 369.138 85.3864 367.961 88.4375H367.655V83.8182H360.734V110H367.996V94.8636ZM389.994 110H397.255V83.8182H389.994V110ZM393.641 80.4432C395.806 80.4432 397.579 78.7898 397.579 76.7614C397.579 74.75 395.806 73.0966 393.641 73.0966C391.494 73.0966 389.721 74.75 389.721 76.7614C389.721 78.7898 391.494 80.4432 393.641 80.4432ZM402.472 110H409.733V94.2841C409.733 91.3864 411.574 89.4602 413.994 89.4602C416.381 89.4602 417.983 91.0966 417.983 93.6705V110H425.023V94.0114C425.023 91.3011 426.574 89.4602 429.216 89.4602C431.534 89.4602 433.273 90.9091 433.273 93.8239V110H440.517V92.392C440.517 86.7159 437.142 83.4773 432.267 83.4773C428.432 83.4773 425.449 85.4375 424.375 88.4375H424.102C423.267 85.4034 420.591 83.4773 416.994 83.4773C413.466 83.4773 410.79 85.3523 409.699 88.4375H409.392V83.8182H402.472V110ZM453.119 110.494C456.988 110.494 459.494 108.807 460.772 106.369H460.977V110H467.863V92.3409C467.863 86.1023 462.579 83.4773 456.749 83.4773C450.477 83.4773 446.352 86.4773 445.346 91.25L452.062 91.7955C452.556 90.0568 454.107 88.7784 456.715 88.7784C459.187 88.7784 460.602 90.0227 460.602 92.1705V92.2727C460.602 93.9602 458.812 94.1818 454.261 94.625C449.079 95.1023 444.426 96.8409 444.426 102.688C444.426 107.869 448.124 110.494 453.119 110.494ZM455.198 105.483C452.965 105.483 451.363 104.443 451.363 102.449C451.363 100.403 453.051 99.3977 455.607 99.0398C457.193 98.8182 459.784 98.4432 460.653 97.8636V100.642C460.653 103.386 458.386 105.483 455.198 105.483ZM486.823 83.8182H481.897V77.5455H474.635V83.8182H471.056V89.2727H474.635V102.909C474.601 108.04 478.096 110.58 483.363 110.358C485.238 110.29 486.567 109.915 487.3 109.676L486.158 104.273C485.8 104.341 485.033 104.511 484.351 104.511C482.902 104.511 481.897 103.966 481.897 101.955V89.2727H486.823V83.8182ZM502.603 110.511C509.081 110.511 513.444 107.358 514.467 102.5L507.751 102.057C507.018 104.051 505.143 105.091 502.723 105.091C499.092 105.091 496.791 102.688 496.791 98.7841V98.767H514.621V96.7727C514.621 87.875 509.234 83.4773 502.314 83.4773C494.609 83.4773 489.615 88.9489 489.615 97.0284C489.615 105.33 494.541 110.511 502.603 110.511ZM496.791 94.267C496.944 91.2841 499.211 88.8977 502.433 88.8977C505.586 88.8977 507.768 91.1477 507.785 94.267H496.791Z" fill="white"/>
<path d="M184.326 132.455V142.085C184.326 144.358 182.508 145.608 180.434 145.608C178.36 145.608 176.542 144.358 176.542 142.085V132.455H174.781V142.085C174.781 145.352 177.366 147.256 180.434 147.256C183.502 147.256 186.088 145.352 186.088 142.085V132.455H184.326ZM189.278 151.091H190.954V145.324H191.096C191.465 145.92 192.176 147.227 194.278 147.227C197.005 147.227 198.909 145.04 198.909 141.574C198.909 138.136 197.005 135.949 194.249 135.949C192.119 135.949 191.465 137.256 191.096 137.824H190.897V136.091H189.278V151.091ZM190.926 141.545C190.926 139.102 192.005 137.455 194.051 137.455C196.181 137.455 197.232 139.244 197.232 141.545C197.232 143.875 196.153 145.722 194.051 145.722C192.034 145.722 190.926 144.017 190.926 141.545ZM203.041 132.455H201.365V147H203.041V132.455ZM210.443 147.227C213.398 147.227 215.386 144.983 215.386 141.602C215.386 138.193 213.398 135.949 210.443 135.949C207.489 135.949 205.5 138.193 205.5 141.602C205.5 144.983 207.489 147.227 210.443 147.227ZM210.443 145.722C208.199 145.722 207.176 143.79 207.176 141.602C207.176 139.415 208.199 137.455 210.443 137.455C212.688 137.455 213.71 139.415 213.71 141.602C213.71 143.79 212.688 145.722 210.443 145.722ZM221.055 147.256C222.959 147.256 223.953 146.233 224.294 145.523H224.379V147H226.055V139.812C226.055 136.347 223.413 135.949 222.021 135.949C220.373 135.949 218.498 136.517 217.646 138.506L219.237 139.074C219.606 138.278 220.48 137.426 222.078 137.426C223.619 137.426 224.379 138.243 224.379 139.642V139.699C224.379 140.509 223.555 140.438 221.567 140.693C219.542 140.956 217.334 141.403 217.334 143.903C217.334 146.034 218.981 147.256 221.055 147.256ZM221.311 145.75C219.976 145.75 219.01 145.153 219.01 143.989C219.01 142.71 220.175 142.312 221.481 142.142C222.192 142.057 224.095 141.858 224.379 141.517V143.051C224.379 144.415 223.3 145.75 221.311 145.75ZM233.134 147.227C235.236 147.227 235.946 145.92 236.316 145.324H236.515V147H238.134V132.455H236.458V137.824H236.316C235.946 137.256 235.293 135.949 233.162 135.949C230.407 135.949 228.503 138.136 228.503 141.574C228.503 145.04 230.407 147.227 233.134 147.227ZM233.361 145.722C231.259 145.722 230.179 143.875 230.179 141.545C230.179 139.244 231.23 137.455 233.361 137.455C235.407 137.455 236.486 139.102 236.486 141.545C236.486 144.017 235.378 145.722 233.361 145.722ZM250.072 147.256C251.975 147.256 252.969 146.233 253.31 145.523H253.396V147H255.072V139.812C255.072 136.347 252.43 135.949 251.038 135.949C249.39 135.949 247.515 136.517 246.663 138.506L248.253 139.074C248.623 138.278 249.496 137.426 251.094 137.426C252.636 137.426 253.396 138.243 253.396 139.642V139.699C253.396 140.509 252.572 140.438 250.583 140.693C248.559 140.956 246.35 141.403 246.35 143.903C246.35 146.034 247.998 147.256 250.072 147.256ZM250.327 145.75C248.992 145.75 248.026 145.153 248.026 143.989C248.026 142.71 249.191 142.312 250.498 142.142C251.208 142.057 253.111 141.858 253.396 141.517V143.051C253.396 144.415 252.316 145.75 250.327 145.75ZM259.707 140.438C259.707 138.534 260.886 137.455 262.491 137.455C264.047 137.455 264.991 138.47 264.991 140.182V147H266.667V140.068C266.667 137.284 265.183 135.949 262.974 135.949C261.326 135.949 260.304 136.688 259.792 137.795H259.65V136.091H258.031V147H259.707V140.438ZM275.155 147H276.831V136.091H275.155V147ZM276.007 134.273C276.661 134.273 277.201 133.761 277.201 133.136C277.201 132.511 276.661 132 276.007 132C275.354 132 274.814 132.511 274.814 133.136C274.814 133.761 275.354 134.273 276.007 134.273ZM279.801 147H281.477V140.182C281.477 138.584 282.642 137.455 283.949 137.455C285.22 137.455 286.108 138.286 286.108 139.528V147H287.813V139.898C287.813 138.491 288.693 137.455 290.227 137.455C291.421 137.455 292.443 138.087 292.443 139.699V147H294.119V139.699C294.119 137.135 292.742 135.949 290.796 135.949C289.233 135.949 288.09 136.666 287.529 137.795H287.415C286.875 136.631 285.923 135.949 284.489 135.949C283.068 135.949 282.017 136.631 281.563 137.795H281.421V136.091H279.801V147ZM300.294 147.256C302.198 147.256 303.192 146.233 303.533 145.523H303.618V147H305.294V139.812C305.294 136.347 302.652 135.949 301.26 135.949C299.613 135.949 297.738 136.517 296.885 138.506L298.476 139.074C298.845 138.278 299.719 137.426 301.317 137.426C302.858 137.426 303.618 138.243 303.618 139.642V139.699C303.618 140.509 302.794 140.438 300.806 140.693C298.782 140.956 296.573 141.403 296.573 143.903C296.573 146.034 298.22 147.256 300.294 147.256ZM300.55 145.75C299.215 145.75 298.249 145.153 298.249 143.989C298.249 142.71 299.414 142.312 300.72 142.142C301.431 142.057 303.334 141.858 303.618 141.517V143.051C303.618 144.415 302.539 145.75 300.55 145.75ZM312.657 151.318C315.271 151.318 317.373 150.125 317.373 147.312V136.091H315.754V137.824H315.583C315.214 137.256 314.532 135.949 312.401 135.949C309.646 135.949 307.742 138.136 307.742 141.489C307.742 144.898 309.731 146.83 312.373 146.83C314.504 146.83 315.185 145.58 315.555 144.983H315.697V147.199C315.697 149.017 314.418 149.841 312.657 149.841C310.675 149.841 309.979 148.797 309.532 148.193L308.197 149.131C308.879 150.274 310.221 151.318 312.657 151.318ZM312.6 145.324C310.498 145.324 309.418 143.733 309.418 141.46C309.418 139.244 310.47 137.455 312.6 137.455C314.646 137.455 315.725 139.102 315.725 141.46C315.725 143.875 314.617 145.324 312.6 145.324ZM324.915 147.227C327.131 147.227 328.75 146.119 329.262 144.472L327.642 144.017C327.216 145.153 326.229 145.722 324.915 145.722C322.948 145.722 321.591 144.45 321.513 142.114H329.432V141.403C329.432 137.341 327.017 135.949 324.745 135.949C321.79 135.949 319.83 138.278 319.83 141.631C319.83 144.983 321.762 147.227 324.915 147.227ZM321.513 140.665C321.627 138.967 322.827 137.455 324.745 137.455C326.563 137.455 327.727 138.818 327.727 140.665H321.513ZM342.151 136.091H339.822V133.477H338.145V136.091H336.498V137.511H338.145V144.33C338.145 146.233 339.679 147.142 341.1 147.142C341.725 147.142 342.123 147.028 342.35 146.943L342.009 145.438C341.867 145.466 341.64 145.523 341.27 145.523C340.532 145.523 339.822 145.295 339.822 143.875V137.511H342.151V136.091ZM348.887 147.227C351.842 147.227 353.83 144.983 353.83 141.602C353.83 138.193 351.842 135.949 348.887 135.949C345.932 135.949 343.944 138.193 343.944 141.602C343.944 144.983 345.932 147.227 348.887 147.227ZM348.887 145.722C346.643 145.722 345.62 143.79 345.62 141.602C345.62 139.415 346.643 137.455 348.887 137.455C351.131 137.455 352.154 139.415 352.154 141.602C352.154 143.79 351.131 145.722 348.887 145.722ZM366.558 136.091H364.229V133.477H362.552V136.091H360.905V137.511H362.552V144.33C362.552 146.233 364.087 147.142 365.507 147.142C366.132 147.142 366.53 147.028 366.757 146.943L366.416 145.438C366.274 145.466 366.047 145.523 365.677 145.523C364.939 145.523 364.229 145.295 364.229 143.875V137.511H366.558V136.091ZM375.854 142.54C375.854 144.585 374.292 145.523 373.042 145.523C371.65 145.523 370.656 144.5 370.656 142.909V136.091H368.979V143.023C368.979 145.807 370.457 147.142 372.502 147.142C374.15 147.142 375.229 146.261 375.741 145.153H375.854V147H377.531V136.091H375.854V142.54ZM380.5 147H382.177V140.097C382.177 138.626 383.341 137.54 384.932 137.54C385.351 137.54 385.664 137.618 385.898 137.739L386.466 136.318C386.125 136.077 385.678 135.92 385.074 135.92C383.753 135.92 382.624 136.659 382.233 137.739H382.12V136.091H380.5V147ZM389.752 140.438C389.752 138.534 390.931 137.455 392.537 137.455C394.092 137.455 395.037 138.47 395.037 140.182V147H396.713V140.068C396.713 137.284 395.228 135.949 393.019 135.949C391.372 135.949 390.349 136.688 389.838 137.795H389.696V136.091H388.076V147H389.752V140.438ZM405.201 147H406.877V136.091H405.201V147ZM406.053 134.273C406.706 134.273 407.246 133.761 407.246 133.136C407.246 132.511 406.706 132 406.053 132C405.399 132 404.86 132.511 404.86 133.136C404.86 133.761 405.399 134.273 406.053 134.273ZM414.591 136.091H412.261V133.477H410.585V136.091H408.938V137.511H410.585V144.33C410.585 146.233 412.119 147.142 413.54 147.142C414.165 147.142 414.562 147.028 414.79 146.943L414.449 145.438C414.307 145.466 414.08 145.523 413.71 145.523C412.972 145.523 412.261 145.295 412.261 143.875V137.511H414.591V136.091ZM422.537 147H424.213V136.091H422.537V147ZM423.389 134.273C424.043 134.273 424.583 133.761 424.583 133.136C424.583 132.511 424.043 132 423.389 132C422.736 132 422.196 132.511 422.196 133.136C422.196 133.761 422.736 134.273 423.389 134.273ZM428.859 140.438C428.859 138.534 430.038 137.455 431.644 137.455C433.199 137.455 434.144 138.47 434.144 140.182V147H435.82V140.068C435.82 137.284 434.335 135.949 432.127 135.949C430.479 135.949 429.456 136.688 428.945 137.795H428.803V136.091H427.183V147H428.859V140.438ZM443.527 136.091H441.197V133.477H439.521V136.091H437.873V137.511H439.521V144.33C439.521 146.233 441.055 147.142 442.476 147.142C443.101 147.142 443.498 147.028 443.726 146.943L443.385 145.438C443.243 145.466 443.015 145.523 442.646 145.523C441.908 145.523 441.197 145.295 441.197 143.875V137.511H443.527V136.091ZM450.263 147.227C453.217 147.227 455.206 144.983 455.206 141.602C455.206 138.193 453.217 135.949 450.263 135.949C447.308 135.949 445.32 138.193 445.32 141.602C445.32 144.983 447.308 147.227 450.263 147.227ZM450.263 145.722C448.018 145.722 446.996 143.79 446.996 141.602C446.996 139.415 448.018 137.455 450.263 137.455C452.507 137.455 453.53 139.415 453.53 141.602C453.53 143.79 452.507 145.722 450.263 145.722ZM466.4 147.256C468.303 147.256 469.298 146.233 469.638 145.523H469.724V147H471.4V139.812C471.4 136.347 468.758 135.949 467.366 135.949C465.718 135.949 463.843 136.517 462.991 138.506L464.582 139.074C464.951 138.278 465.824 137.426 467.423 137.426C468.964 137.426 469.724 138.243 469.724 139.642V139.699C469.724 140.509 468.9 140.438 466.911 140.693C464.887 140.956 462.678 141.403 462.678 143.903C462.678 146.034 464.326 147.256 466.4 147.256ZM466.655 145.75C465.32 145.75 464.354 145.153 464.354 143.989C464.354 142.71 465.519 142.312 466.826 142.142C467.536 142.057 469.44 141.858 469.724 141.517V143.051C469.724 144.415 468.644 145.75 466.655 145.75ZM484.003 147.227C486.106 147.227 486.816 145.92 487.185 145.324H487.384V147H489.003V132.455H487.327V137.824H487.185C486.816 137.256 486.163 135.949 484.032 135.949C481.276 135.949 479.373 138.136 479.373 141.574C479.373 145.04 481.276 147.227 484.003 147.227ZM484.231 145.722C482.128 145.722 481.049 143.875 481.049 141.545C481.049 139.244 482.1 137.455 484.231 137.455C486.276 137.455 487.356 139.102 487.356 141.545C487.356 144.017 486.248 145.722 484.231 145.722ZM492.206 147H493.882V136.091H492.206V147ZM493.058 134.273C493.712 134.273 494.251 133.761 494.251 133.136C494.251 132.511 493.712 132 493.058 132C492.405 132 491.865 132.511 491.865 133.136C491.865 133.761 492.405 134.273 493.058 134.273ZM501.255 151.318C503.869 151.318 505.971 150.125 505.971 147.312V136.091H504.352V137.824H504.182C503.812 137.256 503.13 135.949 501 135.949C498.244 135.949 496.341 138.136 496.341 141.489C496.341 144.898 498.329 146.83 500.971 146.83C503.102 146.83 503.784 145.58 504.153 144.983H504.295V147.199C504.295 149.017 503.017 149.841 501.255 149.841C499.274 149.841 498.578 148.797 498.13 148.193L496.795 149.131C497.477 150.274 498.819 151.318 501.255 151.318ZM501.199 145.324C499.096 145.324 498.017 143.733 498.017 141.46C498.017 139.244 499.068 137.455 501.199 137.455C503.244 137.455 504.324 139.102 504.324 141.46C504.324 143.875 503.216 145.324 501.199 145.324ZM508.94 147H510.616V136.091H508.94V147ZM509.792 134.273C510.445 134.273 510.985 133.761 510.985 133.136C510.985 132.511 510.445 132 509.792 132C509.138 132 508.599 132.511 508.599 133.136C508.599 133.761 509.138 134.273 509.792 134.273ZM518.33 136.091H516V133.477H514.324V136.091H512.677V137.511H514.324V144.33C514.324 146.233 515.858 147.142 517.279 147.142C517.904 147.142 518.302 147.028 518.529 146.943L518.188 145.438C518.046 145.466 517.819 145.523 517.449 145.523C516.711 145.523 516 145.295 516 143.875V137.511H518.33V136.091ZM523.962 147.256C525.865 147.256 526.859 146.233 527.2 145.523H527.285V147H528.962V139.812C528.962 136.347 526.319 135.949 524.927 135.949C523.28 135.949 521.405 136.517 520.552 138.506L522.143 139.074C522.513 138.278 523.386 137.426 524.984 137.426C526.525 137.426 527.285 138.243 527.285 139.642V139.699C527.285 140.509 526.462 140.438 524.473 140.693C522.449 140.956 520.24 141.403 520.24 143.903C520.24 146.034 521.888 147.256 523.962 147.256ZM524.217 145.75C522.882 145.75 521.916 145.153 521.916 143.989C521.916 142.71 523.081 142.312 524.388 142.142C525.098 142.057 527.001 141.858 527.285 141.517V143.051C527.285 144.415 526.206 145.75 524.217 145.75ZM533.597 132.455H531.921V147H533.597V132.455ZM542.092 151.091H543.768V145.324H543.91C544.279 145.92 544.99 147.227 547.092 147.227C549.819 147.227 551.723 145.04 551.723 141.574C551.723 138.136 549.819 135.949 547.063 135.949C544.933 135.949 544.279 137.256 543.91 137.824H543.711V136.091H542.092V151.091ZM543.74 141.545C543.74 139.102 544.819 137.455 546.865 137.455C548.995 137.455 550.046 139.244 550.046 141.545C550.046 143.875 548.967 145.722 546.865 145.722C544.848 145.722 543.74 144.017 543.74 141.545ZM561.054 142.54C561.054 144.585 559.492 145.523 558.242 145.523C556.85 145.523 555.856 144.5 555.856 142.909V136.091H554.179V143.023C554.179 145.807 555.657 147.142 557.702 147.142C559.35 147.142 560.429 146.261 560.941 145.153H561.054V147H562.731V136.091H561.054V142.54ZM565.701 151.091H567.377V145.324H567.519C567.888 145.92 568.598 147.227 570.701 147.227C573.428 147.227 575.331 145.04 575.331 141.574C575.331 138.136 573.428 135.949 570.672 135.949C568.541 135.949 567.888 137.256 567.519 137.824H567.32V136.091H565.701V151.091ZM567.348 141.545C567.348 139.102 568.428 137.455 570.473 137.455C572.604 137.455 573.655 139.244 573.655 141.545C573.655 143.875 572.576 145.722 570.473 145.722C568.456 145.722 567.348 144.017 567.348 141.545ZM577.788 151.091H579.464V145.324H579.606C579.975 145.92 580.686 147.227 582.788 147.227C585.515 147.227 587.419 145.04 587.419 141.574C587.419 138.136 585.515 135.949 582.76 135.949C580.629 135.949 579.975 137.256 579.606 137.824H579.407V136.091H577.788V151.091ZM579.436 141.545C579.436 139.102 580.515 137.455 582.561 137.455C584.691 137.455 585.743 139.244 585.743 141.545C585.743 143.875 584.663 145.722 582.561 145.722C580.544 145.722 579.436 144.017 579.436 141.545ZM594.449 147.227C596.665 147.227 598.285 146.119 598.796 144.472L597.177 144.017C596.75 145.153 595.763 145.722 594.449 145.722C592.482 145.722 591.125 144.45 591.047 142.114H598.966V141.403C598.966 137.341 596.552 135.949 594.279 135.949C591.324 135.949 589.364 138.278 589.364 141.631C589.364 144.983 591.296 147.227 594.449 147.227ZM591.047 140.665C591.161 138.967 592.361 137.455 594.279 137.455C596.097 137.455 597.262 138.818 597.262 140.665H591.047ZM606.16 136.091H603.831V133.477H602.155V136.091H600.507V137.511H602.155V144.33C602.155 146.233 603.689 147.142 605.109 147.142C605.734 147.142 606.132 147.028 606.359 146.943L606.018 145.438C605.876 145.466 605.649 145.523 605.28 145.523C604.541 145.523 603.831 145.295 603.831 143.875V137.511H606.16V136.091ZM609.803 147.114C610.506 147.114 611.082 146.538 611.082 145.835C611.082 145.132 610.506 144.557 609.803 144.557C609.1 144.557 608.525 145.132 608.525 145.835C608.525 146.538 609.1 147.114 609.803 147.114ZM170.315 171L171.778 166.881H177.659L179.122 171H180.969L175.628 156.455H173.81L168.469 171H170.315ZM172.332 165.318L174.662 158.756H174.776L177.105 165.318H172.332ZM184.583 164.438C184.583 162.534 185.762 161.455 187.367 161.455C188.923 161.455 189.867 162.47 189.867 164.182V171H191.544V164.068C191.544 161.284 190.059 159.949 187.85 159.949C186.203 159.949 185.18 160.688 184.669 161.795H184.526V160.091H182.907V171H184.583V164.438ZM194.506 171H196.182V160.091H194.506V171ZM195.359 158.273C196.012 158.273 196.552 157.761 196.552 157.136C196.552 156.511 196.012 156 195.359 156C194.705 156 194.165 156.511 194.165 157.136C194.165 157.761 194.705 158.273 195.359 158.273ZM199.152 171H200.829V164.182C200.829 162.584 201.993 161.455 203.3 161.455C204.571 161.455 205.459 162.286 205.459 163.528V171H207.164V163.898C207.164 162.491 208.045 161.455 209.579 161.455C210.772 161.455 211.795 162.087 211.795 163.699V171H213.471V163.699C213.471 161.135 212.093 159.949 210.147 159.949C208.584 159.949 207.441 160.666 206.88 161.795H206.766C206.226 160.631 205.275 159.949 203.84 159.949C202.42 159.949 201.368 160.631 200.914 161.795H200.772V160.091H199.152V171ZM219.645 171.256C221.549 171.256 222.543 170.233 222.884 169.523H222.969V171H224.645V163.812C224.645 160.347 222.003 159.949 220.611 159.949C218.964 159.949 217.089 160.517 216.236 162.506L217.827 163.074C218.197 162.278 219.07 161.426 220.668 161.426C222.209 161.426 222.969 162.243 222.969 163.642V163.699C222.969 164.509 222.145 164.438 220.157 164.693C218.133 164.956 215.924 165.403 215.924 167.903C215.924 170.034 217.572 171.256 219.645 171.256ZM219.901 169.75C218.566 169.75 217.6 169.153 217.6 167.989C217.6 166.71 218.765 166.312 220.072 166.142C220.782 166.057 222.685 165.858 222.969 165.517V167.051C222.969 168.415 221.89 169.75 219.901 169.75ZM232.349 160.091H230.02V157.477H228.343V160.091H226.696V161.511H228.343V168.33C228.343 170.233 229.878 171.142 231.298 171.142C231.923 171.142 232.321 171.028 232.548 170.943L232.207 169.438C232.065 169.466 231.838 169.523 231.468 169.523C230.73 169.523 230.02 169.295 230.02 167.875V161.511H232.349V160.091ZM239.227 171.227C241.443 171.227 243.062 170.119 243.574 168.472L241.954 168.017C241.528 169.153 240.541 169.722 239.227 169.722C237.26 169.722 235.903 168.45 235.825 166.114H243.744V165.403C243.744 161.341 241.329 159.949 239.057 159.949C236.102 159.949 234.142 162.278 234.142 165.631C234.142 168.983 236.074 171.227 239.227 171.227ZM235.825 164.665C235.939 162.967 237.139 161.455 239.057 161.455C240.875 161.455 242.04 162.818 242.04 164.665H235.825ZM251.719 171H253.395V160.091H251.719V171ZM252.571 158.273C253.225 158.273 253.764 157.761 253.764 157.136C253.764 156.511 253.225 156 252.571 156C251.918 156 251.378 156.511 251.378 157.136C251.378 157.761 251.918 158.273 252.571 158.273ZM261.109 160.091H258.78V157.477H257.104V160.091H255.456V161.511H257.104V168.33C257.104 170.233 258.638 171.142 260.058 171.142C260.683 171.142 261.081 171.028 261.308 170.943L260.967 169.438C260.825 169.466 260.598 169.523 260.229 169.523C259.49 169.523 258.78 169.295 258.78 167.875V161.511H261.109V160.091ZM275.931 166.54C275.931 168.585 274.368 169.523 273.118 169.523C271.726 169.523 270.732 168.5 270.732 166.909V160.091H269.056V167.023C269.056 169.807 270.533 171.142 272.578 171.142C274.226 171.142 275.306 170.261 275.817 169.153H275.931V171H277.607V160.091H275.931V166.54ZM288.304 162.534C287.778 160.986 286.599 159.949 284.44 159.949C282.139 159.949 280.435 161.256 280.435 163.102C280.435 164.608 281.33 165.616 283.332 166.085L285.151 166.511C286.251 166.767 286.77 167.293 286.77 168.045C286.77 168.983 285.776 169.75 284.213 169.75C282.842 169.75 281.983 169.161 281.685 167.989L280.094 168.386C280.484 170.24 282.011 171.227 284.241 171.227C286.777 171.227 288.503 169.842 288.503 167.96C288.503 166.44 287.551 165.482 285.605 165.006L283.986 164.608C282.693 164.288 282.111 163.855 282.111 163.017C282.111 162.08 283.105 161.398 284.44 161.398C285.903 161.398 286.507 162.207 286.798 162.96L288.304 162.534ZM290.926 171H292.602V160.091H290.926V171ZM291.778 158.273C292.432 158.273 292.971 157.761 292.971 157.136C292.971 156.511 292.432 156 291.778 156C291.125 156 290.585 156.511 290.585 157.136C290.585 157.761 291.125 158.273 291.778 158.273ZM297.248 164.438C297.248 162.534 298.427 161.455 300.032 161.455C301.588 161.455 302.532 162.47 302.532 164.182V171H304.208V164.068C304.208 161.284 302.724 159.949 300.515 159.949C298.867 159.949 297.845 160.688 297.333 161.795H297.191V160.091H295.572V171H297.248V164.438ZM311.575 175.318C314.188 175.318 316.291 174.125 316.291 171.312V160.091H314.671V161.824H314.501C314.131 161.256 313.45 159.949 311.319 159.949C308.563 159.949 306.66 162.136 306.66 165.489C306.66 168.898 308.648 170.83 311.291 170.83C313.421 170.83 314.103 169.58 314.472 168.983H314.614V171.199C314.614 173.017 313.336 173.841 311.575 173.841C309.593 173.841 308.897 172.797 308.45 172.193L307.114 173.131C307.796 174.274 309.139 175.318 311.575 175.318ZM311.518 169.324C309.416 169.324 308.336 167.733 308.336 165.46C308.336 163.244 309.387 161.455 311.518 161.455C313.563 161.455 314.643 163.102 314.643 165.46C314.643 167.875 313.535 169.324 311.518 169.324ZM325.806 175.233C327.341 175.233 328.392 174.438 329.017 172.761L333.704 160.091H331.886L328.875 168.784H328.761L325.75 160.091H323.931L327.966 171.057L327.596 172.08C327.007 173.713 326.233 173.869 325.011 173.557L324.585 175.034C324.755 175.119 325.238 175.233 325.806 175.233ZM339.858 171.227C342.812 171.227 344.801 168.983 344.801 165.602C344.801 162.193 342.812 159.949 339.858 159.949C336.903 159.949 334.915 162.193 334.915 165.602C334.915 168.983 336.903 171.227 339.858 171.227ZM339.858 169.722C337.613 169.722 336.591 167.79 336.591 165.602C336.591 163.415 337.613 161.455 339.858 161.455C342.102 161.455 343.125 163.415 343.125 165.602C343.125 167.79 342.102 169.722 339.858 169.722ZM354.134 166.54C354.134 168.585 352.572 169.523 351.322 169.523C349.93 169.523 348.936 168.5 348.936 166.909V160.091H347.259V167.023C347.259 169.807 348.737 171.142 350.782 171.142C352.43 171.142 353.509 170.261 354.021 169.153H354.134V171H355.811V160.091H354.134V166.54ZM358.781 171H360.457V164.097C360.457 162.626 361.621 161.54 363.212 161.54C363.631 161.54 363.944 161.618 364.178 161.739L364.746 160.318C364.406 160.077 363.958 159.92 363.354 159.92C362.033 159.92 360.904 160.659 360.514 161.739H360.4V160.091H358.781V171ZM373.558 164.438C373.558 162.534 374.772 161.455 376.427 161.455C378.004 161.455 378.955 162.449 378.955 164.182V171H380.631V164.068C380.631 161.263 379.14 159.949 376.91 159.949C375.191 159.949 374.211 160.666 373.7 161.795H373.558V156.455H371.881V171H373.558V164.438ZM386.808 171.256C388.711 171.256 389.706 170.233 390.047 169.523H390.132V171H391.808V163.812C391.808 160.347 389.166 159.949 387.774 159.949C386.126 159.949 384.251 160.517 383.399 162.506L384.99 163.074C385.359 162.278 386.233 161.426 387.831 161.426C389.372 161.426 390.132 162.243 390.132 163.642V163.699C390.132 164.509 389.308 164.438 387.319 164.693C385.295 164.956 383.086 165.403 383.086 167.903C383.086 170.034 384.734 171.256 386.808 171.256ZM387.064 169.75C385.728 169.75 384.763 169.153 384.763 167.989C384.763 166.71 385.927 166.312 387.234 166.142C387.944 166.057 389.848 165.858 390.132 165.517V167.051C390.132 168.415 389.052 169.75 387.064 169.75ZM396.443 164.438C396.443 162.534 397.622 161.455 399.228 161.455C400.783 161.455 401.728 162.47 401.728 164.182V171H403.404V164.068C403.404 161.284 401.919 159.949 399.71 159.949C398.063 159.949 397.04 160.688 396.529 161.795H396.387V160.091H394.767V171H396.443V164.438ZM410.486 171.227C412.588 171.227 413.298 169.92 413.668 169.324H413.867V171H415.486V156.455H413.81V161.824H413.668C413.298 161.256 412.645 159.949 410.514 159.949C407.759 159.949 405.855 162.136 405.855 165.574C405.855 169.04 407.759 171.227 410.486 171.227ZM410.713 169.722C408.611 169.722 407.531 167.875 407.531 165.545C407.531 163.244 408.582 161.455 410.713 161.455C412.759 161.455 413.838 163.102 413.838 165.545C413.838 168.017 412.73 169.722 410.713 169.722ZM426.416 162.534C425.89 160.986 424.711 159.949 422.552 159.949C420.251 159.949 418.546 161.256 418.546 163.102C418.546 164.608 419.441 165.616 421.444 166.085L423.262 166.511C424.363 166.767 424.882 167.293 424.882 168.045C424.882 168.983 423.887 169.75 422.325 169.75C420.954 169.75 420.095 169.161 419.796 167.989L418.205 168.386C418.596 170.24 420.123 171.227 422.353 171.227C424.889 171.227 426.615 169.842 426.615 167.96C426.615 166.44 425.663 165.482 423.717 165.006L422.097 164.608C420.805 164.288 420.222 163.855 420.222 163.017C420.222 162.08 421.217 161.398 422.552 161.398C424.015 161.398 424.619 162.207 424.91 162.96L426.416 162.534ZM443.483 160.091H441.665L438.654 168.784H438.54L435.529 160.091H433.71L437.744 171H439.449L443.483 160.091ZM446.279 171H447.955V160.091H446.279V171ZM447.131 158.273C447.785 158.273 448.324 157.761 448.324 157.136C448.324 156.511 447.785 156 447.131 156C446.478 156 445.938 156.511 445.938 157.136C445.938 157.761 446.478 158.273 447.131 158.273ZM454.135 171.256C456.039 171.256 457.033 170.233 457.374 169.523H457.459V171H459.135V163.812C459.135 160.347 456.493 159.949 455.101 159.949C453.454 159.949 451.579 160.517 450.726 162.506L452.317 163.074C452.686 162.278 453.56 161.426 455.158 161.426C456.699 161.426 457.459 162.243 457.459 163.642V163.699C457.459 164.509 456.635 164.438 454.647 164.693C452.623 164.956 450.414 165.403 450.414 167.903C450.414 170.034 452.061 171.256 454.135 171.256ZM454.391 169.75C453.056 169.75 452.09 169.153 452.09 167.989C452.09 166.71 453.255 166.312 454.561 166.142C455.272 166.057 457.175 165.858 457.459 165.517V167.051C457.459 168.415 456.38 169.75 454.391 169.75ZM470.091 171H471.739L474.125 162.619H474.296L476.682 171H478.33L481.654 160.091H479.892L477.534 168.415H477.421L475.12 160.091H473.33L471 168.443H470.887L468.529 160.091H466.767L470.091 171ZM487.972 171.227C490.188 171.227 491.808 170.119 492.319 168.472L490.7 168.017C490.274 169.153 489.286 169.722 487.972 169.722C486.005 169.722 484.649 168.45 484.57 166.114H492.489V165.403C492.489 161.341 490.075 159.949 487.802 159.949C484.847 159.949 482.887 162.278 482.887 165.631C482.887 168.983 484.819 171.227 487.972 171.227ZM484.57 164.665C484.684 162.967 485.884 161.455 487.802 161.455C489.62 161.455 490.785 162.818 490.785 164.665H484.57ZM495.166 171H496.786V169.324H496.985C497.354 169.92 498.064 171.227 500.166 171.227C502.894 171.227 504.797 169.04 504.797 165.574C504.797 162.136 502.894 159.949 500.138 159.949C498.007 159.949 497.354 161.256 496.985 161.824H496.843V156.455H495.166V171ZM496.814 165.545C496.814 163.102 497.894 161.455 499.939 161.455C502.07 161.455 503.121 163.244 503.121 165.545C503.121 167.875 502.041 169.722 499.939 169.722C497.922 169.722 496.814 168.017 496.814 165.545ZM511.693 171.227C514.108 171.227 515.699 169.75 515.983 167.818H514.307C513.994 169.011 513 169.722 511.693 169.722C509.704 169.722 508.426 168.074 508.426 165.545C508.426 163.074 509.733 161.455 511.693 161.455C513.17 161.455 514.051 162.364 514.307 163.358H515.983C515.699 161.312 513.966 159.949 511.664 159.949C508.71 159.949 506.75 162.278 506.75 165.602C506.75 168.869 508.625 171.227 511.693 171.227ZM521.543 171.256C523.447 171.256 524.441 170.233 524.782 169.523H524.867V171H526.543V163.812C526.543 160.347 523.901 159.949 522.509 159.949C520.861 159.949 518.986 160.517 518.134 162.506L519.725 163.074C520.094 162.278 520.968 161.426 522.566 161.426C524.107 161.426 524.867 162.243 524.867 163.642V163.699C524.867 164.509 524.043 164.438 522.055 164.693C520.03 164.956 517.822 165.403 517.822 167.903C517.822 170.034 519.469 171.256 521.543 171.256ZM521.799 169.75C520.464 169.75 519.498 169.153 519.498 167.989C519.498 166.71 520.662 166.312 521.969 166.142C522.68 166.057 524.583 165.858 524.867 165.517V167.051C524.867 168.415 523.787 169.75 521.799 169.75ZM529.502 171H531.179V164.182C531.179 162.584 532.343 161.455 533.65 161.455C534.921 161.455 535.809 162.286 535.809 163.528V171H537.514V163.898C537.514 162.491 538.394 161.455 539.929 161.455C541.122 161.455 542.144 162.087 542.144 163.699V171H543.821V163.699C543.821 161.135 542.443 159.949 540.497 159.949C538.934 159.949 537.791 160.666 537.23 161.795H537.116C536.576 160.631 535.625 159.949 534.19 159.949C532.769 159.949 531.718 160.631 531.264 161.795H531.122V160.091H529.502V171ZM549.285 169.011H547.467L547.382 169.807C547.176 171.732 546.771 173.649 546.586 174.551H547.865C548.206 173.585 548.93 171.398 549.172 169.778L549.285 169.011ZM557.816 171H559.492V164.097C559.492 162.626 560.657 161.54 562.248 161.54C562.667 161.54 562.979 161.618 563.213 161.739L563.782 160.318C563.441 160.077 562.993 159.92 562.39 159.92C561.069 159.92 559.939 160.659 559.549 161.739H559.435V160.091H557.816V171ZM569.633 171.227C571.849 171.227 573.469 170.119 573.98 168.472L572.361 168.017C571.934 169.153 570.947 169.722 569.633 169.722C567.666 169.722 566.309 168.45 566.231 166.114H574.15V165.403C574.15 161.341 571.736 159.949 569.463 159.949C566.508 159.949 564.548 162.278 564.548 165.631C564.548 168.983 566.48 171.227 569.633 171.227ZM566.231 164.665C566.345 162.967 567.545 161.455 569.463 161.455C571.281 161.455 572.446 162.818 572.446 164.665H566.231ZM581.032 171.227C583.447 171.227 585.038 169.75 585.322 167.818H583.646C583.333 169.011 582.339 169.722 581.032 169.722C579.043 169.722 577.765 168.074 577.765 165.545C577.765 163.074 579.072 161.455 581.032 161.455C582.509 161.455 583.39 162.364 583.646 163.358H585.322C585.038 161.312 583.305 159.949 581.004 159.949C578.049 159.949 576.089 162.278 576.089 165.602C576.089 168.869 577.964 171.227 581.032 171.227ZM592.104 171.227C595.058 171.227 597.047 168.983 597.047 165.602C597.047 162.193 595.058 159.949 592.104 159.949C589.149 159.949 587.161 162.193 587.161 165.602C587.161 168.983 589.149 171.227 592.104 171.227ZM592.104 169.722C589.859 169.722 588.837 167.79 588.837 165.602C588.837 163.415 589.859 161.455 592.104 161.455C594.348 161.455 595.371 163.415 595.371 165.602C595.371 167.79 594.348 169.722 592.104 169.722ZM599.506 171H601.182V164.097C601.182 162.626 602.346 161.54 603.937 161.54C604.356 161.54 604.669 161.618 604.903 161.739L605.471 160.318C605.131 160.077 604.683 159.92 604.079 159.92C602.758 159.92 601.629 160.659 601.239 161.739H601.125V160.091H599.506V171ZM610.869 171.227C612.971 171.227 613.681 169.92 614.05 169.324H614.249V171H615.869V156.455H614.193V161.824H614.05C613.681 161.256 613.028 159.949 610.897 159.949C608.141 159.949 606.238 162.136 606.238 165.574C606.238 169.04 608.141 171.227 610.869 171.227ZM611.096 169.722C608.994 169.722 607.914 167.875 607.914 165.545C607.914 163.244 608.965 161.455 611.096 161.455C613.141 161.455 614.221 163.102 614.221 165.545C614.221 168.017 613.113 169.722 611.096 169.722ZM621.571 169.011H619.753L619.668 169.807C619.462 171.732 619.057 173.649 618.872 174.551H620.151C620.492 173.585 621.216 171.398 621.458 169.778L621.571 169.011ZM295.534 195.256C297.437 195.256 298.432 194.233 298.772 193.523H298.858V195H300.534V187.812C300.534 184.347 297.892 183.949 296.5 183.949C294.852 183.949 292.977 184.517 292.125 186.506L293.716 187.074C294.085 186.278 294.958 185.426 296.557 185.426C298.098 185.426 298.858 186.243 298.858 187.642V187.699C298.858 188.509 298.034 188.438 296.045 188.693C294.021 188.956 291.812 189.403 291.812 191.903C291.812 194.034 293.46 195.256 295.534 195.256ZM295.789 193.75C294.454 193.75 293.488 193.153 293.488 191.989C293.488 190.71 294.653 190.312 295.96 190.142C296.67 190.057 298.574 189.858 298.858 189.517V191.051C298.858 192.415 297.778 193.75 295.789 193.75ZM305.169 188.438C305.169 186.534 306.348 185.455 307.953 185.455C309.509 185.455 310.453 186.47 310.453 188.182V195H312.129V188.068C312.129 185.284 310.645 183.949 308.436 183.949C306.789 183.949 305.766 184.688 305.254 185.795H305.112V184.091H303.493V195H305.169V188.438ZM319.212 195.227C321.314 195.227 322.024 193.92 322.393 193.324H322.592V195H324.212V180.455H322.535V185.824H322.393C322.024 185.256 321.371 183.949 319.24 183.949C316.484 183.949 314.581 186.136 314.581 189.574C314.581 193.04 316.484 195.227 319.212 195.227ZM319.439 193.722C317.337 193.722 316.257 191.875 316.257 189.545C316.257 187.244 317.308 185.455 319.439 185.455C321.484 185.455 322.564 187.102 322.564 189.545C322.564 192.017 321.456 193.722 319.439 193.722ZM340.666 186.534C340.141 184.986 338.962 183.949 336.803 183.949C334.502 183.949 332.797 185.256 332.797 187.102C332.797 188.608 333.692 189.616 335.695 190.085L337.513 190.511C338.614 190.767 339.132 191.293 339.132 192.045C339.132 192.983 338.138 193.75 336.576 193.75C335.205 193.75 334.345 193.161 334.047 191.989L332.456 192.386C332.847 194.24 334.374 195.227 336.604 195.227C339.139 195.227 340.865 193.842 340.865 191.96C340.865 190.44 339.914 189.482 337.968 189.006L336.348 188.608C335.056 188.288 334.473 187.855 334.473 187.017C334.473 186.08 335.468 185.398 336.803 185.398C338.266 185.398 338.87 186.207 339.161 186.96L340.666 186.534ZM344.965 188.438C344.965 186.534 346.179 185.455 347.834 185.455C349.411 185.455 350.362 186.449 350.362 188.182V195H352.038V188.068C352.038 185.263 350.547 183.949 348.317 183.949C346.598 183.949 345.618 184.666 345.107 185.795H344.965V180.455H343.288V195H344.965V188.438ZM358.215 195.256C360.118 195.256 361.113 194.233 361.454 193.523H361.539V195H363.215V187.812C363.215 184.347 360.573 183.949 359.181 183.949C357.533 183.949 355.658 184.517 354.806 186.506L356.397 187.074C356.766 186.278 357.64 185.426 359.238 185.426C360.779 185.426 361.539 186.243 361.539 187.642V187.699C361.539 188.509 360.715 188.438 358.726 188.693C356.702 188.956 354.493 189.403 354.493 191.903C354.493 194.034 356.141 195.256 358.215 195.256ZM358.471 193.75C357.135 193.75 356.17 193.153 356.17 191.989C356.17 190.71 357.334 190.312 358.641 190.142C359.351 190.057 361.255 189.858 361.539 189.517V191.051C361.539 192.415 360.459 193.75 358.471 193.75ZM366.174 195H367.85V188.097C367.85 186.626 369.015 185.54 370.606 185.54C371.025 185.54 371.338 185.618 371.572 185.739L372.14 184.318C371.799 184.077 371.352 183.92 370.748 183.92C369.427 183.92 368.298 184.659 367.907 185.739H367.794V184.091H366.174V195ZM377.992 195.227C380.208 195.227 381.827 194.119 382.339 192.472L380.719 192.017C380.293 193.153 379.306 193.722 377.992 193.722C376.025 193.722 374.668 192.45 374.59 190.114H382.509V189.403C382.509 185.341 380.094 183.949 377.821 183.949C374.867 183.949 372.907 186.278 372.907 189.631C372.907 192.983 374.839 195.227 377.992 195.227ZM374.59 188.665C374.704 186.967 375.904 185.455 377.821 185.455C379.64 185.455 380.804 186.818 380.804 188.665H374.59ZM392.955 195H394.603L396.989 186.619H397.16L399.546 195H401.194L404.518 184.091H402.756L400.398 192.415H400.285L397.984 184.091H396.194L393.864 192.443H393.751L391.393 184.091H389.631L392.955 195ZM406.634 195H408.31V184.091H406.634V195ZM407.486 182.273C408.139 182.273 408.679 181.761 408.679 181.136C408.679 180.511 408.139 180 407.486 180C406.833 180 406.293 180.511 406.293 181.136C406.293 181.761 406.833 182.273 407.486 182.273ZM416.024 184.091H413.695V181.477H412.018V184.091H410.371V185.511H412.018V192.33C412.018 194.233 413.553 195.142 414.973 195.142C415.598 195.142 415.996 195.028 416.223 194.943L415.882 193.438C415.74 193.466 415.513 193.523 415.143 193.523C414.405 193.523 413.695 193.295 413.695 191.875V185.511H416.024V184.091ZM420.356 188.438C420.356 186.534 421.57 185.455 423.225 185.455C424.802 185.455 425.754 186.449 425.754 188.182V195H427.43V188.068C427.43 185.263 425.938 183.949 423.708 183.949C421.989 183.949 421.009 184.666 420.498 185.795H420.356V180.455H418.68V195H420.356V188.438ZM440.353 195.227C443.308 195.227 445.296 192.983 445.296 189.602C445.296 186.193 443.308 183.949 440.353 183.949C437.398 183.949 435.41 186.193 435.41 189.602C435.41 192.983 437.398 195.227 440.353 195.227ZM440.353 193.722C438.109 193.722 437.086 191.79 437.086 189.602C437.086 187.415 438.109 185.455 440.353 185.455C442.597 185.455 443.62 187.415 443.62 189.602C443.62 191.79 442.597 193.722 440.353 193.722ZM452.499 184.091H450.17V181.477H448.493V184.091H446.846V185.511H448.493V192.33C448.493 194.233 450.028 195.142 451.448 195.142C452.073 195.142 452.471 195.028 452.698 194.943L452.357 193.438C452.215 193.466 451.988 193.523 451.618 193.523C450.88 193.523 450.17 193.295 450.17 191.875V185.511H452.499V184.091ZM456.831 188.438C456.831 186.534 458.045 185.455 459.7 185.455C461.277 185.455 462.229 186.449 462.229 188.182V195H463.905V188.068C463.905 185.263 462.413 183.949 460.183 183.949C458.464 183.949 457.484 184.666 456.973 185.795H456.831V180.455H455.155V195H456.831V188.438ZM471.445 195.227C473.661 195.227 475.28 194.119 475.792 192.472L474.172 192.017C473.746 193.153 472.759 193.722 471.445 193.722C469.478 193.722 468.121 192.45 468.043 190.114H475.962V189.403C475.962 185.341 473.547 183.949 471.275 183.949C468.32 183.949 466.36 186.278 466.36 189.631C466.36 192.983 468.292 195.227 471.445 195.227ZM468.043 188.665C468.157 186.967 469.357 185.455 471.275 185.455C473.093 185.455 474.258 186.818 474.258 188.665H468.043ZM478.412 195H480.088V188.097C480.088 186.626 481.253 185.54 482.844 185.54C483.263 185.54 483.575 185.618 483.81 185.739L484.378 184.318C484.037 184.077 483.589 183.92 482.986 183.92C481.665 183.92 480.535 184.659 480.145 185.739H480.031V184.091H478.412V195ZM493.715 186.534C493.189 184.986 492.01 183.949 489.851 183.949C487.55 183.949 485.846 185.256 485.846 187.102C485.846 188.608 486.74 189.616 488.743 190.085L490.561 190.511C491.662 190.767 492.181 191.293 492.181 192.045C492.181 192.983 491.186 193.75 489.624 193.75C488.253 193.75 487.394 193.161 487.096 191.989L485.505 192.386C485.895 194.24 487.422 195.227 489.652 195.227C492.188 195.227 493.914 193.842 493.914 191.96C493.914 190.44 492.962 189.482 491.016 189.006L489.397 188.608C488.104 188.288 487.522 187.855 487.522 187.017C487.522 186.08 488.516 185.398 489.851 185.398C491.314 185.398 491.918 186.207 492.209 186.96L493.715 186.534ZM497.558 195.114C498.262 195.114 498.837 194.538 498.837 193.835C498.837 193.132 498.262 192.557 497.558 192.557C496.855 192.557 496.28 193.132 496.28 193.835C496.28 194.538 496.855 195.114 497.558 195.114Z" fill="white"/>
</svg>
