<svg width="24" height="24" viewBox="0 0 24 24" fill="none" xmlns="http://www.w3.org/2000/svg">
<path fill-rule="evenodd" clip-rule="evenodd" d="M17.1145 18.4577C15.3079 19.9862 12.9922 20.8895 10.4447 20.8895C4.70114 20.8895 0 16.2113 0 10.4448C0 4.70117 4.70114 0 10.4447 0C16.2112 0 20.8894 4.67823 20.8894 10.4448C20.8894 12.9693 19.9631 15.3084 18.4576 17.1146L23.7222 22.3793C24.0926 22.7497 24.0926 23.3519 23.7222 23.7223C23.5372 23.9073 23.2825 24 23.0507 24C22.7959 24 22.5646 23.9078 22.3791 23.7223L17.1145 18.4577ZM18.9903 10.4448C18.9903 5.7431 15.1691 1.89892 10.4445 1.89892C5.74338 1.89892 1.89873 5.74359 1.89873 10.4448C1.89873 15.1464 5.71996 18.9906 10.4445 18.9906C15.1691 18.9906 18.9903 15.1693 18.9903 10.4448Z" fill="white" fill-opacity="0.7"/>
<path d="M9.49504 15.2387C9.49504 15.7711 9.91181 16.1884 10.4447 16.1884C10.9777 16.1884 11.3944 15.7716 11.3944 15.2387V11.394H15.2386C15.771 11.394 16.1883 10.9772 16.1883 10.4443C16.1883 9.91135 15.7715 9.49457 15.2386 9.49457H11.3939V5.6499C11.3939 5.11746 10.9772 4.7002 10.4442 4.7002C9.91132 4.7002 9.49455 5.11697 9.49455 5.6499V9.49457H5.64989C5.11746 9.49457 4.7002 9.91135 4.7002 10.4443C4.7002 10.9772 5.11697 11.394 5.64989 11.394H9.49455L9.49504 15.2387Z" fill="white" fill-opacity="0.7"/>
</svg>
