<svg width="24" height="24" viewBox="0 0 24 24" fill="none" xmlns="http://www.w3.org/2000/svg">
<path fill-rule="evenodd" clip-rule="evenodd" d="M17.1145 18.4577C15.3079 19.9862 12.9922 20.8895 10.4447 20.8895C4.70114 20.8895 0 16.2113 0 10.4448C0 4.70117 4.70114 0 10.4447 0C16.2112 0 20.8894 4.67823 20.8894 10.4448C20.8894 12.9693 19.9631 15.3084 18.4576 17.1146L23.7222 22.3793C24.0926 22.7497 24.0926 23.3519 23.7222 23.7223C23.5372 23.9073 23.2825 24 23.0507 24C22.7959 24 22.5646 23.9078 22.3791 23.7223L17.1145 18.4577ZM18.9905 10.4448C18.9905 5.7431 15.1693 1.89891 10.4447 1.89891C5.74359 1.89891 1.89893 5.74359 1.89893 10.4448C1.89893 15.1464 5.72016 18.9906 10.4447 18.9906C15.1693 18.9906 18.9905 15.1693 18.9905 10.4448Z" fill="white" fill-opacity="0.7"/>
<path d="M15.2386 11.394C15.771 11.394 16.1883 10.9772 16.1883 10.4443C16.1883 9.91134 15.7715 9.49457 15.2386 9.49457H5.64989C5.11746 9.49457 4.7002 9.91134 4.7002 10.4443C4.7002 10.9772 5.11697 11.394 5.64989 11.394H15.2386Z" fill="white" fill-opacity="0.7"/>
</svg>
